<svg xmlns="http://www.w3.org/2000/svg" viewBox="0 0 310.44 269.58"><defs><style>.cls-1{fill:#007a97;}.cls-2{fill:#231f20;}.cls-2,.cls-3{stroke:#000;stroke-miterlimit:10;stroke-width:1.24px;}.cls-3{fill:#ffcc05;}</style></defs><title>Asset 3</title><g id="Layer_2" data-name="Layer 2"><g id="Layer_1-2" data-name="Layer 1"><polygon class="cls-1" points="111.11 232.51 134.94 268.67 155.93 236.15 188.84 264.33 206.32 227.71 244.86 236.69 247.1 198.15 293.33 187.25 260.76 149.75 305.12 125.42 274.93 107.58 294.92 74.81 255.09 72.37 253.52 29.84 214.72 37.3 199.22 6.3 174.45 47.43 140.09 15.76 120.5 54.44 72.03 36.46 70.72 81.74 6.82 88.52 44.55 122.97 3.76 154.69 45.03 173.47 22.1 214.71 72.68 207.28 61.67 252.18 111.11 232.51"/><path d="M111.11,232.51l24.25,35.89h-.83l20.7-32.7.5-.8.74.62,33.16,27.89-1.87.4,17.17-36.76.52-1.12,1.22.28L245.26,235l-2.15,1.6,2-38.54.07-1.45,1.43-.34,46.17-11.15-1.16,3.6L258.9,151.37l-2-2.3,2.7-1.49,44.27-24.47-.07,4.58L273.56,109.9l-2.35-1.38,1.42-2.34,19.93-32.8,2.19,4.19-39.84-2.38L252.36,75l-.1-2.57L250.62,30l3.45,2.74-38.79,7.52-2.21.43-1-2-15.55-31,5.31.21L177,49l-1.9,3.15-2.69-2.49L138.11,17.9l4.58-.82L123,55.72,121.88,58l-2.37-.88L71.08,39l3.7-2.5L73.39,81.82l-.08,2.33L71,84.39,7.08,91l1.43-4.34,37.55,34.65L48,123.13l-2.09,1.61L5,156.24l-.39-3.33,41.17,19,1.7.79-.91,1.61L23.35,215.41l-1.46-2.11,50.65-7,1.46-.2-.36,1.41L62.23,252.32l-.78-.69Zm0,0L61.88,252.72l-1,.43L61.1,252l10.62-45,1.1,1.21-50.51,7.88-2.86.45,1.4-2.56,22.68-41.39.79,2.4L3,156.47,0,155.15l2.56-2,40.62-31.93-.13,3.41L5.13,90.37,1,86.63,6.55,86l63.89-6.93-2.39,2.57,1.24-45.28.1-3.82L73,33.89l48.5,17.89L118,53.16l19.52-38.72L139.22,11l2.84,2.61,34.42,31.6-4.6.66L196.62,4.74,199.47,0l2.46,4.94,15.45,31-3.22-1.59L253,27l3.33-.63.12,3.38,1.48,42.53-2.65-2.72,39.83,2.51,4.57.29-2.39,3.9-20,32.73-.93-3.72,30.16,17.9,4,2.36-4.06,2.21L262,151.91l.68-3.78L295,185.81l2.39,2.77-3.55.82-46.28,10.66,1.5-1.79-2.44,38.52-.13,2.08-2-.48L206,229.22l1.75-.84-17.79,36.47-.69,1.42-1.18-1-32.67-28.46,1.23-.18-21.26,32.34-.42.64-.41-.63Z"/><path class="cls-2" d="M68.28,128.46a5.48,5.48,0,0,1,3.24,1.31,21.32,21.32,0,0,0,6.59,4.08q2.82.93,4.07-.42.76-.7-.21-1.92a22.72,22.72,0,0,0-2.75-2.79c-1.18-1-2.5-2.17-3.94-3.37a35.3,35.3,0,0,1-3.76-3.6,14.61,14.61,0,0,1-3.42-6.19,14.85,14.85,0,0,1,.21-8.12,19.55,19.55,0,0,1,1.36-3.81,30.87,30.87,0,0,1,4.92-7.45,20.26,20.26,0,0,1,2.92-2.73,7.06,7.06,0,0,1,1.26-.86,6.13,6.13,0,0,1,1.7-.61,8.06,8.06,0,0,1,2.06-.13,8,8,0,0,1,2.3.51,28.49,28.49,0,0,1,3.69,1.93,13.86,13.86,0,0,1,3.14,2.57,7.36,7.36,0,0,1,2.06,3.72A28.73,28.73,0,0,1,94.1,104c0,.94-.15,2-.31,3.15s-.35,2.32-.56,3.49-.44,2.33-.7,3.44a28.09,28.09,0,0,1-.8,2.89,2.51,2.51,0,0,1-1,1.44,1.84,1.84,0,0,1-1.61-.23q-6-2.68-5.57-7.31A22.66,22.66,0,0,1,84,107.6c.25-1.3.44-2.48.56-3.53a5.83,5.83,0,0,0-.07-2.27c-.17-.47-.62-.37-1.36.32a10.4,10.4,0,0,0-2.34,2.44,16.46,16.46,0,0,0-2.12,3.88,13.19,13.19,0,0,0-.91,4.39,5.66,5.66,0,0,0,1.4,4,27,27,0,0,0,4.42,4.3,57.11,57.11,0,0,1,4.6,4,15.44,15.44,0,0,1,3.14,4.17,6,6,0,0,1,.1,4.88A16,16,0,0,1,90.23,137a11.7,11.7,0,0,1-2.12,2.83A11.47,11.47,0,0,1,84.8,142,12.2,12.2,0,0,1,80,143a13.79,13.79,0,0,1-7.25-1.79,23.42,23.42,0,0,1-7-6.74c-1.25-1.58-1.88-2.74-1.88-3.47a2.06,2.06,0,0,1,.91-1.79A6,6,0,0,1,68.28,128.46Z"/><path class="cls-2" d="M108.63,98a4.29,4.29,0,0,1,0,2.08c-.38,1.59-.77,3.45-1.19,5.59s-.85,4.41-1.29,6.83-.88,4.93-1.32,7.54-.87,5.18-1.29,7.7-.8,4.95-1.15,7.28-.66,4.44-.94,6.33a2.37,2.37,0,0,1-.63,1.41c-.28.21-.81.19-1.6-.07s-1.56-.6-2.3-.9a9.25,9.25,0,0,1-2.09-1.15A3.27,3.27,0,0,1,93.44,139a6.72,6.72,0,0,1-.18-2.6c.1-1.45.26-3.26.49-5.42s.51-4.5.84-7,.67-5.16,1-7.9.76-5.39,1.15-8,.79-5,1.19-7.26.75-4.19,1.08-5.77a2.55,2.55,0,0,1,1-1.73,2.5,2.5,0,0,1,1.89.12,15.28,15.28,0,0,1,2.71,1.19,17.48,17.48,0,0,1,2.58,1.7A3.89,3.89,0,0,1,108.63,98Z"/><path class="cls-2" d="M136.3,114.44a1.85,1.85,0,0,1-1.5.25,7,7,0,0,1-4.42-2.24,8.08,8.08,0,0,1-1.71-4.49c0-.34-.08-.69-.11-1s0-.71,0-1.09,0-.76,0-1.12-.05-.72-.1-1.06c-.09-.64-.2-1.2-.31-1.67s-.32-.75-.6-.83c-.55-.22-1.22.08-2,.89a16.17,16.17,0,0,0-2.34,3.44,44.08,44.08,0,0,0-2.33,5.23,56.12,56.12,0,0,0-2,6.35,41.49,41.49,0,0,0-1.15,5.77,37.23,37.23,0,0,0-.31,5.62,18.85,18.85,0,0,0,.56,4.43,3.22,3.22,0,0,0,1.46,2.28,1.68,1.68,0,0,0,1.71-.2,6.93,6.93,0,0,0,1.74-1.79,17.81,17.81,0,0,0,1.67-3c.54-1.17,1-2.43,1.5-3.75a5,5,0,0,1-4.11-1.25,9.67,9.67,0,0,1-2.23-4.72c-.23-1,0-1.6.7-1.86a17.85,17.85,0,0,1,2.71-.71,31,31,0,0,1,3.35-.73c1.16-.2,2.16-.38,3-.55a5,5,0,0,1,2.4.06,3.58,3.58,0,0,1,1.71,1.42,12.55,12.55,0,0,1,1,1.54l.91,1.54a5.8,5.8,0,0,1,.84,2.37,10.12,10.12,0,0,1-.28,2.63,42.73,42.73,0,0,1-3.56,9.31,20.34,20.34,0,0,1-4.6,6,8.58,8.58,0,0,1-7.46,1.74,18.63,18.63,0,0,1-6.9-2.7,11.87,11.87,0,0,1-2.3-2.41,10.92,10.92,0,0,1-1.67-3.3,23.84,23.84,0,0,1-1.36-6.26,41,41,0,0,1,0-7.34,55,55,0,0,1,3.69-15.31,42.11,42.11,0,0,1,3.42-6.7,24.24,24.24,0,0,1,4.32-5.2A6.06,6.06,0,0,1,123,92.36a10.58,10.58,0,0,1,3.28,0,17,17,0,0,1,4.29,1.32,12.26,12.26,0,0,1,3.66,2.47,8.76,8.76,0,0,1,2,3,15.09,15.09,0,0,1,.94,3.69c.09.73.15,1.57.18,2.51s0,1.87,0,2.79-.07,1.81-.14,2.66-.15,1.58-.25,2.18A3.25,3.25,0,0,1,136.3,114.44Z"/><path class="cls-2" d="M161.25,107.35q1.16-6.84,2.2-12.29a2.43,2.43,0,0,1,.94-1.77,2.56,2.56,0,0,1,1.91,0,15.67,15.67,0,0,1,2.1.77,14.7,14.7,0,0,1,2.3,1.47,3.38,3.38,0,0,1,1.39,1.83,5.41,5.41,0,0,1-.07,2.28q-.77,3.91-1.64,9.14t-1.71,10.82q-.82,5.58-1.63,11.07c-.54,3.65-1,7-1.43,9.91-.14,1.62-1.05,2.18-2.72,1.67-.74-.22-1.48-.46-2.2-.74s-1.45-.59-2.19-.93a6.14,6.14,0,0,1-2.86-3.85c-.42-1.28-.85-2.76-1.29-4.43s-.87-3.45-1.29-5.36-.83-3.86-1.25-5.87-.82-4-1.19-6c-.37,2.4-.75,4.82-1.15,7.28s-.76,4.83-1.11,7.09-.68,4.41-1,6.42-.54,3.79-.73,5.33a1.9,1.9,0,0,1-.59,1.38c-.3.19-.85.14-1.64-.16l-2.27-.81A6.17,6.17,0,0,1,140,140.3a3.38,3.38,0,0,1-1.29-1.64,6.2,6.2,0,0,1-.11-2.6c.1-1.11.26-2.64.49-4.58s.5-4.14.8-6.58.66-5,1.05-7.73.79-5.42,1.18-8.09.81-5.21,1.22-7.6.82-4.5,1.19-6.29a2.57,2.57,0,0,1,1.11-1.86,2.54,2.54,0,0,1,2,0c1,.34,1.94.7,2.89,1.09a22,22,0,0,1,3,1.47,4,4,0,0,1,1.78,1.64,9.48,9.48,0,0,1,.8,2.92c.14,1,.32,2.28.56,3.88s.5,3.36.8,5.26.61,3.9.94,6,.65,4.08,1,6Q160.1,114.18,161.25,107.35Z"/><path class="cls-2" d="M189.41,127.18a77.32,77.32,0,0,1,.66-10.21c.47-3.61,1.1-7.29,1.92-11s1.63-7.27,2.47-10.56c.23-.94.57-1.51,1-1.7a2.6,2.6,0,0,1,1.92.22,12.72,12.72,0,0,1,2.3,1.16,18.8,18.8,0,0,1,2.16,1.6,4.9,4.9,0,0,1,1.46,5.14q-.69,2.76-1.5,6.16c-.53,2.27-1,4.56-1.49,6.9s-.86,4.63-1.19,6.89-.53,4.31-.63,6.13a19.88,19.88,0,0,0,.21,4.56c.24,1.22.68,2,1.33,2.21q1.25.45,2.4-1.44A23.05,23.05,0,0,0,204.6,128c.68-2.23,1.31-4.8,1.92-7.73s1.16-5.92,1.67-9,1-6,1.36-8.88.73-5.4,1-7.54q.08-1.41.87-1.74a2.93,2.93,0,0,1,2,.07,11.52,11.52,0,0,1,2.51,1.19c.88.53,1.69,1,2.44,1.57a3.65,3.65,0,0,1,1.39,1.6,5,5,0,0,1,0,2.06q-1,7.81-2,14.56t-2.4,12.1a55.92,55.92,0,0,1-3.07,9.14,14.75,14.75,0,0,1-3.94,5.58,10.3,10.3,0,0,1-3.24,1.51,10.91,10.91,0,0,1-3.73.23,12.84,12.84,0,0,1-6.83-2.44,14,14,0,0,1-2.09-2.12,11.3,11.3,0,0,1-1.67-3A21.47,21.47,0,0,1,189.41,127.18Z"/><path class="cls-2" d="M229.87,135c-.38,2.22-.7,4.42-1,6.61a2.47,2.47,0,0,1-.7,1.34c-.27.22-.81.22-1.6,0l-2.33-.86a6.9,6.9,0,0,1-2-1.09,3.93,3.93,0,0,1-1.22-1.7,4.94,4.94,0,0,1,0-2.7,31.22,31.22,0,0,0,.94-4.78q.45-3.3.87-7.44t.83-8.54c.28-2.93.56-5.63.84-8.12s.55-4.54.8-6.19.52-2.55.8-2.72a61,61,0,0,1,5.37-3.09,31.15,31.15,0,0,1,6-2.34,16.16,16.16,0,0,1,5.68-.54,6.56,6.56,0,0,1,4.5,2.37,33.39,33.39,0,0,1,2.75,4.11,20.48,20.48,0,0,1,2.06,5.52,9.81,9.81,0,0,1-.24,5.87,22,22,0,0,1-2.69,4.91,24.83,24.83,0,0,1-3.45,3.78,39.76,39.76,0,0,1-4.49,3.5,48.4,48.4,0,0,1-10.53,5.29Q230.42,131.7,229.87,135Zm8.54-20.92a21.68,21.68,0,0,0,3.69-3.66,12.38,12.38,0,0,0,2-3.59,4.86,4.86,0,0,0,.2-2.89,1.34,1.34,0,0,0-.9-1,4.66,4.66,0,0,0-1.95-.29,11.17,11.17,0,0,0-2.69.45,14.29,14.29,0,0,0-3,1.25q-.69,2.88-1.32,6.06t-1.33,6.71A22.72,22.72,0,0,0,238.41,114.12Z"/><path class="cls-2" d="M125.81,184.35q1.16-6.82,2.2-12.29a2.38,2.38,0,0,1,.94-1.76,2.5,2.5,0,0,1,1.91,0,17.18,17.18,0,0,1,2.1.77,14.93,14.93,0,0,1,2.3,1.48,3.44,3.44,0,0,1,1.39,1.82,5.58,5.58,0,0,1-.07,2.28q-.77,3.91-1.64,9.15t-1.71,10.81q-.82,5.58-1.63,11.07c-.54,3.66-1,7-1.43,9.91-.14,1.63-1,2.18-2.72,1.67-.74-.21-1.48-.46-2.2-.74s-1.45-.58-2.19-.93a6.11,6.11,0,0,1-2.86-3.85c-.42-1.28-.85-2.76-1.29-4.42s-.87-3.46-1.29-5.36-.83-3.86-1.25-5.87-.82-4-1.19-6q-.56,3.6-1.15,7.29t-1.11,7.09c-.35,2.27-.68,4.4-1,6.41s-.55,3.79-.73,5.33a1.86,1.86,0,0,1-.59,1.38c-.31.19-.85.14-1.64-.16l-2.27-.8a6.36,6.36,0,0,1-2.12-1.32,3.36,3.36,0,0,1-1.29-1.63,6.05,6.05,0,0,1-.11-2.6c.1-1.12.26-2.64.49-4.59s.5-4.14.8-6.58.66-5,1-7.73.79-5.41,1.18-8.09.81-5.2,1.22-7.6.82-4.49,1.19-6.29a2.62,2.62,0,0,1,1.11-1.86,2.53,2.53,0,0,1,2,0c1,.34,1.93.71,2.89,1.09a23.32,23.32,0,0,1,3,1.48,4,4,0,0,1,1.78,1.63,9.57,9.57,0,0,1,.8,2.92c.14,1,.32,2.28.56,3.89s.5,3.35.8,5.26.61,3.89.94,6,.65,4.08,1,6C124.41,193.65,125,188.91,125.81,184.35Z"/><path class="cls-2" d="M164.63,176.88a17.57,17.57,0,0,1,1.22,4,52.49,52.49,0,0,1,.56,8.82,61.4,61.4,0,0,1-.94,9.76,54.34,54.34,0,0,1-2.55,9.43,28.27,28.27,0,0,1-4.25,7.79,9.16,9.16,0,0,1-3.87,2.67,10.32,10.32,0,0,1-4.7.29,26.59,26.59,0,0,1-3.59-.81,11.14,11.14,0,0,1-3.38-1.63,15,15,0,0,1-2.37-2.31,10.14,10.14,0,0,1-1.81-3.21,31.7,31.7,0,0,1-1.6-9.63,50.37,50.37,0,0,1,4.25-21.4,27.94,27.94,0,0,1,5.57-8.43,8.94,8.94,0,0,1,3.38-2,7.4,7.4,0,0,1,3.73-.35,21.1,21.1,0,0,1,4.43,1.38,11.89,11.89,0,0,1,3.52,2.28A10.58,10.58,0,0,1,164.63,176.88Zm-10.84,2.72a17.46,17.46,0,0,0-2.19,3.53,45.66,45.66,0,0,0-2.06,5q-1,2.82-1.6,5.45a46.28,46.28,0,0,0-.94,5.71,44.51,44.51,0,0,0-.25,5.62,20.42,20.42,0,0,0,.56,4.46,3.19,3.19,0,0,0,1.54,2.31,1.73,1.73,0,0,0,2-.51,10,10,0,0,0,2.09-3,33.39,33.39,0,0,0,1.92-4.91,54.2,54.2,0,0,0,1.53-6.29,52.56,52.56,0,0,0,.84-5.77,55.91,55.91,0,0,0,.24-5.78,23.3,23.3,0,0,0-.45-4.62c-.28-1.28-.7-2-1.25-2.24S154.54,178.73,153.79,179.6Z"/><path class="cls-2" d="M181.71,194.84q1.42-4,2.79-7.73c.9-2.46,1.74-4.66,2.5-6.61s1.39-3.37,1.85-4.27a3,3,0,0,1,1.08-1.41,2.53,2.53,0,0,1,1.78,0,12.18,12.18,0,0,1,2,.71l1.91.9a2.6,2.6,0,0,1,1.4,1.34,9,9,0,0,1,.21,2.31c0,.6,0,1.65-.11,3.15s-.15,3.25-.24,5.26-.19,4.18-.28,6.51-.19,4.63-.28,6.9q1.32-4.23,2.86-8.89t2.92-8.85c.93-2.8,1.79-5.33,2.58-7.57s1.4-4,1.82-5.1.75-1.6,1.15-1.71a3.22,3.22,0,0,1,1.91.49,21.26,21.26,0,0,1,3.77,2.69,3.87,3.87,0,0,1,1,2.41A7,7,0,0,1,214,178c-.6,1.62-1.26,3.53-2,5.71s-1.48,4.48-2.27,6.9-1.59,4.9-2.4,7.47-1.6,5.08-2.34,7.54l-2.12,7q-1,3.33-1.78,6a2.48,2.48,0,0,1-1.22,1.57,3.85,3.85,0,0,1-2.34,0,19.87,19.87,0,0,1-2.57-.84c-.61-.26-1.35-.53-2.24-.83a3.92,3.92,0,0,1-1.88-1.77,7.13,7.13,0,0,1-.69-2.47c-.1-.85-.2-1.91-.32-3.17s-.23-2.61-.35-4.05-.22-2.89-.31-4.39-.14-2.93-.14-4.3q-1,2.63-2.16,5.55l-2.16,5.68q-1.05,2.76-1.92,5.16c-.58,1.61-1,3-1.43,4-.37.9-.77,1.43-1.22,1.58a3.09,3.09,0,0,1-1.7,0,32.8,32.8,0,0,1-5.23-1.79,3,3,0,0,1-1.53-1.38,7,7,0,0,1-.49-2.67c-.1-1.71-.18-3.66-.25-5.87s-.1-4.52-.1-7,0-5,.07-7.6.1-5.15.17-7.67.17-5,.28-7.32.25-4.49.39-6.41a3.24,3.24,0,0,1,.62-2c.33-.3.91-.35,1.75-.13s1.85.52,2.64.8a8.28,8.28,0,0,1,2.23,1.19,3.67,3.67,0,0,1,1.43,2.47,11.63,11.63,0,0,1,.11,3c-.05.9-.14,2.25-.28,4s-.29,3.83-.45,6.1-.32,4.65-.46,7.16-.25,4.9-.35,7.21C179.86,200.06,180.75,197.54,181.71,194.84Z"/><path class="cls-2" d="M214.08,212.2a5.87,5.87,0,0,1,1.29-2,4,4,0,0,1,1.95-1,4.45,4.45,0,0,1,2.62.32,4.89,4.89,0,0,1,2,1.31,6.3,6.3,0,0,1,1.15,1.86,6.57,6.57,0,0,1,.42,2,6.13,6.13,0,0,1-.18,1.79,7.18,7.18,0,0,1-.52,1.38,7,7,0,0,1-1,1.51,5.19,5.19,0,0,1-1.43,1.19,3.68,3.68,0,0,1-1.88.48,4.53,4.53,0,0,1-3.66-1.64,6.53,6.53,0,0,1-1.36-4.78A7.78,7.78,0,0,1,214.08,212.2Zm17.08-40.49a4.36,4.36,0,0,1-.07,2.28q-1,3.91-2,8c-.66,2.76-1.29,5.52-1.92,8.28s-1.22,5.46-1.78,8.12-1,5.15-1.46,7.5c-.14.86-.37,1.38-.7,1.58a2,2,0,0,1-1.53,0,12.76,12.76,0,0,1-4.32-1.92,3.3,3.3,0,0,1-1.36-1.61,5.44,5.44,0,0,1,0-2.56c.28-2.23.65-4.78,1.12-7.67s.95-5.82,1.46-8.79,1-5.87,1.6-8.7,1.07-5.3,1.54-7.44a2.85,2.85,0,0,1,.94-1.83,2.35,2.35,0,0,1,1.92.16,18.09,18.09,0,0,1,2.61,1.12,15.42,15.42,0,0,1,2.54,1.64A3.92,3.92,0,0,1,231.16,171.71Z"/><path class="cls-3" d="M65.18,125.36a5.49,5.49,0,0,1,3.24,1.32A21.38,21.38,0,0,0,75,130.75q2.82.93,4.08-.41c.51-.47.44-1.12-.21-1.93a23.64,23.64,0,0,0-2.76-2.79q-1.77-1.58-3.93-3.37a35.4,35.4,0,0,1-3.77-3.59,14.52,14.52,0,0,1-3.2-14.31,19.62,19.62,0,0,1,1.36-3.82,28.42,28.42,0,0,1,2.19-3.91,30,30,0,0,1,2.72-3.53,20.3,20.3,0,0,1,2.93-2.73,6.18,6.18,0,0,1,1.25-.87,6.08,6.08,0,0,1,1.71-.61,7.75,7.75,0,0,1,4.35.39,27.9,27.9,0,0,1,3.7,1.92,14.08,14.08,0,0,1,3.14,2.57,7.34,7.34,0,0,1,2.05,3.72A27,27,0,0,1,91,101c0,.94-.15,2-.31,3.14s-.35,2.32-.56,3.5-.44,2.32-.69,3.43a29.83,29.83,0,0,1-.81,2.89,2.47,2.47,0,0,1-1,1.44,1.81,1.81,0,0,1-1.6-.22q-6-2.7-5.58-7.32a25.45,25.45,0,0,1,.45-3.3c.26-1.31.44-2.48.56-3.53a5.68,5.68,0,0,0-.07-2.28c-.16-.47-.62-.36-1.36.32a10.81,10.81,0,0,0-2.33,2.44,16.69,16.69,0,0,0-2.13,3.88,13,13,0,0,0-.9,4.4,5.67,5.67,0,0,0,1.39,4,27.45,27.45,0,0,0,4.43,4.3,60.75,60.75,0,0,1,4.6,4,15.28,15.28,0,0,1,3.13,4.18,6,6,0,0,1,.11,4.87,17.25,17.25,0,0,1-1.22,2.86A12.17,12.17,0,0,1,85,136.72a11.16,11.16,0,0,1-3.31,2.22,12.52,12.52,0,0,1-4.77,1,13.87,13.87,0,0,1-7.25-1.8,23.18,23.18,0,0,1-7-6.74c-1.26-1.58-1.88-2.73-1.88-3.46a2.09,2.09,0,0,1,.9-1.8A6.06,6.06,0,0,1,65.18,125.36Z"/><path class="cls-3" d="M105.54,94.88a4.23,4.23,0,0,1,0,2.09c-.37,1.58-.77,3.44-1.18,5.58s-.85,4.42-1.29,6.84-.89,4.93-1.33,7.54-.87,5.17-1.29,7.7-.8,5-1.15,7.28-.66,4.44-.94,6.32a2.31,2.31,0,0,1-.63,1.41c-.27.21-.81.19-1.6-.06s-1.56-.6-2.3-.9a9.94,9.94,0,0,1-2.09-1.16,3.25,3.25,0,0,1-1.36-1.63,6.58,6.58,0,0,1-.17-2.6c.09-1.46.25-3.26.49-5.42s.51-4.51.83-7,.68-5.16,1.05-7.89.75-5.39,1.15-8,.79-5,1.18-7.25S95.63,93.55,96,92a2.54,2.54,0,0,1,1-1.73,2.48,2.48,0,0,1,1.88.13,14.64,14.64,0,0,1,2.72,1.19,17.74,17.74,0,0,1,2.58,1.7A4,4,0,0,1,105.54,94.88Z"/><path class="cls-3" d="M133.2,111.34a1.79,1.79,0,0,1-1.49.26,7,7,0,0,1-4.43-2.25,8.2,8.2,0,0,1-1.71-4.49c0-.34-.08-.68-.1-1s0-.7,0-1.09,0-.76,0-1.12-.06-.72-.11-1.06a15.82,15.82,0,0,0-.31-1.67c-.12-.47-.31-.74-.59-.83-.56-.21-1.22.09-2,.9a16.19,16.19,0,0,0-2.33,3.43,46.49,46.49,0,0,0-2.34,5.23,56.11,56.11,0,0,0-2,6.35,38.9,38.9,0,0,0-1.15,5.78,37.11,37.11,0,0,0-.32,5.61,19.32,19.32,0,0,0,.56,4.43,3.22,3.22,0,0,0,1.46,2.28,1.67,1.67,0,0,0,1.71-.19,7.15,7.15,0,0,0,1.74-1.8,18.4,18.4,0,0,0,1.68-3c.53-1.18,1-2.43,1.49-3.76a5.06,5.06,0,0,1-4.11-1.25,9.67,9.67,0,0,1-2.23-4.72c-.23-1,0-1.6.7-1.86a18.16,18.16,0,0,1,2.72-.7,30.77,30.77,0,0,1,3.34-.74c1.16-.19,2.16-.37,3-.55a4.82,4.82,0,0,1,2.4.07,3.5,3.5,0,0,1,1.71,1.41,13.84,13.84,0,0,1,1.05,1.54c.32.56.62,1.07.9,1.54a5.85,5.85,0,0,1,.84,2.37,9.77,9.77,0,0,1-.28,2.64,42.85,42.85,0,0,1-3.55,9.3,20.6,20.6,0,0,1-4.6,6,8.58,8.58,0,0,1-7.46,1.73,18.79,18.79,0,0,1-6.9-2.69,11.86,11.86,0,0,1-2.3-2.41,11.09,11.09,0,0,1-1.67-3.31,23.37,23.37,0,0,1-1.36-6.25,41.08,41.08,0,0,1,0-7.35,54.61,54.61,0,0,1,3.7-15.3,41,41,0,0,1,3.41-6.71,24.49,24.49,0,0,1,4.32-5.2,6,6,0,0,1,3.28-1.6,10.52,10.52,0,0,1,3.27,0,16.31,16.31,0,0,1,4.29,1.31,12.45,12.45,0,0,1,3.66,2.47,8.82,8.82,0,0,1,2.06,3,15.55,15.55,0,0,1,.94,3.69,24.81,24.81,0,0,1,.17,2.5q0,1.41,0,2.79c0,.92-.07,1.81-.14,2.66s-.15,1.59-.24,2.19A3.3,3.3,0,0,1,133.2,111.34Z"/><path class="cls-3" d="M158.16,104.25q1.14-6.82,2.19-12.29a2.42,2.42,0,0,1,.94-1.76,2.52,2.52,0,0,1,1.92,0,17,17,0,0,1,2.09.77,14.47,14.47,0,0,1,2.3,1.48A3.38,3.38,0,0,1,169,94.31a5.36,5.36,0,0,1-.07,2.27q-.76,3.92-1.63,9.15c-.59,3.48-1.15,7.09-1.71,10.81s-1.11,7.41-1.64,11.07-1,7-1.43,9.91c-.14,1.63-1,2.19-2.72,1.67-.74-.21-1.47-.46-2.19-.74s-1.45-.58-2.2-.93a6.11,6.11,0,0,1-2.86-3.85c-.41-1.28-.84-2.76-1.28-4.42s-.88-3.46-1.29-5.36-.84-3.86-1.26-5.87-.81-4-1.18-6q-.57,3.6-1.15,7.29t-1.12,7.09c-.35,2.27-.67,4.4-1,6.41s-.55,3.79-.74,5.33a1.86,1.86,0,0,1-.59,1.38c-.3.19-.85.14-1.64-.16l-2.26-.8a6.3,6.3,0,0,1-2.13-1.32,3.36,3.36,0,0,1-1.29-1.63,6.08,6.08,0,0,1-.1-2.6c.09-1.11.25-2.64.49-4.59s.5-4.14.8-6.58.65-5,1-7.73.79-5.41,1.19-8.09.8-5.2,1.22-7.6.81-4.49,1.18-6.29a2.66,2.66,0,0,1,1.12-1.86,2.51,2.51,0,0,1,1.95,0c1,.34,1.94.71,2.89,1.09a23.32,23.32,0,0,1,3,1.48,4,4,0,0,1,1.78,1.63,9.29,9.29,0,0,1,.8,2.92c.14,1,.33,2.28.56,3.89s.5,3.35.8,5.26.62,3.89.94,6,.65,4.07,1,6Q157,111.09,158.16,104.25Z"/><path class="cls-3" d="M186.31,124.08a77.07,77.07,0,0,1,.66-10.2q.71-5.43,1.92-11t2.48-10.56c.23-.94.56-1.5,1-1.7a2.59,2.59,0,0,1,1.91.23,12.67,12.67,0,0,1,2.3,1.15,17.29,17.29,0,0,1,2.16,1.61,4.89,4.89,0,0,1,1.47,5.13q-.71,2.76-1.5,6.16t-1.5,6.9c-.47,2.33-.86,4.63-1.19,6.9s-.53,4.31-.62,6.13a18.75,18.75,0,0,0,.21,4.55q.34,1.83,1.32,2.22c.84.3,1.64-.19,2.41-1.45a23.8,23.8,0,0,0,2.16-5.23q1-3.33,1.91-7.73c.61-2.93,1.16-5.91,1.68-9s1-6,1.35-8.89.74-5.4,1-7.54c0-.94.33-1.52.87-1.73a2.89,2.89,0,0,1,2,.06,12,12,0,0,1,2.51,1.19c.88.53,1.7,1.06,2.44,1.57a3.7,3.7,0,0,1,1.4,1.61,4.93,4.93,0,0,1,0,2q-1,7.83-2,14.57t-2.4,12.09a56.39,56.39,0,0,1-3.07,9.15,15,15,0,0,1-3.93,5.58,10.24,10.24,0,0,1-3.25,1.51,11.14,11.14,0,0,1-3.72.22,12.88,12.88,0,0,1-6.84-2.44,13.55,13.55,0,0,1-2.09-2.12,11.43,11.43,0,0,1-1.67-3A21.64,21.64,0,0,1,186.31,124.08Z"/><path class="cls-3" d="M226.77,131.94c-.37,2.23-.7,4.43-1,6.61a2.61,2.61,0,0,1-.7,1.35c-.28.21-.82.21-1.6,0l-2.34-.87a6.9,6.9,0,0,1-2-1.09,4,4,0,0,1-1.22-1.7,5,5,0,0,1,0-2.7,28.69,28.69,0,0,0,.94-4.78q.45-3.3.87-7.44t.84-8.53q.42-4.4.83-8.12c.28-2.48.55-4.55.81-6.19s.52-2.56.8-2.73c1.58-1,3.37-2,5.36-3.08a29.75,29.75,0,0,1,6-2.34,15.92,15.92,0,0,1,5.68-.55,6.49,6.49,0,0,1,4.49,2.38,34.08,34.08,0,0,1,2.76,4.1,20.48,20.48,0,0,1,2,5.52,9.81,9.81,0,0,1-.24,5.87,21.73,21.73,0,0,1-2.68,4.91,24.88,24.88,0,0,1-3.45,3.79,39.82,39.82,0,0,1-4.5,3.49,47.49,47.49,0,0,1-10.52,5.3Q227.33,128.61,226.77,131.94ZM235.31,111a21,21,0,0,0,3.69-3.66,12,12,0,0,0,2-3.59,5,5,0,0,0,.21-2.89,1.4,1.4,0,0,0-.91-1,4.83,4.83,0,0,0-1.95-.29,11.1,11.1,0,0,0-2.68.45,14.83,14.83,0,0,0-3,1.25q-.7,2.9-1.33,6.07c-.42,2.11-.86,4.35-1.32,6.7A22.31,22.31,0,0,0,235.31,111Z"/><path class="cls-3" d="M122.72,181.26q1.14-6.84,2.19-12.29a2.46,2.46,0,0,1,.94-1.77,2.62,2.62,0,0,1,1.92,0,19.57,19.57,0,0,1,2.09.77,14.47,14.47,0,0,1,2.3,1.48,3.38,3.38,0,0,1,1.39,1.83,5.41,5.41,0,0,1-.07,2.28c-.51,2.61-1,5.65-1.63,9.14s-1.15,7.09-1.71,10.81S129,201,128.5,204.61s-1,7-1.43,9.92c-.14,1.62-1,2.18-2.72,1.67-.74-.22-1.47-.46-2.19-.74s-1.46-.59-2.2-.93a6.14,6.14,0,0,1-2.86-3.85c-.41-1.29-.84-2.76-1.28-4.43s-.88-3.45-1.29-5.36-.84-3.86-1.26-5.87-.81-4-1.18-6q-.57,3.58-1.15,7.28t-1.12,7.09q-.52,3.4-1,6.42c-.31,2-.55,3.78-.74,5.32a1.86,1.86,0,0,1-.59,1.38c-.3.2-.85.14-1.64-.16s-1.5-.52-2.26-.8a6.27,6.27,0,0,1-2.13-1.31,3.38,3.38,0,0,1-1.29-1.64,6.08,6.08,0,0,1-.1-2.6c.09-1.11.25-2.64.49-4.59s.5-4.14.8-6.57.65-5,1-7.74.79-5.41,1.19-8.08.8-5.21,1.22-7.61.81-4.49,1.18-6.29a2.1,2.1,0,0,1,3.07-1.86c1,.35,1.94.71,2.89,1.09a23.32,23.32,0,0,1,3,1.48,3.92,3.92,0,0,1,1.78,1.64,9.13,9.13,0,0,1,.8,2.92c.14,1,.33,2.27.56,3.88s.5,3.36.8,5.26.62,3.89.94,6,.65,4.07,1,6Q121.57,188.09,122.72,181.26Z"/><path class="cls-3" d="M161.54,173.78a18.41,18.41,0,0,1,1.22,4,52.74,52.74,0,0,1,.55,8.83,60,60,0,0,1-.94,9.75,55,55,0,0,1-2.54,9.43,28.45,28.45,0,0,1-4.25,7.8,9.13,9.13,0,0,1-3.87,2.66,10.23,10.23,0,0,1-4.71.29,26.51,26.51,0,0,1-3.59-.8,11.28,11.28,0,0,1-3.38-1.64,15,15,0,0,1-2.37-2.31,10.14,10.14,0,0,1-1.81-3.21,32,32,0,0,1-1.6-9.62,50.29,50.29,0,0,1,4.25-21.4,28.2,28.2,0,0,1,5.58-8.44,8.84,8.84,0,0,1,3.38-2,7.27,7.27,0,0,1,3.73-.35,20.59,20.59,0,0,1,4.42,1.37,12,12,0,0,1,3.52,2.28A10.77,10.77,0,0,1,161.54,173.78Zm-10.84,2.73a16.5,16.5,0,0,0-2.2,3.53,44.73,44.73,0,0,0-2.05,5c-.65,1.89-1.19,3.7-1.61,5.46a46,46,0,0,0-.94,5.71,42.4,42.4,0,0,0-.24,5.61,19.19,19.19,0,0,0,.56,4.46,3.15,3.15,0,0,0,1.53,2.31,1.74,1.74,0,0,0,2-.51,10.11,10.11,0,0,0,2.09-3,33.9,33.9,0,0,0,1.91-4.91,52.66,52.66,0,0,0,1.54-6.29,50.51,50.51,0,0,0,.83-5.78,56,56,0,0,0,.25-5.77,23.83,23.83,0,0,0-.46-4.62c-.27-1.29-.69-2-1.25-2.25S151.44,175.63,150.7,176.51Z"/><path class="cls-3" d="M178.61,191.75q1.42-4,2.79-7.74c.91-2.45,1.74-4.66,2.51-6.61s1.38-3.36,1.85-4.26a2.78,2.78,0,0,1,1.08-1.41,2.39,2.39,0,0,1,1.77,0,11.36,11.36,0,0,1,2,.7q.79.39,1.92.9a2.62,2.62,0,0,1,1.39,1.35,9,9,0,0,1,.21,2.31c0,.6,0,1.65-.11,3.14s-.15,3.25-.24,5.26-.19,4.19-.28,6.52-.18,4.63-.28,6.9q1.33-4.25,2.86-8.89c1-3.1,2-6.06,2.93-8.86s1.79-5.32,2.58-7.57,1.39-4,1.81-5.1.75-1.59,1.15-1.7a3.15,3.15,0,0,1,1.92.48,21.78,21.78,0,0,1,3.76,2.7,3.77,3.77,0,0,1,1,2.4,7,7,0,0,1-.34,2.6q-.91,2.44-2,5.71t-2.27,6.9q-1.18,3.63-2.4,7.48c-.81,2.56-1.59,5.08-2.33,7.54s-1.46,4.8-2.13,7-1.27,4.22-1.78,6a2.43,2.43,0,0,1-1.22,1.57,3.67,3.67,0,0,1-2.33,0,21.51,21.51,0,0,1-2.58-.83c-.61-.26-1.35-.54-2.23-.84a3.9,3.9,0,0,1-1.88-1.76,7,7,0,0,1-.7-2.47c-.09-.86-.2-1.92-.31-3.18s-.24-2.61-.35-4-.22-2.9-.32-4.4-.14-2.93-.14-4.3q-1,2.64-2.16,5.55l-2.16,5.68q-1,2.76-1.91,5.17c-.58,1.6-1.06,2.94-1.43,4-.37.9-.78,1.42-1.22,1.57a3.11,3.11,0,0,1-1.71,0,31.85,31.85,0,0,1-5.23-1.8,3,3,0,0,1-1.53-1.38,7.09,7.09,0,0,1-.49-2.66q-.13-2.56-.24-5.87t-.11-7c0-2.48,0-5,.07-7.6s.11-5.14.18-7.67.16-5,.28-7.31.24-4.49.38-6.42a3.16,3.16,0,0,1,.63-2c.32-.3.9-.34,1.74-.13s1.86.53,2.65.8a8.73,8.73,0,0,1,2.23,1.19,3.7,3.7,0,0,1,1.43,2.47,12.15,12.15,0,0,1,.1,3c-.05.89-.14,2.24-.28,4s-.29,3.83-.45,6.09-.31,4.66-.45,7.16-.26,4.91-.35,7.22Z"/><path class="cls-3" d="M211,209.1a5.56,5.56,0,0,1,1.28-1.95,4,4,0,0,1,2-1,4.51,4.51,0,0,1,2.61.32,4.75,4.75,0,0,1,2,1.32,6.12,6.12,0,0,1,1.57,3.88,6.64,6.64,0,0,1-.17,1.8,7.85,7.85,0,0,1-.53,1.38,7.11,7.11,0,0,1-1,1.5,5.34,5.34,0,0,1-1.43,1.19,3.73,3.73,0,0,1-1.88.48,4.52,4.52,0,0,1-3.66-1.63,6.54,6.54,0,0,1-1.36-4.78A7.33,7.33,0,0,1,211,209.1Zm17.07-40.49a4.26,4.26,0,0,1-.07,2.28c-.65,2.61-1.3,5.3-2,8.05s-1.29,5.52-1.92,8.28-1.22,5.47-1.77,8.12-1,5.16-1.47,7.51c-.14.85-.37,1.38-.69,1.57a2,2,0,0,1-1.54,0,13,13,0,0,1-4.32-1.93,3.28,3.28,0,0,1-1.36-1.6,5.38,5.38,0,0,1,0-2.57q.42-3.33,1.11-7.67c.47-2.88.95-5.81,1.47-8.79s1-5.87,1.6-8.69,1.07-5.31,1.53-7.45a2.84,2.84,0,0,1,.94-1.82,2.27,2.27,0,0,1,1.92.16,17,17,0,0,1,2.61,1.12,14.89,14.89,0,0,1,2.55,1.64A3.89,3.89,0,0,1,228.06,168.61Z"/></g></g></svg>