<svg xmlns="http://www.w3.org/2000/svg" viewBox="0 0 272.76 208.99"><defs><style>.cls-1{fill:#6bbec6;}.cls-2{fill:#7d9156;}.cls-3{fill:#9eb874;}.cls-4{fill:#c0d09c;}.cls-5{fill:#8ea563;}.cls-6{fill:#fab857;}.cls-7{fill:#55a9ad;}.cls-8{fill:#c67d26;}.cls-9{fill:#e59b39;}.cls-10{fill:#fff;}</style></defs><title>Asset 1</title><g id="Layer_2" data-name="Layer 2"><g id="Layer_1-2" data-name="Layer 1"><path id="_Path_" data-name="&lt;Path&gt;" class="cls-1" d="M211.29,9.87c-1.36-12.89-8.82-8.82-17-4.75-7.29,3.64-12.67-3.85-15.66-5a.44.44,0,0,0-.18-.11,1.24,1.24,0,0,0-.39,0,1.26,1.26,0,0,0-.39,0,.36.36,0,0,0-.17.11c-3,1.13-8.38,8.62-15.67,5-8.14-4.07-15.6-8.14-17,4.75s11.53,24.42,11.53,24.42l19.87,6.91c0,.79,0,1.22,0,1.22l1.74-.6,1.75.6s0-.43,0-1.22l19.88-6.91S212.64,22.76,211.29,9.87Z"/><g id="_Group_" data-name="&lt;Group&gt;"><polygon id="_Path_2" data-name="&lt;Path&gt;" class="cls-2" points="181.72 120.69 157.96 97.61 145.15 85.17 126.65 92.82 17.93 137.79 0 145.2 0 150.85 12.82 163.3 49.18 198.61 194.33 138.58 194.33 132.93 181.72 120.69"/><g id="_Group_2" data-name="&lt;Group&gt;"><path id="_Compound_Path_" data-name="&lt;Compound Path&gt;" class="cls-3" d="M49.18,193,36.56,180.71l.07,0c9.87-4.08,23.47-2,30.38,4.76l.1.1L49.18,193m8-27.74c-5,2.07-11.92,1-15.43-2.42s-2.29-7.85,2.72-9.92,11.92-1,15.43,2.41,2.29,7.86-2.72,9.93m92.85-38.4c-5,2.07-11.92,1-15.43-2.42s-2.29-7.85,2.72-9.92,11.92-1,15.44,2.41,2.29,7.86-2.73,9.93m-34.58,30.05c-14.45,6-34.38,2.85-44.5-7s-6.61-22.65,7.84-28.62,34.38-2.86,44.51,7,6.61,22.65-7.85,28.63m11.16-64.05-108.72,45c.11.09.21.19.31.29,6.91,6.71,4.52,15.46-5.35,19.54l-.07,0L0,145.2,49.18,193l145.15-60-18.5,7.65-.11-.1c-6.91-6.71-4.51-15.46,5.35-19.54l.65-.25L158,97.61l-.63.28c-9.87,4.08-23.47,1.94-30.38-4.77l-.3-.3"/><path id="_Compound_Path_2" data-name="&lt;Compound Path&gt;" class="cls-4" d="M98.62,139.76l5.08,4.94a4.24,4.24,0,0,0,1.65-1.33c.37-.71.07-1.54-.91-2.49a4.7,4.7,0,0,0-2.86-1.27,13.72,13.72,0,0,0-3,.15M88.3,132.24c-1.06.46-1.65,1-1.79,1.58a2,2,0,0,0,.8,1.85,4.49,4.49,0,0,0,2.9,1.2,11.88,11.88,0,0,0,2.66-.2l-4.57-4.43m13.64,13.24-5.56-5.4-1.81.32a17.63,17.63,0,0,1-7,.1,9.62,9.62,0,0,1-4.59-2.44,6.24,6.24,0,0,1-1.64-2.37,3.75,3.75,0,0,1-.11-2.31,4.6,4.6,0,0,1,1.66-2.45,14.24,14.24,0,0,1,2.55-1.51l-1.73-1.68,1.8-.75,1.76,1.71a15.61,15.61,0,0,1,5.78-.95,11.27,11.27,0,0,1,7.75,3.05l-4.89,2a8.81,8.81,0,0,0-2.24-1.42,5.12,5.12,0,0,0-3.55.07l5,4.81a42.38,42.38,0,0,1,7.8-.62,9.86,9.86,0,0,1,6.35,2.71q3.28,3.18,1.33,6a9.83,9.83,0,0,1-3.92,3.09l2.62,2.54-1.8.75-2.59-2.52a21.11,21.11,0,0,1-6.58,1.18A11.91,11.91,0,0,1,90,145.79l5-2.07A11.83,11.83,0,0,0,98,145.56a7,7,0,0,0,4-.08M78.83,121.27c-14.45,6-18,18.79-7.84,28.62s30.05,13,44.5,7,18-18.8,7.85-28.63-30-13-44.51-7"/><path id="_Path_3" data-name="&lt;Path&gt;" class="cls-2" d="M44.51,152.88c-5,2.07-6.23,6.51-2.72,9.92s10.42,4.49,15.43,2.42,6.23-6.52,2.72-9.93-10.42-4.49-15.43-2.41"/><path id="_Path_4" data-name="&lt;Path&gt;" class="cls-2" d="M137.36,114.48c-5,2.07-6.23,6.51-2.72,9.92s10.42,4.49,15.43,2.42,6.23-6.52,2.73-9.93-10.42-4.49-15.44-2.41"/><path id="_Path_5" data-name="&lt;Path&gt;" class="cls-5" d="M17.93,137.79,0,145.2l12.82,12.45.07,0c9.87-4.08,12.26-12.83,5.35-19.54-.1-.1-.2-.2-.31-.29"/><path id="_Path_6" data-name="&lt;Path&gt;" class="cls-5" d="M36.63,180.68l-.07,0L49.18,193l17.93-7.42-.1-.1c-6.91-6.71-20.51-8.84-30.38-4.76"/><path id="_Path_7" data-name="&lt;Path&gt;" class="cls-5" d="M145.15,85.17l-18.5,7.65.3.3c6.91,6.71,20.51,8.85,30.38,4.77l.63-.28L145.15,85.17"/><path id="_Path_8" data-name="&lt;Path&gt;" class="cls-5" d="M181.07,120.94c-9.86,4.08-12.26,12.83-5.35,19.54l.11.1,18.5-7.65-12.61-12.24-.65.25"/><path id="_Compound_Path_3" data-name="&lt;Compound Path&gt;" class="cls-2" d="M103.7,144.7l-5.08-4.94a13.72,13.72,0,0,1,3-.15,4.7,4.7,0,0,1,2.86,1.27c1,1,1.28,1.78.91,2.49a4.24,4.24,0,0,1-1.65,1.33m-10.83-8a11.88,11.88,0,0,1-2.66.2,4.49,4.49,0,0,1-2.9-1.2,2,2,0,0,1-.8-1.85c.14-.59.73-1.12,1.79-1.58l4.57,4.43M85.47,127l-1.8.75,1.73,1.68a14.24,14.24,0,0,0-2.55,1.51,4.6,4.6,0,0,0-1.66,2.45,3.75,3.75,0,0,0,.11,2.31,6.24,6.24,0,0,0,1.64,2.37,9.62,9.62,0,0,0,4.59,2.44,17.63,17.63,0,0,0,7-.1l1.81-.32,5.56,5.4a7,7,0,0,1-4,.08A11.83,11.83,0,0,1,95,143.72l-5,2.07a11.91,11.91,0,0,0,8.23,3.67,21.11,21.11,0,0,0,6.58-1.18l2.59,2.52,1.8-.75-2.62-2.54a9.83,9.83,0,0,0,3.92-3.09q2-2.86-1.33-6a9.86,9.86,0,0,0-6.35-2.71,42.38,42.38,0,0,0-7.8.62l-5-4.81a5.12,5.12,0,0,1,3.55-.07,8.81,8.81,0,0,1,2.24,1.42l4.89-2A11.27,11.27,0,0,0,93,127.75a15.61,15.61,0,0,0-5.78.95L85.47,127"/></g></g><g id="_Group_3" data-name="&lt;Group&gt;"><polygon id="_Path_9" data-name="&lt;Path&gt;" class="cls-2" points="181.72 112.7 157.96 89.62 145.15 77.19 126.65 84.83 17.93 129.8 0 137.21 0 142.86 12.82 155.31 49.18 190.62 194.33 130.59 194.33 124.94 181.72 112.7"/><g id="_Group_4" data-name="&lt;Group&gt;"><path id="_Compound_Path_4" data-name="&lt;Compound Path&gt;" class="cls-3" d="M49.18,185,36.56,172.72l.07,0c9.87-4.08,23.47-1.95,30.38,4.76l.1.1L49.18,185m8-27.74c-5,2.07-11.92,1-15.43-2.42s-2.29-7.85,2.72-9.92,11.92-1,15.43,2.42,2.29,7.85-2.72,9.92m92.85-38.4c-5,2.07-11.92,1-15.43-2.42s-2.29-7.85,2.72-9.92,11.92-1,15.44,2.42,2.29,7.85-2.73,9.92m-34.58,30.05c-14.45,6-34.38,2.85-44.5-7s-6.61-22.64,7.84-28.62,34.38-2.86,44.51,7,6.61,22.65-7.85,28.63m11.16-64-108.72,45,.31.29c6.91,6.71,4.52,15.46-5.35,19.54l-.07,0L0,137.21,49.18,185l145.15-60-18.5,7.65-.11-.1c-6.91-6.71-4.51-15.46,5.35-19.54l.65-.25L158,89.62l-.63.28C147.46,94,133.86,91.84,127,85.14l-.3-.31"/><path id="_Compound_Path_5" data-name="&lt;Compound Path&gt;" class="cls-4" d="M98.62,131.77l5.08,4.94a4.24,4.24,0,0,0,1.65-1.33c.37-.71.07-1.54-.91-2.49a4.7,4.7,0,0,0-2.86-1.27,13.72,13.72,0,0,0-3,.15M88.3,124.25c-1.06.46-1.65,1-1.79,1.58a2,2,0,0,0,.8,1.86,4.54,4.54,0,0,0,2.9,1.19,11.88,11.88,0,0,0,2.66-.2l-4.57-4.43m13.64,13.24-5.56-5.4-1.81.32a17.63,17.63,0,0,1-7,.1,9.62,9.62,0,0,1-4.59-2.44,6.24,6.24,0,0,1-1.64-2.37,3.75,3.75,0,0,1-.11-2.31,4.6,4.6,0,0,1,1.66-2.45,14.24,14.24,0,0,1,2.55-1.51l-1.73-1.68,1.8-.75,1.76,1.71a15.61,15.61,0,0,1,5.78-.95,11.27,11.27,0,0,1,7.75,3l-4.89,2a8.46,8.46,0,0,0-2.24-1.41,5.06,5.06,0,0,0-3.55.06l5,4.81a41.25,41.25,0,0,1,7.8-.61,9.8,9.8,0,0,1,6.35,2.7c2.19,2.13,2.63,4.14,1.33,6.05a9.83,9.83,0,0,1-3.92,3.09l2.62,2.54-1.8.75-2.59-2.51a21.35,21.35,0,0,1-6.58,1.17A11.94,11.94,0,0,1,90,137.81l5-2.08A11.83,11.83,0,0,0,98,137.57a6.91,6.91,0,0,0,4-.08M78.83,113.28c-14.45,6-18,18.79-7.84,28.62s30.05,13,44.5,7,18-18.8,7.85-28.63-30-13-44.51-7"/><path id="_Path_10" data-name="&lt;Path&gt;" class="cls-2" d="M44.51,144.89c-5,2.07-6.23,6.51-2.72,9.92s10.42,4.49,15.43,2.42,6.23-6.52,2.72-9.92-10.42-4.5-15.43-2.42"/><path id="_Path_11" data-name="&lt;Path&gt;" class="cls-2" d="M137.36,106.49c-5,2.07-6.23,6.51-2.72,9.92s10.42,4.49,15.43,2.42,6.23-6.52,2.73-9.92-10.42-4.5-15.44-2.42"/><path id="_Path_12" data-name="&lt;Path&gt;" class="cls-5" d="M17.93,129.8,0,137.21l12.82,12.45.07,0c9.87-4.08,12.26-12.83,5.35-19.54l-.31-.29"/><path id="_Path_13" data-name="&lt;Path&gt;" class="cls-5" d="M36.63,172.69l-.07,0L49.18,185l17.93-7.42-.1-.1c-6.91-6.71-20.51-8.84-30.38-4.76"/><path id="_Path_14" data-name="&lt;Path&gt;" class="cls-5" d="M145.15,77.19l-18.5,7.64.3.31c6.91,6.7,20.51,8.84,30.38,4.76l.63-.28L145.15,77.19"/><path id="_Path_15" data-name="&lt;Path&gt;" class="cls-5" d="M181.07,113c-9.86,4.08-12.26,12.83-5.35,19.54l.11.1,18.5-7.65L181.72,112.7l-.65.25"/><path id="_Compound_Path_6" data-name="&lt;Compound Path&gt;" class="cls-2" d="M103.7,136.71l-5.08-4.94a13.72,13.72,0,0,1,3-.15,4.7,4.7,0,0,1,2.86,1.27c1,1,1.28,1.78.91,2.49a4.24,4.24,0,0,1-1.65,1.33m-10.83-8a11.88,11.88,0,0,1-2.66.2,4.54,4.54,0,0,1-2.9-1.19,2,2,0,0,1-.8-1.86c.14-.59.73-1.12,1.79-1.58l4.57,4.43M85.47,119l-1.8.75,1.73,1.68a14.24,14.24,0,0,0-2.55,1.51,4.6,4.6,0,0,0-1.66,2.45,3.75,3.75,0,0,0,.11,2.31,6.24,6.24,0,0,0,1.64,2.37,9.62,9.62,0,0,0,4.59,2.44,17.63,17.63,0,0,0,7-.1l1.81-.32,5.56,5.4a6.91,6.91,0,0,1-4,.08A11.83,11.83,0,0,1,95,135.73l-5,2.08a11.94,11.94,0,0,0,8.23,3.66,21.35,21.35,0,0,0,6.58-1.17l2.59,2.51,1.8-.75-2.62-2.54a9.83,9.83,0,0,0,3.92-3.09c1.3-1.91.86-3.92-1.33-6.05a9.8,9.8,0,0,0-6.35-2.7,41.25,41.25,0,0,0-7.8.61l-5-4.81a5.06,5.06,0,0,1,3.55-.06,8.46,8.46,0,0,1,2.24,1.41l4.89-2a11.27,11.27,0,0,0-7.75-3,15.61,15.61,0,0,0-5.78.95L85.47,119"/></g></g><g id="_Group_5" data-name="&lt;Group&gt;"><polygon id="_Path_16" data-name="&lt;Path&gt;" class="cls-2" points="181.72 103.54 157.96 80.47 145.15 68.03 126.65 75.68 17.93 120.64 0 128.06 0 133.71 12.82 146.15 49.18 181.46 194.33 121.44 194.33 115.78 181.72 103.54"/><g id="_Group_6" data-name="&lt;Group&gt;"><path id="_Compound_Path_7" data-name="&lt;Compound Path&gt;" class="cls-3" d="M49.18,175.81,36.56,163.56l.07,0c9.87-4.08,23.47-1.95,30.38,4.76l.1.11-17.93,7.41m8-27.74c-5,2.08-11.92,1-15.43-2.41s-2.29-7.86,2.72-9.93,11.92-1,15.43,2.42,2.29,7.85-2.72,9.92m92.85-38.4c-5,2.08-11.92,1-15.43-2.41s-2.29-7.86,2.72-9.93,11.92-1,15.44,2.42,2.29,7.85-2.73,9.92m-34.58,30.05c-14.45,6-34.38,2.86-44.5-7s-6.61-22.64,7.84-28.62,34.38-2.85,44.51,7,6.61,22.64-7.85,28.62m11.16-64-108.72,45,.31.3c6.91,6.71,4.52,15.45-5.35,19.53l-.07,0L0,128.06l49.18,47.75,145.15-60-18.5,7.66a1.14,1.14,0,0,1-.11-.11c-6.91-6.71-4.51-15.45,5.35-19.53l.65-.26L158,80.47l-.63.27c-9.87,4.08-23.47,2-30.38-4.76l-.3-.3"/><path id="_Compound_Path_8" data-name="&lt;Compound Path&gt;" class="cls-4" d="M98.62,122.61l5.08,4.94a4.16,4.16,0,0,0,1.65-1.33c.37-.7.07-1.53-.91-2.49a4.75,4.75,0,0,0-2.86-1.27,15.16,15.16,0,0,0-3,.15M88.3,115.09c-1.06.46-1.65,1-1.79,1.58a2,2,0,0,0,.8,1.86,4.49,4.49,0,0,0,2.9,1.19,11.78,11.78,0,0,0,2.66-.19l-4.57-4.44m13.64,13.24-5.56-5.39-1.81.32a17.82,17.82,0,0,1-7,.1,9.71,9.71,0,0,1-4.59-2.44,6.35,6.35,0,0,1-1.64-2.38,3.75,3.75,0,0,1-.11-2.31,4.6,4.6,0,0,1,1.66-2.45,14.87,14.87,0,0,1,2.55-1.51l-1.73-1.68,1.8-.74,1.76,1.7a15.58,15.58,0,0,1,5.78-.94,11.27,11.27,0,0,1,7.75,3l-4.89,2a8.46,8.46,0,0,0-2.24-1.41,5.06,5.06,0,0,0-3.55.06l5,4.82a41.49,41.49,0,0,1,7.8-.62,9.81,9.81,0,0,1,6.35,2.71q3.28,3.18,1.33,6a9.93,9.93,0,0,1-3.92,3.1l2.62,2.54-1.8.74-2.59-2.51a21.35,21.35,0,0,1-6.58,1.17A11.85,11.85,0,0,1,90,128.65l5-2.08A11.52,11.52,0,0,0,98,128.41a6.91,6.91,0,0,0,4-.08M78.83,104.12c-14.45,6-18,18.79-7.84,28.62s30.05,13,44.5,7,18-18.79,7.85-28.62-30-13-44.51-7"/><path id="_Path_17" data-name="&lt;Path&gt;" class="cls-2" d="M44.51,135.73c-5,2.07-6.23,6.52-2.72,9.93s10.42,4.49,15.43,2.41,6.23-6.51,2.72-9.92-10.42-4.49-15.43-2.42"/><path id="_Path_18" data-name="&lt;Path&gt;" class="cls-2" d="M137.36,97.33c-5,2.07-6.23,6.52-2.72,9.93s10.42,4.49,15.43,2.41,6.23-6.51,2.73-9.92-10.42-4.49-15.44-2.42"/><path id="_Path_19" data-name="&lt;Path&gt;" class="cls-5" d="M17.93,120.64,0,128.06,12.82,140.5l.07,0c9.87-4.08,12.26-12.82,5.35-19.53l-.31-.3"/><path id="_Path_20" data-name="&lt;Path&gt;" class="cls-5" d="M36.63,163.53l-.07,0,12.62,12.25,17.93-7.41-.1-.11c-6.91-6.71-20.51-8.84-30.38-4.76"/><path id="_Path_21" data-name="&lt;Path&gt;" class="cls-5" d="M145.15,68l-18.5,7.65.3.3c6.91,6.71,20.51,8.84,30.38,4.76l.63-.27L145.15,68"/><path id="_Path_22" data-name="&lt;Path&gt;" class="cls-5" d="M181.07,103.8c-9.86,4.08-12.26,12.82-5.35,19.53a1.14,1.14,0,0,0,.11.11l18.5-7.66-12.61-12.24-.65.26"/><path id="_Compound_Path_9" data-name="&lt;Compound Path&gt;" class="cls-2" d="M103.7,127.55l-5.08-4.94a15.16,15.16,0,0,1,3-.15,4.75,4.75,0,0,1,2.86,1.27c1,1,1.28,1.79.91,2.49a4.16,4.16,0,0,1-1.65,1.33m-10.83-8a11.78,11.78,0,0,1-2.66.19,4.49,4.49,0,0,1-2.9-1.19,2,2,0,0,1-.8-1.86c.14-.59.73-1.12,1.79-1.58l4.57,4.44m-7.4-9.68-1.8.74,1.73,1.68a14.87,14.87,0,0,0-2.55,1.51,4.6,4.6,0,0,0-1.66,2.45,3.75,3.75,0,0,0,.11,2.31,6.35,6.35,0,0,0,1.64,2.38,9.71,9.71,0,0,0,4.59,2.44,17.82,17.82,0,0,0,7-.1l1.81-.32,5.56,5.39a6.91,6.91,0,0,1-4,.08A11.52,11.52,0,0,1,95,126.57l-5,2.08a11.85,11.85,0,0,0,8.23,3.66,21.35,21.35,0,0,0,6.58-1.17l2.59,2.51,1.8-.74-2.62-2.54a9.93,9.93,0,0,0,3.92-3.1q2-2.86-1.33-6a9.81,9.81,0,0,0-6.35-2.71,41.49,41.49,0,0,0-7.8.62l-5-4.82a5.06,5.06,0,0,1,3.55-.06,8.46,8.46,0,0,1,2.24,1.41l4.89-2a11.27,11.27,0,0,0-7.75-3,15.58,15.58,0,0,0-5.78.94l-1.76-1.7"/></g></g><g id="_Group_7" data-name="&lt;Group&gt;"><polygon id="_Path_23" data-name="&lt;Path&gt;" class="cls-2" points="181.72 95.55 157.96 72.48 145.15 60.04 126.65 67.69 17.93 112.65 0 120.07 0 125.72 12.82 138.16 49.18 173.47 194.33 113.45 194.33 107.8 181.72 95.55"/><g id="_Group_8" data-name="&lt;Group&gt;"><path id="_Compound_Path_10" data-name="&lt;Compound Path&gt;" class="cls-3" d="M49.18,167.82,36.56,155.57l.07,0c9.87-4.08,23.47-1.95,30.38,4.76l.1.11-17.93,7.41m8-27.74c-5,2.08-11.92,1-15.43-2.41s-2.29-7.86,2.72-9.93,11.92-1,15.43,2.42,2.29,7.85-2.72,9.92m92.85-38.4c-5,2.08-11.92,1-15.43-2.41s-2.29-7.86,2.72-9.93,11.92-1,15.44,2.42,2.29,7.85-2.73,9.92m-34.58,30c-14.45,6-34.38,2.86-44.5-7s-6.61-22.65,7.84-28.63,34.38-2.85,44.51,7,6.61,22.64-7.85,28.62m11.16-64-108.72,45,.31.3c6.91,6.71,4.52,15.45-5.35,19.53l-.07,0L0,120.07l49.18,47.75,145.15-60-18.5,7.65-.11-.11c-6.91-6.71-4.51-15.45,5.35-19.53l.65-.26L158,72.48l-.63.27c-9.87,4.08-23.47,2-30.38-4.76l-.3-.3"/><path id="_Compound_Path_11" data-name="&lt;Compound Path&gt;" class="cls-4" d="M98.62,114.62l5.08,4.94a4.16,4.16,0,0,0,1.65-1.33c.37-.7.07-1.53-.91-2.48a4.71,4.71,0,0,0-2.86-1.28,15.16,15.16,0,0,0-3,.15M88.3,107.1c-1.06.47-1.65,1-1.79,1.58a2,2,0,0,0,.8,1.86,4.49,4.49,0,0,0,2.9,1.2,12.51,12.51,0,0,0,2.66-.2L88.3,107.1m13.64,13.24L96.38,115l-1.81.32a17.82,17.82,0,0,1-7,.1,9.71,9.71,0,0,1-4.59-2.44,6.4,6.4,0,0,1-1.64-2.37,3.78,3.78,0,0,1-.11-2.32,4.6,4.6,0,0,1,1.66-2.45,14.87,14.87,0,0,1,2.55-1.51l-1.73-1.68,1.8-.74,1.76,1.7a15.58,15.58,0,0,1,5.78-.94,11.27,11.27,0,0,1,7.75,3l-4.89,2a8.73,8.73,0,0,0-2.24-1.41,5.06,5.06,0,0,0-3.55.06l5,4.82a41.49,41.49,0,0,1,7.8-.62,9.86,9.86,0,0,1,6.35,2.71c2.19,2.12,2.63,4.14,1.33,6a9.93,9.93,0,0,1-3.92,3.1l2.62,2.54-1.8.74-2.59-2.51a21.35,21.35,0,0,1-6.58,1.17A11.85,11.85,0,0,1,90,120.66l5-2.08A11.24,11.24,0,0,0,98,120.42a6.82,6.82,0,0,0,4-.08M78.83,96.13c-14.45,6-18,18.8-7.84,28.63s30.05,13,44.5,7,18-18.79,7.85-28.62-30-13-44.51-7"/><path id="_Path_24" data-name="&lt;Path&gt;" class="cls-2" d="M44.51,127.74c-5,2.07-6.23,6.52-2.72,9.93s10.42,4.49,15.43,2.41,6.23-6.51,2.72-9.92-10.42-4.49-15.43-2.42"/><path id="_Path_25" data-name="&lt;Path&gt;" class="cls-2" d="M137.36,89.34c-5,2.07-6.23,6.52-2.72,9.93s10.42,4.49,15.43,2.41,6.23-6.51,2.73-9.92-10.42-4.49-15.44-2.42"/><path id="_Path_26" data-name="&lt;Path&gt;" class="cls-5" d="M17.93,112.65,0,120.07l12.82,12.44.07,0c9.87-4.08,12.26-12.82,5.35-19.53l-.31-.3"/><path id="_Path_27" data-name="&lt;Path&gt;" class="cls-5" d="M36.63,155.54l-.07,0,12.62,12.25,17.93-7.41-.1-.11c-6.91-6.71-20.51-8.84-30.38-4.76"/><path id="_Path_28" data-name="&lt;Path&gt;" class="cls-5" d="M145.15,60l-18.5,7.65.3.3c6.91,6.71,20.51,8.84,30.38,4.76l.63-.27L145.15,60"/><path id="_Path_29" data-name="&lt;Path&gt;" class="cls-5" d="M181.07,95.81c-9.86,4.08-12.26,12.82-5.35,19.53l.11.11,18.5-7.65L181.72,95.55l-.65.26"/><path id="_Compound_Path_12" data-name="&lt;Compound Path&gt;" class="cls-2" d="M103.7,119.56l-5.08-4.94a15.16,15.16,0,0,1,3-.15,4.71,4.71,0,0,1,2.86,1.28c1,1,1.28,1.78.91,2.48a4.16,4.16,0,0,1-1.65,1.33m-10.83-8a12.51,12.51,0,0,1-2.66.2,4.49,4.49,0,0,1-2.9-1.2,2,2,0,0,1-.8-1.86c.14-.59.73-1.11,1.79-1.58l4.57,4.44m-7.4-9.68-1.8.74,1.73,1.68a14.87,14.87,0,0,0-2.55,1.51,4.6,4.6,0,0,0-1.66,2.45,3.78,3.78,0,0,0,.11,2.32,6.4,6.4,0,0,0,1.64,2.37,9.71,9.71,0,0,0,4.59,2.44,17.82,17.82,0,0,0,7-.1l1.81-.32,5.56,5.39a6.82,6.82,0,0,1-4,.08A11.24,11.24,0,0,1,95,118.58l-5,2.08a11.85,11.85,0,0,0,8.23,3.66,21.35,21.35,0,0,0,6.58-1.17l2.59,2.51,1.8-.74-2.62-2.54a9.93,9.93,0,0,0,3.92-3.1c1.3-1.9.86-3.92-1.33-6a9.86,9.86,0,0,0-6.35-2.71,41.49,41.49,0,0,0-7.8.62l-5-4.82a5.06,5.06,0,0,1,3.55-.06,8.73,8.73,0,0,1,2.24,1.41l4.89-2a11.27,11.27,0,0,0-7.75-3,15.58,15.58,0,0,0-5.78.94l-1.76-1.7"/></g></g><g id="_Group_9" data-name="&lt;Group&gt;"><polygon id="_Path_30" data-name="&lt;Path&gt;" class="cls-2" points="181.72 86.28 157.96 63.21 145.15 50.77 126.65 58.42 17.93 103.38 0 110.8 0 116.45 12.82 128.89 49.18 164.2 194.33 104.18 194.33 98.53 181.72 86.28"/><g id="_Group_10" data-name="&lt;Group&gt;"><path id="_Compound_Path_13" data-name="&lt;Compound Path&gt;" class="cls-3" d="M49.18,158.55,36.56,146.3l.07,0c9.87-4.08,23.47-2,30.38,4.76l.1.11-17.93,7.41m8-27.74c-5,2.08-11.92,1-15.43-2.41s-2.29-7.86,2.72-9.93,11.92-1,15.43,2.42,2.29,7.85-2.72,9.92m92.85-38.4c-5,2.08-11.92,1-15.43-2.41s-2.29-7.86,2.72-9.93,11.92-1,15.44,2.42,2.29,7.85-2.73,9.92m-34.58,30.05c-14.45,6-34.38,2.86-44.5-7s-6.61-22.65,7.84-28.63,34.38-2.85,44.51,7,6.61,22.64-7.85,28.62m11.16-64-108.72,45,.31.3c6.91,6.71,4.52,15.45-5.35,19.53l-.07,0L0,110.8l49.18,47.75,145.15-60-18.5,7.65a1.14,1.14,0,0,1-.11-.11c-6.91-6.7-4.51-15.45,5.35-19.53l.65-.26L158,63.21l-.63.27c-9.87,4.08-23.47,2-30.38-4.76l-.3-.3"/><path id="_Compound_Path_14" data-name="&lt;Compound Path&gt;" class="cls-4" d="M98.62,105.35l5.08,4.94a4.16,4.16,0,0,0,1.65-1.33c.37-.7.07-1.53-.91-2.48a4.71,4.71,0,0,0-2.86-1.28,15.16,15.16,0,0,0-3,.15M88.3,97.83c-1.06.47-1.65,1-1.79,1.58a2,2,0,0,0,.8,1.86,4.49,4.49,0,0,0,2.9,1.2,12.51,12.51,0,0,0,2.66-.2L88.3,97.83m13.64,13.24-5.56-5.39-1.81.32a17.82,17.82,0,0,1-7,.1,9.71,9.71,0,0,1-4.59-2.44,6.4,6.4,0,0,1-1.64-2.37A3.78,3.78,0,0,1,81.19,99a4.64,4.64,0,0,1,1.66-2.45A14.87,14.87,0,0,1,85.4,95l-1.73-1.68,1.8-.74,1.76,1.7A15.58,15.58,0,0,1,93,93.35a11.27,11.27,0,0,1,7.75,3l-4.89,2A8.73,8.73,0,0,0,93.63,97a5.11,5.11,0,0,0-3.55.06l5,4.82a41.49,41.49,0,0,1,7.8-.62,9.86,9.86,0,0,1,6.35,2.71c2.19,2.12,2.63,4.14,1.33,6a9.93,9.93,0,0,1-3.92,3.1l2.62,2.54-1.8.74-2.59-2.51a21.35,21.35,0,0,1-6.58,1.17A11.85,11.85,0,0,1,90,111.39l5-2.08A11.24,11.24,0,0,0,98,111.15a6.82,6.82,0,0,0,4-.08M78.83,86.86c-14.45,6-18,18.8-7.84,28.63s30.05,13,44.5,7,18-18.79,7.85-28.62-30-13-44.51-7"/><path id="_Path_31" data-name="&lt;Path&gt;" class="cls-2" d="M44.51,118.47c-5,2.07-6.23,6.52-2.72,9.93s10.42,4.49,15.43,2.41,6.23-6.51,2.72-9.92-10.42-4.49-15.43-2.42"/><path id="_Path_32" data-name="&lt;Path&gt;" class="cls-2" d="M137.36,80.07c-5,2.07-6.23,6.52-2.72,9.93s10.42,4.49,15.43,2.41,6.23-6.51,2.73-9.92S142.38,78,137.36,80.07"/><path id="_Path_33" data-name="&lt;Path&gt;" class="cls-5" d="M17.93,103.38,0,110.8l12.82,12.44.07,0c9.87-4.08,12.26-12.82,5.35-19.53l-.31-.3"/><path id="_Path_34" data-name="&lt;Path&gt;" class="cls-5" d="M36.63,146.27l-.07,0,12.62,12.25,17.93-7.41L67,151c-6.91-6.71-20.51-8.84-30.38-4.76"/><path id="_Path_35" data-name="&lt;Path&gt;" class="cls-5" d="M145.15,50.77l-18.5,7.65.3.3c6.91,6.71,20.51,8.84,30.38,4.76l.63-.27L145.15,50.77"/><path id="_Path_36" data-name="&lt;Path&gt;" class="cls-5" d="M181.07,86.54c-9.86,4.08-12.26,12.83-5.35,19.53a1.14,1.14,0,0,0,.11.11l18.5-7.65L181.72,86.28l-.65.26"/><path id="_Compound_Path_15" data-name="&lt;Compound Path&gt;" class="cls-2" d="M103.7,110.29l-5.08-4.94a15.16,15.16,0,0,1,3-.15,4.71,4.71,0,0,1,2.86,1.28c1,1,1.28,1.78.91,2.48a4.16,4.16,0,0,1-1.65,1.33m-10.83-8a12.51,12.51,0,0,1-2.66.2,4.49,4.49,0,0,1-2.9-1.2,2,2,0,0,1-.8-1.86c.14-.59.73-1.11,1.79-1.58l4.57,4.44m-7.4-9.68-1.8.74L85.4,95a14.87,14.87,0,0,0-2.55,1.51A4.64,4.64,0,0,0,81.19,99a3.78,3.78,0,0,0,.11,2.32,6.4,6.4,0,0,0,1.64,2.37,9.71,9.71,0,0,0,4.59,2.44,17.82,17.82,0,0,0,7-.1l1.81-.32,5.56,5.39a6.82,6.82,0,0,1-4,.08A11.24,11.24,0,0,1,95,109.31l-5,2.08a11.85,11.85,0,0,0,8.23,3.66,21.35,21.35,0,0,0,6.58-1.17l2.59,2.51,1.8-.74-2.62-2.54a9.93,9.93,0,0,0,3.92-3.1c1.3-1.9.86-3.92-1.33-6a9.86,9.86,0,0,0-6.35-2.71,41.49,41.49,0,0,0-7.8.62l-5-4.82A5.11,5.11,0,0,1,93.63,97a8.73,8.73,0,0,1,2.24,1.41l4.89-2a11.27,11.27,0,0,0-7.75-3,15.58,15.58,0,0,0-5.78.94l-1.76-1.7"/></g></g><g id="_Group_11" data-name="&lt;Group&gt;"><polygon id="_Path_37" data-name="&lt;Path&gt;" class="cls-2" points="181.72 78.29 157.96 55.22 145.15 42.78 126.65 50.43 17.93 95.39 0 102.81 0 108.46 12.82 120.9 49.18 156.21 194.33 96.19 194.33 90.54 181.72 78.29"/><g id="_Group_12" data-name="&lt;Group&gt;"><path id="_Compound_Path_16" data-name="&lt;Compound Path&gt;" class="cls-3" d="M49.18,150.56,36.56,138.31l.07,0C46.5,134.2,60.1,136.33,67,143l.1.11-17.93,7.41m8-27.73c-5,2.07-11.92,1-15.43-2.42s-2.29-7.85,2.72-9.93,11.92-1,15.43,2.42,2.29,7.85-2.72,9.93m92.85-38.4c-5,2.07-11.92,1-15.43-2.42s-2.29-7.85,2.72-9.93,11.92-1,15.44,2.42,2.29,7.85-2.73,9.93m-34.58,30c-14.45,6-34.38,2.86-44.5-7s-6.61-22.65,7.84-28.63,34.38-2.85,44.51,7,6.61,22.64-7.85,28.62m11.16-64-108.72,45,.31.3c6.91,6.71,4.52,15.45-5.35,19.53l-.07,0L0,102.81l49.18,47.75,145.15-60-18.5,7.65-.11-.1c-6.91-6.71-4.51-15.46,5.35-19.54l.65-.26L158,55.22l-.63.27c-9.87,4.08-23.47,1.95-30.38-4.76l-.3-.3"/><path id="_Compound_Path_17" data-name="&lt;Compound Path&gt;" class="cls-4" d="M98.62,97.36l5.08,4.94a4.07,4.07,0,0,0,1.65-1.33c.37-.7.07-1.53-.91-2.48a4.64,4.64,0,0,0-2.86-1.27,14.25,14.25,0,0,0-3,.14M88.3,89.84c-1.06.47-1.65,1-1.79,1.58a2,2,0,0,0,.8,1.86,4.49,4.49,0,0,0,2.9,1.2,12.51,12.51,0,0,0,2.66-.2L88.3,89.84m13.64,13.25-5.56-5.4L94.57,98a17.63,17.63,0,0,1-7,.1,9.62,9.62,0,0,1-4.59-2.44A6.4,6.4,0,0,1,81.3,93.3,3.78,3.78,0,0,1,81.19,91a4.64,4.64,0,0,1,1.66-2.45A15,15,0,0,1,85.4,87l-1.73-1.68,1.8-.75,1.76,1.71a15.41,15.41,0,0,1,5.78-1,11.27,11.27,0,0,1,7.75,3l-4.89,2A8.73,8.73,0,0,0,93.63,89a5.17,5.17,0,0,0-3.55.06l5,4.82a41.49,41.49,0,0,1,7.8-.62A9.86,9.86,0,0,1,109.19,96c2.19,2.12,2.63,4.14,1.33,6a9.84,9.84,0,0,1-3.92,3.1l2.62,2.54-1.8.74-2.59-2.51a21.05,21.05,0,0,1-6.58,1.17A11.85,11.85,0,0,1,90,103.4l5-2.07A11.42,11.42,0,0,0,98,103.16a6.9,6.9,0,0,0,4-.07M78.83,78.87c-14.45,6-18,18.8-7.84,28.63s30.05,13,44.5,7,18-18.79,7.85-28.62-30-13-44.51-7"/><path id="_Path_38" data-name="&lt;Path&gt;" class="cls-2" d="M44.51,110.48c-5,2.08-6.23,6.52-2.72,9.93s10.42,4.49,15.43,2.42,6.23-6.52,2.72-9.93-10.42-4.49-15.43-2.42"/><path id="_Path_39" data-name="&lt;Path&gt;" class="cls-2" d="M137.36,72.08c-5,2.08-6.23,6.52-2.72,9.93s10.42,4.49,15.43,2.42,6.23-6.52,2.73-9.93S142.38,70,137.36,72.08"/><path id="_Path_40" data-name="&lt;Path&gt;" class="cls-5" d="M17.93,95.39,0,102.81l12.82,12.44.07,0c9.87-4.08,12.26-12.82,5.35-19.53l-.31-.3"/><path id="_Path_41" data-name="&lt;Path&gt;" class="cls-5" d="M36.63,138.28l-.07,0,12.62,12.25,17.93-7.41L67,143c-6.91-6.71-20.51-8.84-30.38-4.76"/><path id="_Path_42" data-name="&lt;Path&gt;" class="cls-5" d="M145.15,42.78l-18.5,7.65.3.3c6.91,6.71,20.51,8.84,30.38,4.76l.63-.27L145.15,42.78"/><path id="_Path_43" data-name="&lt;Path&gt;" class="cls-5" d="M181.07,78.55c-9.86,4.08-12.26,12.83-5.35,19.54l.11.1,18.5-7.65L181.72,78.29l-.65.26"/><path id="_Compound_Path_18" data-name="&lt;Compound Path&gt;" class="cls-2" d="M103.7,102.3l-5.08-4.94a14.25,14.25,0,0,1,3-.14,4.64,4.64,0,0,1,2.86,1.27c1,1,1.28,1.78.91,2.48a4.07,4.07,0,0,1-1.65,1.33m-10.83-8a12.51,12.51,0,0,1-2.66.2,4.49,4.49,0,0,1-2.9-1.2,2,2,0,0,1-.8-1.86c.14-.59.73-1.11,1.79-1.58l4.57,4.44m-7.4-9.68-1.8.75L85.4,87a15,15,0,0,0-2.55,1.5A4.64,4.64,0,0,0,81.19,91a3.78,3.78,0,0,0,.11,2.32,6.4,6.4,0,0,0,1.64,2.37,9.62,9.62,0,0,0,4.59,2.44,17.63,17.63,0,0,0,7-.1l1.81-.32,5.56,5.4a6.9,6.9,0,0,1-4,.07A11.42,11.42,0,0,1,95,101.33l-5,2.07a11.85,11.85,0,0,0,8.23,3.66,21.05,21.05,0,0,0,6.58-1.17l2.59,2.51,1.8-.74-2.62-2.54a9.84,9.84,0,0,0,3.92-3.1c1.3-1.9.86-3.92-1.33-6a9.86,9.86,0,0,0-6.35-2.71,41.49,41.49,0,0,0-7.8.62l-5-4.82A5.17,5.17,0,0,1,93.63,89a8.73,8.73,0,0,1,2.24,1.41l4.89-2a11.27,11.27,0,0,0-7.75-3,15.41,15.41,0,0,0-5.78,1L85.47,84.6"/></g></g><g id="_Group_13" data-name="&lt;Group&gt;"><polygon id="_Path_44" data-name="&lt;Path&gt;" class="cls-2" points="181.72 69.14 157.96 46.06 145.15 33.62 126.65 41.27 17.93 86.24 0 93.65 0 99.3 12.82 111.75 49.18 147.06 194.33 87.03 194.33 81.38 181.72 69.14"/><g id="_Group_14" data-name="&lt;Group&gt;"><path id="_Compound_Path_19" data-name="&lt;Compound Path&gt;" class="cls-3" d="M49.18,141.41,36.56,129.16l.07,0c9.87-4.08,23.47-1.95,30.38,4.76l.1.1-17.93,7.42m8-27.74c-5,2.07-11.92,1-15.43-2.42s-2.29-7.85,2.72-9.92,11.92-1,15.43,2.41,2.29,7.86-2.72,9.93m92.85-38.4c-5,2.07-11.92,1-15.43-2.42s-2.29-7.85,2.72-9.92,11.92-1,15.44,2.41,2.29,7.86-2.73,9.93m-34.58,30.05c-14.45,6-34.38,2.85-44.5-7s-6.61-22.65,7.84-28.62,34.38-2.86,44.51,7,6.61,22.65-7.85,28.63m11.16-64-108.72,45c.11.09.21.19.31.29,6.91,6.71,4.52,15.46-5.35,19.54l-.07,0L0,93.65l49.18,47.76,145.15-60L175.83,89l-.11-.1c-6.91-6.71-4.51-15.46,5.35-19.54l.65-.25L158,46.06l-.63.27c-9.87,4.08-23.47,2-30.38-4.76l-.3-.3"/><path id="_Compound_Path_20" data-name="&lt;Compound Path&gt;" class="cls-4" d="M98.62,88.21l5.08,4.94a4.24,4.24,0,0,0,1.65-1.33c.37-.71.07-1.54-.91-2.49a4.7,4.7,0,0,0-2.86-1.27,13.72,13.72,0,0,0-3,.15M88.3,80.69c-1.06.46-1.65,1-1.79,1.58a2,2,0,0,0,.8,1.85,4.49,4.49,0,0,0,2.9,1.2,11.88,11.88,0,0,0,2.66-.2L88.3,80.69m13.64,13.24-5.56-5.4-1.81.32a17.63,17.63,0,0,1-7,.1,9.62,9.62,0,0,1-4.59-2.44,6.24,6.24,0,0,1-1.64-2.37,3.75,3.75,0,0,1-.11-2.31,4.6,4.6,0,0,1,1.66-2.45,14.24,14.24,0,0,1,2.55-1.51l-1.73-1.68,1.8-.75,1.76,1.71a15.61,15.61,0,0,1,5.78-1,11.27,11.27,0,0,1,7.75,3l-4.89,2a8.81,8.81,0,0,0-2.24-1.42,5.12,5.12,0,0,0-3.55.07l5,4.81a42.38,42.38,0,0,1,7.8-.62,9.86,9.86,0,0,1,6.35,2.71q3.28,3.18,1.33,6.05A9.83,9.83,0,0,1,106.6,96l2.62,2.54-1.8.75-2.59-2.52a21.11,21.11,0,0,1-6.58,1.18A11.91,11.91,0,0,1,90,94.24l5-2.07A11.83,11.83,0,0,0,98,94a7,7,0,0,0,4-.08M78.83,69.72c-14.45,6-18,18.79-7.84,28.62s30.05,13,44.5,7,18-18.8,7.85-28.63-30-12.95-44.51-7"/><path id="_Path_45" data-name="&lt;Path&gt;" class="cls-2" d="M44.51,101.33c-5,2.07-6.23,6.51-2.72,9.92s10.42,4.49,15.43,2.42,6.23-6.52,2.72-9.93-10.42-4.49-15.43-2.41"/><path id="_Path_46" data-name="&lt;Path&gt;" class="cls-2" d="M137.36,62.93c-5,2.07-6.23,6.51-2.72,9.92s10.42,4.49,15.43,2.42,6.23-6.52,2.73-9.93-10.42-4.49-15.44-2.41"/><path id="_Path_47" data-name="&lt;Path&gt;" class="cls-5" d="M17.93,86.24,0,93.65,12.82,106.1l.07,0c9.87-4.08,12.26-12.83,5.35-19.54-.1-.1-.2-.2-.31-.29"/><path id="_Path_48" data-name="&lt;Path&gt;" class="cls-5" d="M36.63,129.13l-.07,0,12.62,12.25L67.11,134l-.1-.1c-6.91-6.71-20.51-8.84-30.38-4.76"/><path id="_Path_49" data-name="&lt;Path&gt;" class="cls-5" d="M145.15,33.62l-18.5,7.65.3.3c6.91,6.71,20.51,8.84,30.38,4.76l.63-.27L145.15,33.62"/><path id="_Path_50" data-name="&lt;Path&gt;" class="cls-5" d="M181.07,69.39c-9.86,4.08-12.26,12.83-5.35,19.54l.11.1,18.5-7.65L181.72,69.14l-.65.25"/><path id="_Compound_Path_21" data-name="&lt;Compound Path&gt;" class="cls-2" d="M103.7,93.15l-5.08-4.94a13.72,13.72,0,0,1,3-.15,4.7,4.7,0,0,1,2.86,1.27c1,1,1.28,1.78.91,2.49a4.24,4.24,0,0,1-1.65,1.33m-10.83-8a11.88,11.88,0,0,1-2.66.2,4.49,4.49,0,0,1-2.9-1.2,2,2,0,0,1-.8-1.85c.14-.59.73-1.12,1.79-1.58l4.57,4.43m-7.4-9.68-1.8.75,1.73,1.68a14.24,14.24,0,0,0-2.55,1.51,4.6,4.6,0,0,0-1.66,2.45,3.75,3.75,0,0,0,.11,2.31,6.24,6.24,0,0,0,1.64,2.37A9.62,9.62,0,0,0,87.53,89a17.63,17.63,0,0,0,7-.1l1.81-.32,5.56,5.4A7,7,0,0,1,98,94,11.83,11.83,0,0,1,95,92.17l-5,2.07a11.91,11.91,0,0,0,8.23,3.67,21.11,21.11,0,0,0,6.58-1.18l2.59,2.52,1.8-.75L106.6,96a9.83,9.83,0,0,0,3.92-3.09q2-2.87-1.33-6.05a9.86,9.86,0,0,0-6.35-2.71,42.38,42.38,0,0,0-7.8.62l-5-4.81a5.12,5.12,0,0,1,3.55-.07,8.81,8.81,0,0,1,2.24,1.42l4.89-2a11.27,11.27,0,0,0-7.75-3,15.61,15.61,0,0,0-5.78,1l-1.76-1.71"/></g></g><polygon id="_Path_51" data-name="&lt;Path&gt;" class="cls-2" points="181.72 61.15 157.96 38.07 145.15 25.64 126.65 33.28 17.93 78.25 0 85.66 0 91.31 12.82 103.76 49.18 139.07 194.33 79.04 194.33 73.39 181.72 61.15"/><path id="_Compound_Path_22" data-name="&lt;Compound Path&gt;" class="cls-3" d="M49.18,133.42,36.56,121.17l.07,0c9.87-4.08,23.47-2,30.38,4.76l.1.1-17.93,7.42m8-27.74c-5,2.07-11.92,1-15.43-2.42s-2.29-7.85,2.72-9.92,11.92-1,15.43,2.42,2.29,7.85-2.72,9.92m92.85-38.4c-5,2.07-11.92,1-15.43-2.42s-2.29-7.85,2.72-9.92,11.92-1,15.44,2.42,2.29,7.85-2.73,9.92M115.49,97.33c-14.45,6-34.38,2.85-44.5-7S64.38,67.7,78.83,61.73s34.38-2.86,44.51,7,6.61,22.65-7.85,28.63m11.16-64-108.72,45,.31.29c6.91,6.71,4.52,15.46-5.35,19.54l-.07,0L0,85.66l49.18,47.76,145.15-60L175.83,81l-.11-.1c-6.91-6.71-4.51-15.46,5.35-19.54l.65-.25L158,38.07l-.63.28c-9.87,4.08-23.47,1.94-30.38-4.77q-.15-.13-.3-.3"/><path id="_Path_52" data-name="&lt;Path&gt;" class="cls-2" d="M44.51,93.34c-5,2.07-6.23,6.51-2.72,9.92s10.42,4.49,15.43,2.42,6.23-6.52,2.72-9.92-10.42-4.5-15.43-2.42"/><path id="_Path_53" data-name="&lt;Path&gt;" class="cls-2" d="M137.36,54.94c-5,2.07-6.23,6.51-2.72,9.92s10.42,4.49,15.43,2.42,6.23-6.52,2.73-9.92-10.42-4.5-15.44-2.42"/><path id="_Path_54" data-name="&lt;Path&gt;" class="cls-5" d="M17.93,78.25,0,85.66,12.82,98.11l.07,0C22.76,94,25.15,85.25,18.24,78.54l-.31-.29"/><path id="_Path_55" data-name="&lt;Path&gt;" class="cls-5" d="M36.63,121.14l-.07,0,12.62,12.25L67.11,126l-.1-.1c-6.91-6.71-20.51-8.84-30.38-4.76"/><path id="_Path_56" data-name="&lt;Path&gt;" class="cls-5" d="M145.15,25.64l-18.5,7.64q.15.16.3.3c6.91,6.71,20.51,8.85,30.38,4.77l.63-.28L145.15,25.64"/><path id="_Path_57" data-name="&lt;Path&gt;" class="cls-5" d="M181.07,61.4c-9.86,4.08-12.26,12.83-5.35,19.54l.11.1,18.5-7.65L181.72,61.15l-.65.25"/><rect id="_Rectangle_" data-name="&lt;Rectangle&gt;" class="cls-6" x="151.98" y="33.83" width="52.98" height="16.17" rx="7.68" ry="7.68"/><path id="_Path_58" data-name="&lt;Path&gt;" class="cls-7" d="M219.56,50.58c11.95,31.15,19.13,68.53-8.31,106.69-20.73,28.85-88.83,21.58-124.76,15.4.11,2.78.84,4.67,2.34,5.42,5.88,2.95,51.81,13.88,90.4,13.57,38.59.31,81.25-10.62,87.12-13.57,10.67-5.35-17.77-67.73-27-103.18C236.33,63.37,228.6,55.74,219.56,50.58Z"/><path class="cls-4" d="M130.38,83.12c0-10.83-14.73-21.65-32.49-24.1-17.31-2.4-31,4.09-31,14.44s13.72,21,31,23.89C115.65,100.29,130.38,94,130.38,83.12Z"/><path class="cls-2" d="M103.89,67.21a.73.73,0,0,0-.58.27c-1,1-1.92,2-2.89,3a11.29,11.29,0,0,0-3.92-.88L100.09,66c.19-.19.22-.26.17-.48s-.12-.29-.36-.43c-.65-.4-1.49-.91-2.14-1.34a.88.88,0,0,0-.63-.17.74.74,0,0,0-.55.24A120.09,120.09,0,0,1,84.15,74.52l-.23.18a.59.59,0,0,0-.28.51.92.92,0,0,0,.19.64l2,2.9a.75.75,0,0,0,.52.35A.6.6,0,0,0,86.9,79c.72-.55,2.13-1.75,2.69-2.2,2.21-1.71,4-2.68,6.68-2.22-2.46,2.35-5,4.58-7.57,6.76a.71.71,0,0,0-.31.58.76.76,0,0,0,.19.64c.49.66,1.1,1.48,1.6,2.13a.63.63,0,0,0,.55.32.65.65,0,0,0,.61-.22c2.82-2.49,5.4-5.32,8.14-8a3.78,3.78,0,0,1,.39,3.43,10.32,10.32,0,0,1-2.63,3.56c-.36.37-1.29,1.22-1.73,1.69a.6.6,0,0,0-.19.54.76.76,0,0,0,.28.54c.77.7,1.65,1.53,2.39,2.24a.9.9,0,0,0,.58.24c4.15.43,8,1.6,12.22,1.72.13,0,.26,0,.4-.32a29.71,29.71,0,0,1,2.21-4,1,1,0,0,0,.15-.9.64.64,0,0,0-.59-.49,105.23,105.23,0,0,1-10.56-.62c1.29-1.83,2.81-3.81,3.11-6.07a6.82,6.82,0,0,0-1.83-5.6c1-.91,2-1.9,2.91-2.83a.55.55,0,0,0,.23-.54c0-.24-.09-.33-.31-.5-.61-.48-1.38-1.06-2-1.52A.78.78,0,0,0,103.89,67.21Z"/><g id="_Group_15" data-name="&lt;Group&gt;"><path id="_Compound_Path_23" data-name="&lt;Compound Path&gt;" class="cls-8" d="M242.86,170.49c-15.16.35-27.56,6.84-27.7,14.49s12,13.58,27.2,13.23,27.56-6.84,27.7-14.5-12-13.57-27.2-13.22"/><path id="_Path_59" data-name="&lt;Path&gt;" class="cls-8" d="M215.16,185V180.6l54.87-2,.07,5.76L254,195.05l-16.36.53a132,132,0,0,1-12.87-3.48c-5.36-1.88-6.83-4.16-6.83-4.16s-1.07-.94-1.74-1.47A4.29,4.29,0,0,1,215.16,185Z"/><path id="_Compound_Path_24" data-name="&lt;Compound Path&gt;" class="cls-6" d="M242.42,190.6c-11.64.27-21-4.27-20.87-10.14s9.62-10.86,21.25-11.12,21,4.27,20.88,10.14-9.63,10.86-21.26,11.12m.44-24.49c-15.16.35-27.56,6.84-27.7,14.49s12,13.58,27.2,13.23,27.56-6.84,27.7-14.49-12-13.58-27.2-13.23"/><path id="_Path_60" data-name="&lt;Path&gt;" class="cls-9" d="M243.39,180.69l0,2.94a6.82,6.82,0,0,0,1.7-.31,1.3,1.3,0,0,0,1-1.22c0-.43-.28-.77-.85-1a8.9,8.9,0,0,0-1.75-.41"/><path id="_Path_61" data-name="&lt;Path&gt;" class="cls-9" d="M242,175.8a4.37,4.37,0,0,0-1.93.39,1.07,1.07,0,0,0-.64.93c0,.42.3.75.92,1a8,8,0,0,0,1.6.34l.05-2.64"/><path id="_Path_62" data-name="&lt;Path&gt;" class="cls-9" d="M241.89,183.69l.06-3.22-1.21-.15a10.66,10.66,0,0,1-4-1.08,2,2,0,0,1-1.13-1.79,2,2,0,0,1,.47-1.28,3.94,3.94,0,0,1,1.3-1,8.07,8.07,0,0,1,2.37-.79,19.42,19.42,0,0,1,2.31-.24l0-1,1.45,0,0,1a13.05,13.05,0,0,1,3.79.51c1.66.5,2.51,1.35,2.55,2.56l-3.92.09a1.66,1.66,0,0,0-.43-1,3,3,0,0,0-2-.54l0,2.87a28.17,28.17,0,0,1,4.73,1c1.32.49,2,1.22,2,2.18,0,1.26-1,2.2-2.81,2.82a15.84,15.84,0,0,1-4,.71l0,1.51-1.45,0,0-1.49a18,18,0,0,1-4.38-.55c-1.68-.54-2.5-1.5-2.45-2.89l4-.1a2.24,2.24,0,0,0,.56,1.26,4.13,4.13,0,0,0,2.27.61"/><path id="_Path_63" data-name="&lt;Path&gt;" class="cls-9" d="M242.8,169.34c-11.63.26-21.15,5.24-21.25,11.12s9.23,10.41,20.87,10.14,21.15-5.24,21.26-11.12-9.24-10.41-20.88-10.14"/><path id="_Path_64" data-name="&lt;Path&gt;" class="cls-8" d="M242.8,170.85c11.06-.25,20.05,3.84,20.82,9.29q0-.33.06-.66c.1-5.87-9.24-10.41-20.88-10.14s-21.15,5.24-21.25,11.12a5,5,0,0,0,0,.86C222.37,175.73,231.61,171.11,242.8,170.85Z"/><path id="_Compound_Path_25" data-name="&lt;Compound Path&gt;" class="cls-6" d="M243.34,183.63l0-2.94a8.9,8.9,0,0,1,1.75.41c.57.23.85.57.85,1a1.3,1.3,0,0,1-1,1.22,6.82,6.82,0,0,1-1.7.31M242,178.44a8,8,0,0,1-1.6-.34c-.62-.23-.93-.56-.92-1a1.07,1.07,0,0,1,.64-.93,4.37,4.37,0,0,1,1.93-.39l-.05,2.64m1.55-5.36-1.45,0,0,1a19.42,19.42,0,0,0-2.31.24,8.07,8.07,0,0,0-2.37.79,3.94,3.94,0,0,0-1.3,1,2,2,0,0,0-.47,1.28,2,2,0,0,0,1.13,1.79,10.66,10.66,0,0,0,4,1.08l1.21.15-.06,3.22a4.13,4.13,0,0,1-2.27-.61,2.24,2.24,0,0,1-.56-1.26l-4,.1c-.05,1.39.77,2.35,2.45,2.89a18,18,0,0,0,4.38.55l0,1.49,1.45,0,0-1.51a15.84,15.84,0,0,0,4-.71c1.85-.62,2.79-1.56,2.81-2.82,0-1-.64-1.69-2-2.18a28.17,28.17,0,0,0-4.73-1l0-2.87a3,3,0,0,1,2,.54,1.66,1.66,0,0,1,.43,1l3.92-.09c0-1.21-.89-2.06-2.55-2.56a13.05,13.05,0,0,0-3.79-.51l0-1"/><path id="_Path_65" data-name="&lt;Path&gt;" class="cls-1" d="M239.33,74.91c-8.22-31.54-51.64-33.83-61.07-36.56h0a3.7,3.7,0,0,0-2,0h0c-9.44,2.73-52.18,5-60.4,36.56-9.24,35.45-37.68,97.83-27,103.18,5.88,2.95,51.81,13.88,90.4,13.57,38.59.31,81.25-10.62,87.12-13.57C277,172.74,248.58,110.36,239.33,74.91Z"/></g><g id="_Group_16" data-name="&lt;Group&gt;"><path id="_Compound_Path_26" data-name="&lt;Compound Path&gt;" class="cls-8" d="M243.93,158.8c-15.16.35-27.57,6.84-27.71,14.49s12,13.58,27.2,13.23S271,179.68,271.12,172s-12-13.58-27.19-13.23"/><path id="_Path_66" data-name="&lt;Path&gt;" class="cls-8" d="M216.22,173.29v-4.38l54.88-2,.06,5.76-16.08,10.73-16.36.53a131.34,131.34,0,0,1-12.86-3.48c-5.36-1.88-6.84-4.16-6.84-4.16s-1.07-.94-1.74-1.47A4.29,4.29,0,0,1,216.22,173.29Z"/><path id="_Compound_Path_27" data-name="&lt;Compound Path&gt;" class="cls-6" d="M243.48,178.92c-11.63.26-21-4.28-20.87-10.15s9.62-10.86,21.26-11.12,21,4.27,20.87,10.14-9.63,10.86-21.26,11.13m.45-24.5c-15.16.35-27.57,6.84-27.71,14.49s12,13.58,27.2,13.23,27.56-6.84,27.7-14.49-12-13.58-27.19-13.23"/><path id="_Path_67" data-name="&lt;Path&gt;" class="cls-9" d="M244.45,169l0,2.94a6.72,6.72,0,0,0,1.7-.31,1.29,1.29,0,0,0,1-1.22c0-.43-.28-.76-.85-1a8.72,8.72,0,0,0-1.75-.41"/><path id="_Path_68" data-name="&lt;Path&gt;" class="cls-9" d="M243.09,164.11a4.55,4.55,0,0,0-1.93.39,1.07,1.07,0,0,0-.64.93c0,.42.3.75.92,1a8.16,8.16,0,0,0,1.61.34l0-2.64"/><path id="_Path_69" data-name="&lt;Path&gt;" class="cls-9" d="M243,172l.06-3.22-1.21-.15a10.6,10.6,0,0,1-4-1.08,2,2,0,0,1-.66-3.07,4,4,0,0,1,1.29-1,8.07,8.07,0,0,1,2.37-.79,19.66,19.66,0,0,1,2.31-.24l0-1,1.45,0,0,1a13,13,0,0,1,3.79.51c1.66.5,2.51,1.35,2.55,2.56l-3.92.09a1.6,1.6,0,0,0-.43-1,3,3,0,0,0-2-.54l0,2.87a27.94,27.94,0,0,1,4.73,1c1.33.49,2,1.22,2,2.18,0,1.27-1,2.21-2.8,2.82a15.92,15.92,0,0,1-4,.71l0,1.51-1.45,0,0-1.5a17.89,17.89,0,0,1-4.37-.55c-1.69-.54-2.51-1.5-2.45-2.89l4-.1a2.31,2.31,0,0,0,.56,1.26A4.13,4.13,0,0,0,243,172"/><path id="_Path_70" data-name="&lt;Path&gt;" class="cls-9" d="M243.87,157.65c-11.64.26-21.15,5.24-21.26,11.12s9.24,10.41,20.87,10.15,21.15-5.25,21.26-11.13-9.24-10.41-20.87-10.14"/><path id="_Path_71" data-name="&lt;Path&gt;" class="cls-8" d="M243.87,159.17c11.06-.26,20.05,3.83,20.82,9.28a4.65,4.65,0,0,0,.05-.66c.11-5.87-9.24-10.41-20.87-10.14s-21.15,5.24-21.26,11.12a5,5,0,0,0,0,.86C223.44,164,232.67,159.42,243.87,159.17Z"/><path id="_Compound_Path_28" data-name="&lt;Compound Path&gt;" class="cls-6" d="M244.4,171.94l0-2.94a8.72,8.72,0,0,1,1.75.41c.57.24.86.57.85,1a1.29,1.29,0,0,1-1,1.22,6.72,6.72,0,0,1-1.7.31m-1.35-5.19a8.16,8.16,0,0,1-1.61-.34c-.62-.23-.93-.56-.92-1a1.07,1.07,0,0,1,.64-.93,4.55,4.55,0,0,1,1.93-.39l0,2.64m1.54-5.36-1.45,0,0,1a19.66,19.66,0,0,0-2.31.24,8.07,8.07,0,0,0-2.37.79,4,4,0,0,0-1.29,1,2,2,0,0,0,.66,3.07,10.6,10.6,0,0,0,4,1.08l1.21.15L243,172a4.13,4.13,0,0,1-2.27-.61,2.31,2.31,0,0,1-.56-1.26l-4,.1c-.06,1.39.76,2.35,2.45,2.89a17.89,17.89,0,0,0,4.37.55l0,1.5,1.45,0,0-1.51a15.92,15.92,0,0,0,4-.71c1.84-.61,2.78-1.55,2.8-2.82,0-1-.63-1.69-2-2.18a27.94,27.94,0,0,0-4.73-1l0-2.87a3,3,0,0,1,2,.54,1.6,1.6,0,0,1,.43,1l3.92-.09c0-1.21-.89-2.06-2.55-2.56a13,13,0,0,0-3.79-.51l0-1"/></g><g id="_Group_17" data-name="&lt;Group&gt;"><path id="_Compound_Path_29" data-name="&lt;Compound Path&gt;" class="cls-8" d="M185.6,179.49c-15.16.35-27.57,6.84-27.71,14.49s12,13.57,27.2,13.22,27.56-6.83,27.7-14.49-12-13.57-27.19-13.22"/><path id="_Path_72" data-name="&lt;Path&gt;" class="cls-8" d="M157.89,194V189.6l54.87-2,.07,5.76L196.75,204l-16.36.54a131.34,131.34,0,0,1-12.86-3.48c-5.37-1.88-6.84-4.16-6.84-4.16s-1.07-.94-1.74-1.47A4.29,4.29,0,0,1,157.89,194Z"/><path id="_Compound_Path_30" data-name="&lt;Compound Path&gt;" class="cls-6" d="M185.15,199.6c-11.63.27-21-4.27-20.87-10.15s9.62-10.85,21.26-11.12,21,4.28,20.87,10.15-9.63,10.85-21.26,11.12m.45-24.49c-15.16.35-27.57,6.84-27.71,14.49s12,13.57,27.2,13.23,27.56-6.84,27.7-14.5-12-13.57-27.19-13.22"/><path id="_Path_73" data-name="&lt;Path&gt;" class="cls-9" d="M186.12,189.68l-.05,2.95a6.82,6.82,0,0,0,1.7-.31,1.3,1.3,0,0,0,.95-1.22c0-.43-.28-.77-.85-1a10.4,10.4,0,0,0-1.75-.41"/><path id="_Path_74" data-name="&lt;Path&gt;" class="cls-9" d="M184.76,184.79a4.35,4.35,0,0,0-1.93.4,1.07,1.07,0,0,0-.64.93c0,.42.3.75.92,1a9,9,0,0,0,1.61.34l0-2.65"/><path id="_Path_75" data-name="&lt;Path&gt;" class="cls-9" d="M184.62,192.68l.06-3.21-1.21-.15a10.38,10.38,0,0,1-4-1.09,2,2,0,0,1-1.14-1.78,2.1,2.1,0,0,1,.48-1.29,4.12,4.12,0,0,1,1.29-1,8.07,8.07,0,0,1,2.37-.79,21.59,21.59,0,0,1,2.31-.25l0-1,1.45,0,0,1a12.66,12.66,0,0,1,3.79.51q2.49.75,2.55,2.55l-3.92.09a1.65,1.65,0,0,0-.43-1,3,3,0,0,0-2-.55l-.05,2.87a28.68,28.68,0,0,1,4.73,1c1.33.49,2,1.22,2,2.18,0,1.26-1,2.2-2.81,2.82a16.29,16.29,0,0,1-4,.71l0,1.51-1.45,0,0-1.5a17.5,17.5,0,0,1-4.37-.54c-1.69-.54-2.51-1.5-2.46-2.9l4-.09a2.31,2.31,0,0,0,.56,1.26,4.05,4.05,0,0,0,2.27.6"/><path id="_Path_76" data-name="&lt;Path&gt;" class="cls-9" d="M185.54,178.33c-11.64.27-21.16,5.25-21.26,11.12s9.24,10.42,20.87,10.15,21.15-5.24,21.26-11.12-9.24-10.42-20.87-10.15"/><path id="_Path_77" data-name="&lt;Path&gt;" class="cls-8" d="M185.54,179.85c11.06-.25,20.05,3.84,20.82,9.29a4.89,4.89,0,0,0,0-.66c.11-5.87-9.24-10.42-20.87-10.15s-21.16,5.25-21.26,11.12a4.91,4.91,0,0,0,.05.86C165.11,184.73,174.34,180.11,185.54,179.85Z"/><path id="_Compound_Path_31" data-name="&lt;Compound Path&gt;" class="cls-6" d="M186.07,192.63l.05-2.95a10.4,10.4,0,0,1,1.75.41c.57.24.86.58.85,1a1.3,1.3,0,0,1-.95,1.22,6.82,6.82,0,0,1-1.7.31m-1.35-5.19a9,9,0,0,1-1.61-.34c-.62-.23-.93-.56-.92-1a1.07,1.07,0,0,1,.64-.93,4.35,4.35,0,0,1,1.93-.4l0,2.65m1.54-5.36-1.45,0,0,1a21.59,21.59,0,0,0-2.31.25,8.07,8.07,0,0,0-2.37.79,4.12,4.12,0,0,0-1.29,1,2.1,2.1,0,0,0-.48,1.29,2,2,0,0,0,1.14,1.78,10.38,10.38,0,0,0,4,1.09l1.21.15-.06,3.21a4.05,4.05,0,0,1-2.27-.6,2.31,2.31,0,0,1-.56-1.26l-4,.09c0,1.4.77,2.36,2.46,2.9a17.5,17.5,0,0,0,4.37.54l0,1.5,1.45,0,0-1.51a16.29,16.29,0,0,0,4-.71c1.85-.62,2.79-1.56,2.81-2.82,0-1-.63-1.69-2-2.18a28.68,28.68,0,0,0-4.73-1l.05-2.87a3,3,0,0,1,2,.55,1.65,1.65,0,0,1,.43,1l3.92-.09q-.06-1.8-2.55-2.55a12.66,12.66,0,0,0-3.79-.51l0-1"/></g><g id="_Group_18" data-name="&lt;Group&gt;"><path id="_Compound_Path_32" data-name="&lt;Compound Path&gt;" class="cls-8" d="M188.28,170.41c-15.16.35-27.56,6.84-27.7,14.49s12,13.58,27.2,13.23,27.56-6.84,27.7-14.49-12-13.58-27.2-13.23"/><path id="_Path_78" data-name="&lt;Path&gt;" class="cls-8" d="M160.58,184.9v-4.37l54.87-2.05.07,5.77L199.44,195l-16.36.53A128.89,128.89,0,0,1,170.21,192c-5.36-1.88-6.83-4.16-6.83-4.16s-1.07-.93-1.74-1.47A4.29,4.29,0,0,1,160.58,184.9Z"/><path id="_Compound_Path_33" data-name="&lt;Compound Path&gt;" class="cls-6" d="M187.84,190.53c-11.64.26-21-4.28-20.87-10.15s9.62-10.85,21.26-11.12,21,4.27,20.87,10.15-9.63,10.85-21.26,11.12m.44-24.49c-15.16.35-27.56,6.83-27.7,14.49s12,13.57,27.2,13.22,27.56-6.84,27.7-14.49-12-13.57-27.2-13.22"/><path id="_Path_79" data-name="&lt;Path&gt;" class="cls-9" d="M188.81,180.61l-.05,2.94a6.82,6.82,0,0,0,1.7-.31,1.29,1.29,0,0,0,.95-1.22c0-.43-.28-.76-.85-1a8.9,8.9,0,0,0-1.75-.41"/><path id="_Path_80" data-name="&lt;Path&gt;" class="cls-9" d="M187.45,175.72a4.52,4.52,0,0,0-1.93.39,1.07,1.07,0,0,0-.64.93c0,.42.3.75.92,1a8.19,8.19,0,0,0,1.6.34l0-2.64"/><path id="_Path_81" data-name="&lt;Path&gt;" class="cls-9" d="M187.31,183.61l.06-3.22-1.21-.15a10.72,10.72,0,0,1-4-1.08,2,2,0,0,1-1.13-1.79,2,2,0,0,1,.48-1.28,3.89,3.89,0,0,1,1.29-1,8.37,8.37,0,0,1,2.37-.79,19.66,19.66,0,0,1,2.31-.24l0-1,1.45,0,0,1a12.67,12.67,0,0,1,3.79.52q2.49.74,2.55,2.55l-3.92.09a1.66,1.66,0,0,0-.43-1,3,3,0,0,0-2-.54l-.05,2.87a28.17,28.17,0,0,1,4.73,1c1.33.5,2,1.22,2,2.18,0,1.27-1,2.21-2.81,2.82a15.84,15.84,0,0,1-4,.71l0,1.51-1.45,0,0-1.5a17.82,17.82,0,0,1-4.37-.55c-1.69-.54-2.51-1.5-2.46-2.89l4-.09A2.24,2.24,0,0,0,185,183a4.23,4.23,0,0,0,2.27.6"/><path id="_Path_82" data-name="&lt;Path&gt;" class="cls-9" d="M188.23,169.26c-11.64.27-21.16,5.25-21.26,11.12s9.23,10.41,20.87,10.15,21.15-5.25,21.26-11.12-9.24-10.42-20.87-10.15"/><path id="_Path_83" data-name="&lt;Path&gt;" class="cls-8" d="M188.23,170.78c11.05-.26,20.05,3.84,20.81,9.29q0-.33.06-.66c.1-5.88-9.24-10.42-20.87-10.15s-21.16,5.25-21.26,11.12a5,5,0,0,0,.05.86C167.79,175.66,177,171,188.23,170.78Z"/><path id="_Compound_Path_34" data-name="&lt;Compound Path&gt;" class="cls-6" d="M188.76,183.55l.05-2.94a8.9,8.9,0,0,1,1.75.41c.57.24.86.57.85,1a1.29,1.29,0,0,1-.95,1.22,6.82,6.82,0,0,1-1.7.31m-1.36-5.19a8.19,8.19,0,0,1-1.6-.34c-.62-.23-.93-.56-.92-1a1.07,1.07,0,0,1,.64-.93,4.52,4.52,0,0,1,1.93-.39l0,2.64M189,173l-1.45,0,0,1a19.66,19.66,0,0,0-2.31.24,8.37,8.37,0,0,0-2.37.79,3.89,3.89,0,0,0-1.29,1,2,2,0,0,0-.48,1.28,2,2,0,0,0,1.13,1.79,10.72,10.72,0,0,0,4,1.08l1.21.15-.06,3.22A4.23,4.23,0,0,1,185,183a2.24,2.24,0,0,1-.56-1.26l-4,.09c0,1.39.77,2.35,2.46,2.89a17.82,17.82,0,0,0,4.37.55l0,1.5,1.45,0,0-1.51a15.84,15.84,0,0,0,4-.71c1.85-.61,2.79-1.55,2.81-2.82,0-1-.63-1.68-2-2.18a28.17,28.17,0,0,0-4.73-1l.05-2.87a3,3,0,0,1,2,.54,1.66,1.66,0,0,1,.43,1l3.92-.09q-.06-1.82-2.55-2.55a12.67,12.67,0,0,0-3.79-.52l0-1"/></g><g id="_Group_19" data-name="&lt;Group&gt;"><path id="_Compound_Path_35" data-name="&lt;Compound Path&gt;" class="cls-8" d="M188.28,161.6c-15.16.35-27.56,6.83-27.7,14.49s12,13.57,27.2,13.22,27.56-6.84,27.7-14.49-12-13.57-27.2-13.22"/><path id="_Path_84" data-name="&lt;Path&gt;" class="cls-8" d="M160.58,176.09v-4.38l54.87-2.05.07,5.77-16.08,10.72-16.36.54a130.24,130.24,0,0,1-12.87-3.49c-5.36-1.87-6.83-4.15-6.83-4.15s-1.07-.94-1.74-1.48A4.2,4.2,0,0,1,160.58,176.09Z"/><path id="_Compound_Path_36" data-name="&lt;Compound Path&gt;" class="cls-6" d="M187.84,181.71c-11.64.27-21-4.28-20.87-10.15s9.62-10.85,21.26-11.12,21,4.28,20.87,10.15-9.63,10.85-21.26,11.12m.44-24.49c-15.16.35-27.56,6.84-27.7,14.49s12,13.57,27.2,13.22,27.56-6.84,27.7-14.49-12-13.57-27.2-13.22"/><path id="_Path_85" data-name="&lt;Path&gt;" class="cls-9" d="M188.81,171.79l-.05,2.94a6.38,6.38,0,0,0,1.7-.31,1.29,1.29,0,0,0,.95-1.21c0-.44-.28-.77-.85-1a9.7,9.7,0,0,0-1.75-.41"/><path id="_Path_86" data-name="&lt;Path&gt;" class="cls-9" d="M187.45,166.9a4.52,4.52,0,0,0-1.93.39,1.09,1.09,0,0,0-.64.93c0,.43.3.75.92,1a8.19,8.19,0,0,0,1.6.34l0-2.64"/><path id="_Path_87" data-name="&lt;Path&gt;" class="cls-9" d="M187.31,174.79l.06-3.21-1.21-.16a10.53,10.53,0,0,1-4-1.08,2,2,0,0,1-1.13-1.79,2,2,0,0,1,.48-1.28,3.75,3.75,0,0,1,1.29-1,8.08,8.08,0,0,1,2.37-.8,19.66,19.66,0,0,1,2.31-.24l0-1,1.45,0,0,1a12.67,12.67,0,0,1,3.79.52q2.49.75,2.55,2.55l-3.92.09a1.69,1.69,0,0,0-.43-1,3,3,0,0,0-2-.54l-.05,2.87a29.26,29.26,0,0,1,4.73,1c1.33.5,2,1.23,2,2.18,0,1.27-1,2.21-2.81,2.82a15.4,15.4,0,0,1-4,.71l0,1.52-1.45,0,0-1.5a17.92,17.92,0,0,1-4.37-.54c-1.69-.54-2.51-1.51-2.46-2.9l4-.09a2.24,2.24,0,0,0,.56,1.26,4.14,4.14,0,0,0,2.27.6"/><path id="_Path_88" data-name="&lt;Path&gt;" class="cls-9" d="M188.23,160.44c-11.64.27-21.16,5.25-21.26,11.12s9.23,10.42,20.87,10.15,21.15-5.25,21.26-11.12-9.24-10.42-20.87-10.15"/><path id="_Path_89" data-name="&lt;Path&gt;" class="cls-8" d="M188.23,162c11.05-.26,20.05,3.84,20.81,9.29q0-.33.06-.66c.1-5.87-9.24-10.42-20.87-10.15s-21.16,5.25-21.26,11.12a4.91,4.91,0,0,0,.05.86C167.79,166.84,177,162.22,188.23,162Z"/><path id="_Compound_Path_37" data-name="&lt;Compound Path&gt;" class="cls-6" d="M188.76,174.73l.05-2.94a9.7,9.7,0,0,1,1.75.41c.57.24.86.57.85,1a1.29,1.29,0,0,1-.95,1.21,6.38,6.38,0,0,1-1.7.31m-1.36-5.19a8.19,8.19,0,0,1-1.6-.34c-.62-.23-.93-.55-.92-1a1.09,1.09,0,0,1,.64-.93,4.52,4.52,0,0,1,1.93-.39l0,2.64m1.55-5.35-1.45,0,0,1a19.66,19.66,0,0,0-2.31.24,8.08,8.08,0,0,0-2.37.8,3.75,3.75,0,0,0-1.29,1,2,2,0,0,0-.48,1.28,2,2,0,0,0,1.13,1.79,10.53,10.53,0,0,0,4,1.08l1.21.16-.06,3.21a4.14,4.14,0,0,1-2.27-.6,2.24,2.24,0,0,1-.56-1.26l-4,.09c0,1.39.77,2.36,2.46,2.9a17.92,17.92,0,0,0,4.37.54l0,1.5,1.45,0,0-1.52a15.4,15.4,0,0,0,4-.71c1.85-.61,2.79-1.55,2.81-2.82,0-.95-.63-1.68-2-2.18a29.26,29.26,0,0,0-4.73-1l.05-2.87a3,3,0,0,1,2,.54,1.69,1.69,0,0,1,.43,1l3.92-.09q-.06-1.8-2.55-2.55a12.67,12.67,0,0,0-3.79-.52l0-1"/></g><g id="_Group_20" data-name="&lt;Group&gt;"><path id="_Compound_Path_38" data-name="&lt;Compound Path&gt;" class="cls-8" d="M124.87,181.27c-15.16.35-27.57,6.83-27.71,14.49s12,13.57,27.2,13.22,27.56-6.84,27.7-14.49-12-13.57-27.19-13.22"/><path id="_Path_90" data-name="&lt;Path&gt;" class="cls-8" d="M97.16,195.76v-4.38l54.88-2,.06,5.77L136,205.82l-16.35.54a129.46,129.46,0,0,1-12.87-3.49c-5.36-1.87-6.84-4.15-6.84-4.15s-1.07-.94-1.74-1.48A4.2,4.2,0,0,1,97.16,195.76Z"/><path id="_Compound_Path_39" data-name="&lt;Compound Path&gt;" class="cls-6" d="M124.42,201.38c-11.63.27-21-4.28-20.87-10.15s9.62-10.85,21.26-11.12,21,4.28,20.87,10.15-9.63,10.85-21.26,11.12m.45-24.49c-15.16.35-27.57,6.83-27.71,14.49s12,13.57,27.2,13.22,27.56-6.84,27.7-14.49-12-13.57-27.19-13.22"/><path id="_Path_91" data-name="&lt;Path&gt;" class="cls-9" d="M125.39,191.46l0,2.94a6.3,6.3,0,0,0,1.7-.31,1.29,1.29,0,0,0,.95-1.21c0-.44-.28-.77-.85-1a9.48,9.48,0,0,0-1.75-.41"/><path id="_Path_92" data-name="&lt;Path&gt;" class="cls-9" d="M124,186.57a4.55,4.55,0,0,0-1.93.39,1.09,1.09,0,0,0-.64.93c0,.42.3.75.92,1a8.16,8.16,0,0,0,1.61.34l0-2.64"/><path id="_Path_93" data-name="&lt;Path&gt;" class="cls-9" d="M123.89,194.46l.06-3.22-1.21-.15a10.6,10.6,0,0,1-4-1.08,2.06,2.06,0,0,1-1.14-1.79,2.1,2.1,0,0,1,.48-1.28,4,4,0,0,1,1.29-1,8.37,8.37,0,0,1,2.37-.79,19.63,19.63,0,0,1,2.32-.24v-1l1.45,0,0,1a12.62,12.62,0,0,1,3.79.52q2.49.75,2.55,2.55l-3.92.09a1.63,1.63,0,0,0-.43-1,3,3,0,0,0-2-.54l0,2.87a29,29,0,0,1,4.73,1c1.33.5,2,1.23,2,2.18,0,1.27-1,2.21-2.8,2.82a15.49,15.49,0,0,1-4,.71l0,1.52-1.45,0,0-1.5a17.41,17.41,0,0,1-4.37-.55c-1.69-.53-2.51-1.5-2.45-2.89l4-.09a2.31,2.31,0,0,0,.56,1.26,4.14,4.14,0,0,0,2.27.6"/><path id="_Path_94" data-name="&lt;Path&gt;" class="cls-9" d="M124.81,180.11c-11.64.27-21.15,5.25-21.26,11.12s9.24,10.42,20.87,10.15,21.15-5.25,21.26-11.12-9.24-10.42-20.87-10.15"/><path id="_Path_95" data-name="&lt;Path&gt;" class="cls-8" d="M124.81,181.63c11.06-.26,20.05,3.84,20.82,9.29a4.89,4.89,0,0,0,.05-.66c.11-5.87-9.24-10.42-20.87-10.15s-21.15,5.25-21.26,11.12a4.91,4.91,0,0,0,0,.86C104.38,186.51,113.61,181.89,124.81,181.63Z"/><path id="_Compound_Path_40" data-name="&lt;Compound Path&gt;" class="cls-6" d="M125.34,194.4l0-2.94a9.48,9.48,0,0,1,1.75.41c.57.24.86.57.85,1a1.29,1.29,0,0,1-.95,1.21,6.3,6.3,0,0,1-1.7.31M124,189.21a8.16,8.16,0,0,1-1.61-.34c-.62-.23-.93-.56-.92-1a1.09,1.09,0,0,1,.64-.93,4.55,4.55,0,0,1,1.93-.39l0,2.64m1.54-5.35-1.45,0v1a19.63,19.63,0,0,0-2.32.24,8.37,8.37,0,0,0-2.37.79,4,4,0,0,0-1.29,1,2.1,2.1,0,0,0-.48,1.28,2.06,2.06,0,0,0,1.14,1.79,10.6,10.6,0,0,0,4,1.08l1.21.15-.06,3.22a4.14,4.14,0,0,1-2.27-.6,2.31,2.31,0,0,1-.56-1.26l-4,.09c-.06,1.39.76,2.36,2.45,2.89a17.41,17.41,0,0,0,4.37.55l0,1.5,1.45,0,0-1.52a15.49,15.49,0,0,0,4-.71c1.84-.61,2.78-1.55,2.8-2.82,0-1-.63-1.68-2-2.18a29,29,0,0,0-4.73-1l0-2.87a3,3,0,0,1,2,.54,1.63,1.63,0,0,1,.43,1l3.92-.09q-.06-1.8-2.55-2.55a12.62,12.62,0,0,0-3.79-.52l0-1"/></g><g id="_Group_21" data-name="&lt;Group&gt;"><path id="_Compound_Path_41" data-name="&lt;Compound Path&gt;" class="cls-8" d="M238.08,144.46c-15.16.35-27.56,6.83-27.7,14.49s12,13.57,27.2,13.22,27.56-6.84,27.7-14.49-12-13.57-27.2-13.22"/><path id="_Path_96" data-name="&lt;Path&gt;" class="cls-8" d="M210.38,159v-4.38l54.87-2,.07,5.76L249.23,169l-16.35.54A129.46,129.46,0,0,1,220,166.06c-5.36-1.87-6.83-4.15-6.83-4.15s-1.08-.94-1.75-1.48A4.11,4.11,0,0,1,210.38,159Z"/><path id="_Compound_Path_42" data-name="&lt;Compound Path&gt;" class="cls-6" d="M237.64,164.57c-11.64.27-21-4.27-20.88-10.15s9.63-10.85,21.26-11.12,21,4.28,20.88,10.15-9.63,10.85-21.26,11.12m.44-24.49c-15.16.35-27.56,6.84-27.7,14.49s12,13.57,27.2,13.22,27.56-6.83,27.7-14.49-12-13.57-27.2-13.22"/><path id="_Path_97" data-name="&lt;Path&gt;" class="cls-9" d="M238.61,154.65l-.06,2.95a6.54,6.54,0,0,0,1.7-.32,1.3,1.3,0,0,0,1-1.21c0-.43-.28-.77-.86-1a9.33,9.33,0,0,0-1.74-.41"/><path id="_Path_98" data-name="&lt;Path&gt;" class="cls-9" d="M237.25,149.76a4.32,4.32,0,0,0-1.93.4,1,1,0,0,0-.64.92c0,.43.3.75.92,1a7.36,7.36,0,0,0,1.6.34l.05-2.64"/><path id="_Path_99" data-name="&lt;Path&gt;" class="cls-9" d="M237.11,157.65l.06-3.21-1.21-.16a10.29,10.29,0,0,1-4-1.08,2.06,2.06,0,0,1-1.14-1.79,2.1,2.1,0,0,1,.48-1.28,3.79,3.79,0,0,1,1.3-1,8.11,8.11,0,0,1,2.36-.8c.53-.09,1.31-.17,2.32-.24l0-1,1.45,0,0,1a12.67,12.67,0,0,1,3.79.52q2.49.75,2.55,2.55l-3.93.09a1.68,1.68,0,0,0-.42-1,3.05,3.05,0,0,0-2-.54l-.06,2.87a30.37,30.37,0,0,1,4.74,1c1.32.5,2,1.23,2,2.19,0,1.26-1,2.2-2.81,2.81a15.41,15.41,0,0,1-4,.71l0,1.52-1.45,0,0-1.5a17.59,17.59,0,0,1-4.38-.54c-1.69-.54-2.5-1.51-2.45-2.9l4-.09a2.24,2.24,0,0,0,.56,1.26,4,4,0,0,0,2.27.6"/><path id="_Path_100" data-name="&lt;Path&gt;" class="cls-9" d="M238,143.3c-11.63.27-21.15,5.25-21.26,11.12s9.24,10.42,20.88,10.15,21.15-5.25,21.26-11.12S249.66,143,238,143.3"/><path id="_Path_101" data-name="&lt;Path&gt;" class="cls-8" d="M238,144.82c11.06-.26,20,3.84,20.82,9.29q0-.33.06-.66c.1-5.87-9.24-10.42-20.88-10.15s-21.15,5.25-21.26,11.12a6.11,6.11,0,0,0,.06.86C217.59,149.7,226.83,145.08,238,144.82Z"/><path id="_Compound_Path_43" data-name="&lt;Compound Path&gt;" class="cls-6" d="M238.55,157.6l.06-2.95a9.33,9.33,0,0,1,1.74.41c.58.24.86.58.86,1a1.3,1.3,0,0,1-1,1.21,6.54,6.54,0,0,1-1.7.32m-1.35-5.2a7.36,7.36,0,0,1-1.6-.34c-.62-.23-.93-.55-.92-1a1,1,0,0,1,.64-.92,4.32,4.32,0,0,1,1.93-.4l-.05,2.64m1.55-5.35-1.45,0,0,1c-1,.07-1.79.15-2.32.24a8.11,8.11,0,0,0-2.36.8,3.79,3.79,0,0,0-1.3,1,2.1,2.1,0,0,0-.48,1.28A2.06,2.06,0,0,0,232,153.2a10.29,10.29,0,0,0,4,1.08l1.21.16-.06,3.21a4,4,0,0,1-2.27-.6,2.24,2.24,0,0,1-.56-1.26l-4,.09c-.05,1.39.76,2.36,2.45,2.9a17.59,17.59,0,0,0,4.38.54l0,1.5,1.45,0,0-1.52a15.41,15.41,0,0,0,4-.71c1.85-.61,2.79-1.55,2.81-2.81,0-1-.64-1.69-2-2.19a30.37,30.37,0,0,0-4.74-1l.06-2.87a3.05,3.05,0,0,1,2,.54,1.68,1.68,0,0,1,.42,1l3.93-.09q-.06-1.8-2.55-2.55a12.67,12.67,0,0,0-3.79-.52l0-1"/></g><g id="_Group_22" data-name="&lt;Group&gt;"><path id="_Compound_Path_44" data-name="&lt;Compound Path&gt;" class="cls-8" d="M245.52,134.89c-15.16.35-27.56,6.84-27.7,14.49s12,13.58,27.2,13.23,27.56-6.84,27.7-14.49-12-13.58-27.2-13.23"/><path id="_Path_102" data-name="&lt;Path&gt;" class="cls-8" d="M217.82,149.38V145l54.87-2,.07,5.77-16.09,10.72-16.35.53a128.14,128.14,0,0,1-12.87-3.48c-5.36-1.88-6.84-4.16-6.84-4.16s-1.07-.93-1.74-1.47A4.19,4.19,0,0,1,217.82,149.38Z"/><path id="_Compound_Path_45" data-name="&lt;Compound Path&gt;" class="cls-6" d="M245.07,155c-11.63.26-21-4.28-20.87-10.15s9.63-10.85,21.26-11.12,21,4.27,20.87,10.15-9.62,10.85-21.26,11.12m.45-24.49c-15.16.35-27.56,6.83-27.7,14.49s12,13.57,27.2,13.22,27.56-6.84,27.7-14.49-12-13.57-27.2-13.22"/><path id="_Path_103" data-name="&lt;Path&gt;" class="cls-9" d="M246.05,145.09,246,148a6.63,6.63,0,0,0,1.7-.31,1.28,1.28,0,0,0,.95-1.22c0-.43-.27-.76-.85-1a8.58,8.58,0,0,0-1.74-.41"/><path id="_Path_104" data-name="&lt;Path&gt;" class="cls-9" d="M244.69,140.2a4.48,4.48,0,0,0-1.93.39,1.06,1.06,0,0,0-.64.93c0,.42.29.75.92,1a8,8,0,0,0,1.6.34l.05-2.64"/><path id="_Path_105" data-name="&lt;Path&gt;" class="cls-9" d="M244.54,148.09l.06-3.22-1.2-.15a10.6,10.6,0,0,1-4-1.08,2,2,0,0,1-.66-3.07,4,4,0,0,1,1.29-1,8.59,8.59,0,0,1,2.37-.79,19.63,19.63,0,0,1,2.32-.24l0-1,1.44,0v1A12.55,12.55,0,0,1,250,139q2.51.73,2.55,2.55l-3.92.09a1.65,1.65,0,0,0-.42-1,3,3,0,0,0-2-.54l-.06,2.87a27.7,27.7,0,0,1,4.73,1c1.33.5,2,1.22,2,2.18,0,1.27-1,2.21-2.81,2.82a15.92,15.92,0,0,1-4,.71l0,1.51-1.44,0,0-1.5a18,18,0,0,1-4.37-.55c-1.69-.54-2.51-1.5-2.45-2.89l4-.09a2.25,2.25,0,0,0,.55,1.26,4.26,4.26,0,0,0,2.27.6"/><path id="_Path_106" data-name="&lt;Path&gt;" class="cls-9" d="M245.46,133.74c-11.63.27-21.15,5.25-21.26,11.12s9.24,10.41,20.87,10.15,21.16-5.25,21.26-11.12-9.23-10.42-20.87-10.15"/><path id="_Path_107" data-name="&lt;Path&gt;" class="cls-8" d="M245.46,135.26c11.06-.26,20,3.84,20.82,9.29a4.89,4.89,0,0,0,.05-.66c.11-5.88-9.23-10.42-20.87-10.15S224.31,139,224.2,144.86a6.22,6.22,0,0,0,.06.86C225,140.14,234.26,135.52,245.46,135.26Z"/><path id="_Compound_Path_46" data-name="&lt;Compound Path&gt;" class="cls-6" d="M246,148l.06-2.94a8.58,8.58,0,0,1,1.74.41c.58.24.86.57.85,1a1.28,1.28,0,0,1-.95,1.22,6.63,6.63,0,0,1-1.7.31m-1.35-5.19a8,8,0,0,1-1.6-.34c-.63-.23-.93-.56-.92-1a1.06,1.06,0,0,1,.64-.93,4.48,4.48,0,0,1,1.93-.39l-.05,2.64m1.54-5.36-1.44,0,0,1a19.63,19.63,0,0,0-2.32.24,8.59,8.59,0,0,0-2.37.79,4,4,0,0,0-1.29,1,2,2,0,0,0,.66,3.07,10.6,10.6,0,0,0,4,1.08l1.2.15-.06,3.22a4.26,4.26,0,0,1-2.27-.6,2.25,2.25,0,0,1-.55-1.26l-4,.09c-.06,1.39.76,2.35,2.45,2.89a18,18,0,0,0,4.37.55l0,1.5,1.44,0,0-1.51a15.92,15.92,0,0,0,4-.71c1.85-.61,2.79-1.55,2.81-2.82,0-1-.64-1.68-2-2.18a27.7,27.7,0,0,0-4.73-1l.06-2.87a3,3,0,0,1,2,.54,1.65,1.65,0,0,1,.42,1l3.92-.09q0-1.81-2.55-2.55a12.55,12.55,0,0,0-3.78-.52v-1"/></g><g id="_Group_23" data-name="&lt;Group&gt;"><path id="_Compound_Path_47" data-name="&lt;Compound Path&gt;" class="cls-8" d="M243.48,124.19c-15.16.35-27.57,6.83-27.7,14.49s12,13.57,27.19,13.22,27.56-6.84,27.7-14.49-12-13.57-27.19-13.22"/><path id="_Path_108" data-name="&lt;Path&gt;" class="cls-8" d="M215.78,138.68V134.3l54.87-2.05.06,5.77-16.08,10.72-16.35.54a129.46,129.46,0,0,1-12.87-3.49c-5.36-1.87-6.84-4.15-6.84-4.15s-1.07-.94-1.74-1.48A4.11,4.11,0,0,1,215.78,138.68Z"/><path id="_Compound_Path_48" data-name="&lt;Compound Path&gt;" class="cls-6" d="M243,144.3c-11.63.27-21-4.28-20.87-10.15s9.62-10.85,21.26-11.12,21,4.28,20.87,10.15S254.67,144,243,144.3m.45-24.49c-15.16.35-27.57,6.84-27.7,14.49s12,13.57,27.19,13.22,27.56-6.84,27.7-14.49-12-13.57-27.19-13.22"/><path id="_Path_109" data-name="&lt;Path&gt;" class="cls-9" d="M244,134.38l-.05,2.94a6.3,6.3,0,0,0,1.7-.31,1.29,1.29,0,0,0,.95-1.21c0-.44-.28-.77-.85-1a9.48,9.48,0,0,0-1.75-.41"/><path id="_Path_110" data-name="&lt;Path&gt;" class="cls-9" d="M242.65,129.49a4.4,4.4,0,0,0-1.94.4,1.07,1.07,0,0,0-.64.92c0,.43.3.75.92,1a8.16,8.16,0,0,0,1.61.34l.05-2.64"/><path id="_Path_111" data-name="&lt;Path&gt;" class="cls-9" d="M242.5,137.38l.06-3.21-1.2-.16a10.24,10.24,0,0,1-4-1.08,2.06,2.06,0,0,1-1.14-1.79,2.1,2.1,0,0,1,.48-1.28,3.85,3.85,0,0,1,1.29-1,8.08,8.08,0,0,1,2.37-.8,22.06,22.06,0,0,1,2.32-.24v-1l1.45,0,0,1a12.62,12.62,0,0,1,3.79.52q2.49.75,2.55,2.55l-3.92.09a1.63,1.63,0,0,0-.43-1,3,3,0,0,0-2-.54l-.05,2.87a30.16,30.16,0,0,1,4.73,1c1.33.5,2,1.23,2,2.18,0,1.27-1,2.21-2.81,2.82a15.49,15.49,0,0,1-4,.71l0,1.52-1.45,0,0-1.5a18,18,0,0,1-4.37-.54c-1.69-.54-2.51-1.51-2.45-2.9l4-.09a2.31,2.31,0,0,0,.56,1.26,4.05,4.05,0,0,0,2.27.6"/><path id="_Path_112" data-name="&lt;Path&gt;" class="cls-9" d="M243.42,123c-11.64.27-21.15,5.25-21.26,11.12S231.4,144.57,243,144.3s21.15-5.25,21.26-11.12-9.24-10.42-20.87-10.15"/><path id="_Path_113" data-name="&lt;Path&gt;" class="cls-8" d="M243.42,124.55c11.06-.26,20.05,3.84,20.82,9.29a4.89,4.89,0,0,0,.05-.66c.11-5.87-9.24-10.42-20.87-10.15s-21.15,5.25-21.26,11.12a4.91,4.91,0,0,0,.05.86C223,129.43,232.22,124.81,243.42,124.55Z"/><path id="_Compound_Path_49" data-name="&lt;Compound Path&gt;" class="cls-6" d="M244,137.32l.05-2.94a9.48,9.48,0,0,1,1.75.41c.57.24.86.57.85,1a1.29,1.29,0,0,1-.95,1.21,6.3,6.3,0,0,1-1.7.31m-1.35-5.19a8.16,8.16,0,0,1-1.61-.34c-.62-.23-.93-.55-.92-1a1.07,1.07,0,0,1,.64-.92,4.4,4.4,0,0,1,1.94-.4l-.05,2.64m1.54-5.35-1.45,0v1a22.06,22.06,0,0,0-2.32.24,8.08,8.08,0,0,0-2.37.8,3.85,3.85,0,0,0-1.29,1,2.1,2.1,0,0,0-.48,1.28,2.06,2.06,0,0,0,1.14,1.79,10.24,10.24,0,0,0,4,1.08l1.2.16-.06,3.21a4.05,4.05,0,0,1-2.27-.6,2.31,2.31,0,0,1-.56-1.26l-4,.09c-.06,1.39.76,2.36,2.45,2.9a18,18,0,0,0,4.37.54l0,1.5,1.45,0,0-1.52a15.49,15.49,0,0,0,4-.71c1.85-.61,2.78-1.55,2.81-2.82,0-.95-.64-1.68-2-2.18a30.16,30.16,0,0,0-4.73-1l.05-2.87a3,3,0,0,1,2,.54,1.63,1.63,0,0,1,.43,1l3.92-.09q-.06-1.8-2.55-2.55a12.62,12.62,0,0,0-3.79-.52l0-1"/></g><path class="cls-10" d="M199.16,91.74a1.46,1.46,0,0,0-1.08-.42h-8a16.38,16.38,0,0,0-3-6.78h11a1.44,1.44,0,0,0,1.5-1.5v-4.8a1.45,1.45,0,0,0-1.5-1.51H158.85a1.45,1.45,0,0,0-1.5,1.51v6.25a1.47,1.47,0,0,0,.44,1.06,1.44,1.44,0,0,0,1.06.45h6.82q9.93,0,12.61,5.31H158.85a1.45,1.45,0,0,0-1.5,1.51v4.8a1.44,1.44,0,0,0,1.5,1.5h20.09a9.2,9.2,0,0,1-4.83,5.88,21.17,21.17,0,0,1-10,2h-5.27a1.44,1.44,0,0,0-1.06.45,1.47,1.47,0,0,0-.44,1.06v6a1.42,1.42,0,0,0,.42,1q9,9.6,23.42,26.86a1.42,1.42,0,0,0,1.18.56h9.17a1.37,1.37,0,0,0,1.37-.85,1.28,1.28,0,0,0-.19-1.59Q179,123.67,171.13,115.3a23.79,23.79,0,0,0,13-5.17,17.59,17.59,0,0,0,6.07-11h7.9a1.45,1.45,0,0,0,1.51-1.5v-4.8A1.47,1.47,0,0,0,199.16,91.74Z"/></g></g></svg>