<svg xmlns="http://www.w3.org/2000/svg" viewBox="0 0 180.21 273.45"><defs><style>.cls-1{fill:#3189c6;}.cls-2{fill:#1d6bab;}.cls-3{fill:#2f7eb3;}.cls-4{fill:#1d7dbd;}.cls-5{fill:#3d8fcd;}.cls-6{fill:#70582e;}.cls-7{fill:#303d45;}.cls-8{fill:#e6d6b8;}.cls-9{fill:#4091cc;}.cls-10{fill:#e9e7ed;}.cls-11{fill:#328cc9;}.cls-12{fill:#7f9fbe;}.cls-13{fill:#141415;}.cls-14{fill:#e8decf;}.cls-15{fill:#bdbab5;}.cls-16{fill:#bdb9b5;}.cls-17{fill:#1c7cbc;}.cls-18{fill:#7c9dbd;}.cls-19{fill:#c0bdb9;}.cls-20{fill:#a58969;}.cls-21{fill:#bb9e7e;}.cls-22{fill:#db803a;}.cls-23{fill:#bac0c7;}.cls-24{fill:#3488c0;}.cls-25{fill:#c77d52;}.cls-26{fill:#dacfbf;}.cls-27{fill:#7d9dbd;}.cls-28{fill:#3d668e;}.cls-29{fill:#634e2b;}.cls-30{fill:#5281ab;}.cls-31{fill:#7a99b8;}.cls-32{fill:#b8ad9a;}.cls-33{fill:#3478af;}.cls-34{fill:#b8ad99;}.cls-35{fill:#c1804e;}.cls-36{fill:#73a5d4;}.cls-37{fill:#bfb9af;}.cls-38{fill:#2f4e65;}.cls-39{fill:#a6c4e6;}.cls-40{fill:#dccaae;}.cls-41{fill:#5482ab;}.cls-42{fill:#6fa3d3;}.cls-43{fill:#7998b7;}.cls-44{fill:#613c28;}.cls-45{fill:#3489c2;}.cls-46{fill:#378ac3;}.cls-47{fill:#bab9b6;}.cls-48{fill:#3380b9;}.cls-49{fill:#b2c3d7;}.cls-50{fill:#24649b;}.cls-51{fill:#db7f39;}.cls-52{fill:#b28379;}.cls-53{fill:#ac817d;}.cls-54{fill:#b58478;}.cls-55{fill:#1f5488;}.cls-56{fill:#121a2c;}.cls-57{fill:#b2a498;}.cls-58{fill:#1f2433;}.cls-59{fill:#ccc4b9;}.cls-60{fill:#729ec8;}.cls-61{fill:#1b7aba;}.cls-62{fill:#ca8b5d;}.cls-63{fill:#3580b4;}.cls-64{fill:#5584ae;}.cls-65{fill:#4d718d;}.cls-66{fill:#99817b;}.cls-67{fill:#b1c1d6;}.cls-68{fill:#1a1e2e;}.cls-69{fill:#2b6ca8;}.cls-70{fill:#366da6;}.cls-71{fill:#abbeda;}.cls-72{fill:#282d26;}.cls-73{fill:#3f4036;}.cls-74{fill:#3d3e34;}.cls-75{fill:#bdc0c2;}.cls-76{fill:#a29b5a;}.cls-77{fill:#bec1c3;}.cls-78{fill:#babdbf;}.cls-79{fill:#b9bcbe;}.cls-80{fill:#b6b9bb;}.cls-81{fill:#99a3ab;}.cls-82{fill:#bcbfc1;}.cls-83{fill:#bbbec0;}.cls-84{fill:#899198;}.cls-85{fill:#b3b7ba;}.cls-86{fill:#5f666c;}.cls-87{fill:#5a6264;}.cls-88{fill:#bbbdbf;}.cls-89{fill:#aaacb0;}.cls-90{fill:#b7b9bc;}.cls-91{fill:#a9abad;}.cls-92{fill:#6b7277;}.cls-93{fill:#b1b4b6;}.cls-94{fill:#a1a2a3;}.cls-95{fill:#b2b6ba;}.cls-96{fill:#98a1aa;}.cls-97{fill:#b8bbbd;}.cls-98{fill:#82898f;}.cls-99{fill:#b4b6b8;}</style></defs><title>Asset 2</title><g id="Layer_2" data-name="Layer 2"><g id="Layer_1-2" data-name="Layer 1"><path class="cls-1" d="M120.61,135.3c1.49,4.06,2.93,8.12,2.15,12.58a9.5,9.5,0,0,1-2.3,4.94,9.56,9.56,0,0,0-2,10c3.16,9.45,4.31,18.89,1.57,28.71-1.35,4.85.76,9.13,3.75,12.95-1,1.16-2.34,1.1-3.59.85-8.57-1.7-14.26,2.4-18.69,9.12a4.37,4.37,0,0,1-1.05,1.22c-2.6-.26-3.2-1.83-2.73-4.12-4.34-9.79-6.32-20.22-8.39-30.62a1.89,1.89,0,0,0,0-1.56c-.58-2.39.46-2.46,2.19-1.52,1.86,2.93,4.92,5.14,4.79,9.25,0,1.36,1.86,2.35,3.28,1.4,2.22-1.47,4.76-1.12,6.78-1.82-1.73-3.16-6-5-5.57-9.86.14-1.9-1.29-3.63-2.13-5.39s-1.31-3.23-.11-4.9c1.44-2.12,3.66-2.84,6.09-3.14-2.72-.47-5.29-.36-7.57,1.27a3.25,3.25,0,0,1-1.5.62,110.65,110.65,0,0,1-20.83.08c-1.4-.12-2.91-1-2.75-2.69s1.83-1.63,3.09-1.71a39.52,39.52,0,0,0,12.94-3.14c2.18-.92,4.5-.61,6.79-1.05-4.78-3.75-3-4-9-2.22-5.57,1.67-11.18,2.59-17.06,1.55-4.49-.79-4.83-.39-6.2,3.84a9.41,9.41,0,0,1-1.54,2.86,3.07,3.07,0,0,0-.38,3.32c1.16,3,.49,5-2.42,6.47-2.61,1.32-5,3-7.83,4a5.13,5.13,0,0,0-3.27,6.68c.59,1.62-.77,4,1.67,4.88,3.5,1.31,6.72,3.7,10.86,2.44,1.78-.54,3.74-1.55,5.51.2-.69,2.62-3,3-5.07,3.36-6,1.09-11.5.2-15.59-4.93-2.48-5.11-6.31-9.72-6-15.89-2.12-4.37-.55-8.16,1.8-11.85,3.62-6.33,5.9-13.27,9.06-19.8,2.74-5.65,7.25-10,11.51-14.44,1.75-1.83,4.12-1.67,6.43-1.19a61,61,0,0,1,6.41,3.84c1,.63,2.16,1.39,1.93,2.76-.24,1.52-1.69,1.43-2.84,1.61-.42.07-.87.05-1.19.46.08.86.88.89,1.42,1,10.21,1.85,19.87,6.22,30.41,6.66a74.79,74.79,0,0,0,11.69,0c2.17-.24,3.68-1.1,3.36-3.75A2.7,2.7,0,0,1,120.61,135.3Z"/><path class="cls-2" d="M153.19,71.59c1.94,7.37.36,13.78-4.85,19.46-4,4.33-8.7,7.81-12.81,12a10.27,10.27,0,0,0-3.24,6.16,9.41,9.41,0,0,1-4.36,6.6c-3,2-3.72,4.53-3.5,7.73-2.66.91-4-1.29-5.42-2.65a138.47,138.47,0,0,0-12.91-11.42,3.12,3.12,0,0,1-.39-2.92,11.87,11.87,0,0,0,1.65-10.13c-.46-1.78-.48-3.2,1-4.37,1.31-1,1.63-2.5,2-4a99.43,99.43,0,0,1,5.07-15.76c2.3-5.11,1.66-9.69-2.67-13.56a6.66,6.66,0,0,1-2.29-3.1c1.64-4.78,5.78-5.41,9.95-6,2,.72,4.08.32,6.1.71C139.17,52.77,147.44,60.59,153.19,71.59Z"/><path class="cls-3" d="M91.22,178.37c-.57-.05-1.68-1.34-1.38.6a2,2,0,0,1-.47,2A63,63,0,0,0,84,169.19c-1.16-2-2.6-2.31-4.59-1.65a8.36,8.36,0,0,0-5.64,5.4,73.87,73.87,0,0,0-3.6,14.42c-.81,2.41-2.17,4-5,3.41a11.52,11.52,0,0,0-5.09.89c-5.15,1.8-9-1.68-13.31-3.28-.09,0-.14-.16-.23-.22-2.15-1.47,1.33-3.17-.19-4.64-1.23-1.2-1.62-1.93-.4-3.87a10.6,10.6,0,0,1,6.28-4.93,31.34,31.34,0,0,0,6.41-3.43c2.39-1.49,2.59-3.48.61-5.27-1.12-1-1.07-1.43-.07-2.51,1.52-1.64,2.92-3.34,2.8-6-.1-2,1.47-3.22,3.52-2.83,8.34,1.61,16.37.45,24.25-2.42,1.28-.47,2.66-.94,3.06,1.36.27,1.58,2.23,1,3.29,1.67.62.4,1.49.64,1.35,1.6a1.4,1.4,0,0,1-1.72,1.14c-6-.89-11,2.95-16.68,3.64-1.73.21-3.45.22-5.17.34-.57,0-1.18.15-1.17.82,0,.33.41.74.74,1a5.58,5.58,0,0,0,3.42.81c5.44,0,10.87,0,16.31,0,1.34,0,2.75,0,3.69-1,2.66-2.67,5.93-1.42,9-1.57.88,0,1.89.51,1.77,1.5-.08.74-1.13,1-1.88,1a7.7,7.7,0,0,0-6.64,2.68,14.19,14.19,0,0,1-5.4,2.88c-1.92.47-2.71,1.31-1.62,3.46C92.84,175.14,93.9,177.21,91.22,178.37Z"/><path class="cls-4" d="M63,112.27c4.57-1.06,6.82-4.19,7.41-8.6a8.78,8.78,0,0,1,3.22-6.12,6.54,6.54,0,0,0,2.72-4.28c.48-4,2.32-7.38,4.08-10.85,1-5.14,4.37-8.91,7.5-12.82a3.64,3.64,0,0,0,1.19-2.19c4.08-1.66,7.46-4.63,11.6-6.19,1.28-.48,2.5-1.41,4-.49a9.33,9.33,0,0,1,2,9.7c-2.3,7-4.5,14-4.76,21.55-.11,3.33-2.34,5.83-5.15,7.52a39.32,39.32,0,0,0-11.63,9.8c-1.64,2.17-3.86,2.85-6.54,3-4.47.17-8.87.84-12.75,3.36-1.25.66-2.4,0-3.59-.27C60.19,113.75,62.83,113.31,63,112.27Z"/><path class="cls-5" d="M104.24,60.78c-3.83,1.85-8.1,2.94-11.09,6.27-1.13,1.25-2.79-.46-3.87.79a2.42,2.42,0,0,1-1.56,1.51,5.81,5.81,0,0,1-6.29-1.6c-2.37-3.11-3.36-6.43-1.52-10.18a7.81,7.81,0,0,0-4.23-6.12,4.16,4.16,0,0,1-2-4.74c.43-2,2.17-2.11,3.83-2.17.53.7,1.11.24,1.72.13,1.58-.27,3.32-.67,4.69.32,2.31,1.67,4.61,2.45,7.41,1.42,1.87-.68,1.75,1.49,2.74,2.08,3.13.15,3.45-2.52,4.5-4.45,4.23-1.29,7.35-4.81,11.85-5.67a9.8,9.8,0,0,1,6.47,1.08A65.42,65.42,0,0,1,124,43.94c.95.63,1.91,1.61,3.2.57a3.8,3.8,0,0,1,1.49-.32,11.46,11.46,0,0,1,3.15,0,18,18,0,0,1,5.34.07c2.8.47,4.81,2.35,6.81,4.11,2.41,2.1,5.17,3.87,6.95,6.64,1.4,2.19,1.72,4.38-.09,6.53-1.48.52-2.19-.61-2.94-1.47-3.79-4.32-8.85-6.84-13.62-9.79-.64-.39-1.42-.91-2.12-.55-3.71,1.9-7.63.19-11.41.77-4,.42-7.47,1.8-10,5.13-.17,1.47-1.38,2.22-2.24,3.22C107.33,59.84,106.11,61,104.24,60.78Z"/><path class="cls-6" d="M137.9,224.75c2.2,3.49,4.94,6.74,5,11.18A30.94,30.94,0,0,0,146,241.8c7,4.31,9.38,10.7,8.3,18.59-.5,3.6-2.18,6.44-6,7.18A10.55,10.55,0,0,1,137.71,264c-2.74-3.17-2.9-7.11-2.78-11.06.73-5-1.77-8.25-5.87-10.51a11.6,11.6,0,0,1-5.83-7,3.33,3.33,0,0,1-.23-1,13.4,13.4,0,0,1,2.07-9.54,8.15,8.15,0,0,1,7.49-3A13.18,13.18,0,0,1,137.9,224.75Z"/><path class="cls-7" d="M142.15,21.1c5-4.73,10.83-7.33,17.76-5.58,7.08,1.8,10.77,6.91,12.13,13.87a10.41,10.41,0,0,1-.4,5.47c-1.9,5.51-4.59,10.52-9.25,14.24a3.1,3.1,0,0,1-3.91-.21c-6-4.59-12.22-8.92-17-14.92a6.54,6.54,0,0,1-1.83-3.72,1.8,1.8,0,0,1,.33-1.2C142.29,26.81,142.29,24,142.15,21.1Z"/><path class="cls-8" d="M44.05,60.7Q23.65,39.17,3.25,17.63A12.6,12.6,0,0,1,3.75.23C8.51,1.38,12,4.5,15.19,7.9,23,16.2,30.68,24.56,37.49,33.69,38.4,34.92,39.94,36,39.14,38c-1.88.62-2.69-1-3.77-1.9C32.61,33.7,31.43,34,30.5,37.51c-.56,2.09-1.07,4.42.58,6.17,4.43,4.72,8.27,10,13.47,14,.8.81,1.74,1.64,1.05,2.92C45.24,61.28,44.6,61.2,44.05,60.7Z"/><path class="cls-9" d="M62.49,115c1.27-1.38,1.8.08,2.56.67a3.16,3.16,0,0,1,1.58,1.52A25.23,25.23,0,0,0,69.68,121a26.88,26.88,0,0,0,4.81,2.81c12.24,7,25.63,8.11,39.31,7.84a36.6,36.6,0,0,1,3.77-.46c1.67.2,3.05.68,2.5,2.84l.54,1.31c-.65,1.31-1.39,2.46-.79,4.18.7,2-.31,3.2-2.49,3.65-6.49,1.35-12.94.52-19.37-.33a62.46,62.46,0,0,1-16.55-4.17c-2.92-1.24-6.29-1.49-9.49-2-1.59-.23-2.4-.73-2.22-2.43.21-2,1.46-1.29,2.62-1.08.92.17,2.31.59,2.68-.35.57-1.43-1.13-1.51-1.93-2.05-2.06-1.4-4.16-2.73-6.24-4.09-1.15-1-3-.6-4-1.88a33.5,33.5,0,0,1-2.14-5C60.07,117.78,60.08,115.89,62.49,115Z"/><path class="cls-10" d="M44.05,60.7c1.66-.77,1.62-1-.56-2.59-1.38-2.3-.91-4.19,1.25-5.71,2-.79,4.11-1.52,6.24-.22,4.15.2,7.87,1,11.05,4.27,1.65,1.71,4.1,3.95,7.35,2.37a2,2,0,0,1,2.35.71c.76,1.47-.49,2.15-1.23,3a16.88,16.88,0,0,0-3.07,6c-.84,2.32.78,3.85,1.61,5.65a3.62,3.62,0,0,1-.1,2.53c-1.09,1.7-2.67,1.48-4.22.94a8,8,0,0,0-3-.83,3.17,3.17,0,0,1-1-.16c-5.31-2.86-5.31-2.86-9.36,1.75a7.59,7.59,0,0,1-6.57-5,17.46,17.46,0,0,0-2.68-4.48C39.26,65.23,39.77,62.85,44.05,60.7Z"/><path class="cls-11" d="M69.15,198.62A279.74,279.74,0,0,1,67.84,232c0,2.33-1.85,3-3.5,3.64-4.64,1.82-9,.85-13.28-1.38a20.52,20.52,0,0,1-2.85-13c2.63-1.75,3.92-1.74,5.31.63a3.12,3.12,0,0,0,4.11,1.55c2-.7,4.17-1.48,4.87-3.82a1.91,1.91,0,0,0-1.25-2.37c-2.84-1.26-2.56-3.41-1.55-5.71a14.81,14.81,0,0,0,1.49-3.59c.43-2.65-.71-3.7-3.29-3a9.32,9.32,0,0,0-7.26,7.88c-.27,1.5-.51,3-1.92,4a1.15,1.15,0,0,1-1.49,0c-1.42-5.39-2.69-10.78-.68-16.31,2.52-1.82,5.48-.79,8.21-1.25,3.54-.6,7.12-.71,10.67-1.16C66.68,197.84,68.06,197.56,69.15,198.62Z"/><path class="cls-11" d="M133,222.85a9,9,0,0,0-7.11,2.29,32.72,32.72,0,0,1-8.64,6c-6.37-1.59-12.08-8.2-12.54-14.52a7.6,7.6,0,0,1,4.33-5.74,42.68,42.68,0,0,1,14.25-4.19,3.94,3.94,0,0,1,3.08.69l7.87,10.16c1.5,2,3,3.88,3.4,6.43C136,224,134.65,222.81,133,222.85Z"/><path class="cls-12" d="M41.49,162c-2.55,3.4-3.71,7-2,11.19-1.8,2.58-.5,5.06.23,7.56.4,1.36,1.57,2.67.36,4.18,1.37,7.5,1,15.1,1.44,22.65.09,1.49-.27,2.92-.27,4.36-.3-7.31.59-14.63-.62-21.92a17.25,17.25,0,0,1-.45-5.12c2.62,0,2.8,2.14,3.12,3.82a116.35,116.35,0,0,1,1.88,13.8c.69,10.42,1.66,20.78,3.06,31.12-.11,1.4-.19,2.81-1.57,3.66a66.71,66.71,0,0,0-3.48-8.71c-3.76-8.1-4.15-16.81-4.28-25.51-.1-7,.14-13.93-1.29-20.79A14.79,14.79,0,0,0,35.93,177c-3.31-4.85-3.66-10.09-2.71-15.61,1.8.41,1.58,1.9,1.48,3.11a10.07,10.07,0,0,0,1.61,6.18,6.27,6.27,0,0,1,.48,2.49,44.57,44.57,0,0,1-1.46-10.62,15.14,15.14,0,0,1,2.06-7.67A26.23,26.23,0,0,1,41.17,150c1-.93,2.43-2,4-.7.8,1.47-.1,2.68-.51,4C43.78,156.23,41.62,158.72,41.49,162Z"/><path class="cls-13" d="M140.17,29.89c2.36,5.37,7.06,8.6,11.27,12.26,2.27,2,4.72,3.75,7.08,5.62a5.35,5.35,0,0,0,3.87,1.33c-2.52,3.15-5.38,5.81-9.57,6.5-3.08-.84-4.58-3.7-6.86-5.54-2.79-2.24-5.52-4.41-8.88-5.69-1.83-2.25-.59-4.71-.49-7.09a13,13,0,0,1,.13-3.73C137.26,31.75,137.84,30,140.17,29.89Z"/><path class="cls-14" d="M39,38c-1.68-4.2-5.14-7.12-7.75-10.64C26.19,20.61,20,14.88,14.44,8.51,11.43,5,7.44,2.83,3.75.23,7.86-.84,10.68,2,13.33,4A121.4,121.4,0,0,1,49.39,47.75c-1.24,1.26-2.56.65-3.88.16C42.7,45,39.44,42.45,39,38Z"/><path class="cls-15" d="M46.69,237.25a6.11,6.11,0,0,1,.81-3.37c1.34-1.51,2.74-.58,4.13-.12,3.55.74,6.92,2.57,10.76,1.46,2.12-.61,4.14-1.29,5.45-3.22,1.94-1.38,3-.71,2.93,1.5-.06,2.9,1.52,5.88-.39,8.7a3.58,3.58,0,0,1-3,2.15c-4.47.63-8.89,1.73-13.46,1.5-4.33-.6-6.38-3.35-7-7.45Z"/><path class="cls-16" d="M69.15,198.62c-7.39,1.1-14.78,2.23-22.29,2a2,2,0,0,1-1.71-.78c-1.59-2.09-1.7-8.7-.2-11.16,3.38,2.93,6.94,5.27,11.78,4.88a15.53,15.53,0,0,0,8.42-2.78c2.08-.53,3.29-2.36,5-3.41C70.86,191.21,71.32,195,69.15,198.62Z"/><path class="cls-17" d="M120.07,134a2.26,2.26,0,0,0-2.71-2c-2.76-1.48-3.91-4.31-5.51-6.73-2.52-3.81-4.71-7.83-5.49-12.43-.22-1.28-.58-2.6.55-3.68,6.21,3.41,10.15,9.47,15.82,13.51a12.35,12.35,0,0,0,1.7.87C124.46,127.62,122.34,130.84,120.07,134Z"/><path class="cls-18" d="M105.47,216.83c1.1,7.07,6,10.89,11.91,13.79,1.7,0,3.23.9,4.93,1,2.43.21.46,2.61,1.61,3.52l0-.06c.4,3.15,2.47,5.12,4.85,6.9,1.47,1.08,3.09,2.08,3.34,4.16a2.23,2.23,0,0,1-1.78,2.14c-1.28,0-2.73.41-3.6-.85-2.87-4.14-7.53-6-11.27-9-.48-.39-.91-.87-1.36-1.31.15-1.92,1.54-.94,2.41-1a8.64,8.64,0,0,1,4.4,1.64c-4.54-1.61-9.13-3.14-12.72-6.53h0c.09-1.77,1.47-1.36,2.53-1.49.43,0,.67-.26.25-.17,0,0-.06-.17-.12-.28-3.28-2.83-6.31-5.87-9.28-9-1.09-1.13-2.42-2.23-2-4.13a1.08,1.08,0,0,1,.79-.34A29.85,29.85,0,0,1,105.47,216.83Z"/><path class="cls-19" d="M105.47,216.83c-1.88,1.35-3.51.67-5.07-.61-.38-.21-.42-.47-.11-.78,1.45-6,9.83-13,18.72-11.38,1.58.28,3.21.3,4.81.44,2.77,1.34,5-.39,7.34-1.34.79-.32,1.8-1.47,2.47-.16.53,1-.19,2.19-1,2.87-1.81,1.43-4.15.95-6.22,1.51a55.35,55.35,0,0,0-15,3.55C108.43,212,106.26,213.7,105.47,216.83Z"/><path class="cls-20" d="M68.43,76.46,68.21,74c-.07-.31-.16-.74.08-.91,4.14-3,8.32-6,13.78-5.83,1.62,1.6,3.67,1.46,5.7,1.37,0,.73.48,1,1,1.37-3.52,3.63-5.58,8.24-8.32,12.39-1.23-1.18-2.51-2.31-3.68-3.55-1.93-2.07-4.09-2.5-6.59-1.16C69.11,78,68.74,77.27,68.43,76.46Z"/><path class="cls-21" d="M82.07,67.29C77.27,69.16,72.44,71,68.21,74c-2.95-3-2.25-8.6,1.47-12.19.73-.71,2-1,2-2.31l8.18-2C80.43,60.86,79.75,64.41,82.07,67.29Z"/><path class="cls-22" d="M120.8,50.45a21.37,21.37,0,0,1,6.7-.89c1.36-.05,3.29,1.23,3.84-1.45.13-.67,1.13-.24,1.65.1,6.2,4,13.23,7,17.57,13.51,1.41.36,1.07,1.62,1.32,2.58.26,2.46,1.47,4.76,1.31,7.29-2.76-2-4.14-5.24-6.3-7.79-6.58-7.76-14.54-12.63-25-12.86A3.47,3.47,0,0,1,120.8,50.45Z"/><path class="cls-23" d="M140.17,29.89a8.32,8.32,0,0,0-2.7,3.45c-.53,1.77-2.32,2.17-3.49,3.24-2.3,1-.4,2.41-.43,3.64A2,2,0,0,1,132.23,42c-1.8.34-2.43,2-3.63,3.08l-1.45.15a.88.88,0,0,1-.74-.78c.92-4,3.56-7.24,4.78-10.89,1.33-4,4.82-6.7,5.19-11.06.24-2.77,2.28-3.15,5.77-1.37C144.36,25,144.18,25.8,140.17,29.89Z"/><path class="cls-24" d="M53.37,244.88c5.72-.59,11.54-.52,17-2.68a21.12,21.12,0,0,1,4.16,9.63c.33,1.76,0,3-2.19,2.88s-1.48-2.2-2.12-3.36a5.61,5.61,0,0,0-1.16-3c-2.06-2.58-4.66-2.72-6.83-.26-2.35,2.65-4.35,5.61-7,8l-3.69.44c.15-3.51,1-7,.62-10.52A1,1,0,0,1,53.37,244.88Z"/><path class="cls-25" d="M41.49,162c-1.15-1.82.44-3.18.86-4.71.72-2.55,1.71-5,2.59-7.54.3-.48,0-1,.17-1.53s.71-.77,1-1.18c3.22-6.6,5-13.73,7.21-20.67.36-1.11.85-2.17,1.28-3.26,1.34-.61,1.33.59,1.5,1.26a9.52,9.52,0,0,1,0,4.38c1.95-1.92,3.46-4.8,7.08-4.08a3.22,3.22,0,0,1,3.66,2c-2.88-.48-4.87.78-6.77,2.89-6,6.65-11.36,13.57-14,22.37C45,155.41,43.05,158.62,41.49,162Z"/><path class="cls-26" d="M55.21,256.08c1.47-4.25,4.82-7.17,7.82-10.17,2.5-2.51,6.93.35,8,4.91-1.23.93-2.74.26-4,.7s-2.57.86-2.25,2.59,1.6,1.79,3,1.4A6.37,6.37,0,0,1,73,256c.81.35,1.47.79,1,1.85a2.68,2.68,0,0,1-2.49,1.19A17.55,17.55,0,0,0,61,263.22a2.23,2.23,0,0,1-2.35.64c-.89-.37-.8-1.15-.79-1.9.27-1.67,1.6-2.48,2.82-3.35s1.64-1.82.79-3-2.05-.62-3.1,0-1.48,1.95-2.92,1.72C55.36,256.92,55.28,256.5,55.21,256.08Z"/><path class="cls-27" d="M53.37,244.88c-1,.84-.3,1.77-.19,2.7.38,3.14.4,6.24-1.66,8.94-.75.94-1.51,2-2.92,1.39s-1-1.77-1-2.8q-.37-8.36-.71-16.71C48.7,240.92,49.46,244.48,53.37,244.88Z"/><path class="cls-1" d="M63.17,124.62c-3.41,1.14-5.72,3.71-8.31,6.87-.14-3.21,1.41-5.92-.23-8.43,1.87-4.31,3.82-8.58,8.39-10.79,1.38,1.21-2.1,1.47-.53,2.72-1.58,1.86-1.56,3.75-.39,5.86C62.71,122,63.92,123.06,63.17,124.62Z"/><path class="cls-28" d="M51.38,78.34a3.61,3.61,0,0,1,.79-2.75c1.73-3,3.89-3.35,6.57-1.19.58.47,1.22.87,1.82,1.31.59,1.17-.31,1.79-1,2.47-2.81,3-2.81,3,0,6.28a1,1,0,0,1,.25,1.17C55.06,87,51.58,84,51.38,78.34Z"/><path class="cls-29" d="M58.63,263.86c4.2-4.44,9.53-6,15.44-6,.74,2.58-.31,4.17-2.77,4.94-2.68.82-5.34,1.75-8.07,2.33C61.63,265.47,59.72,265.85,58.63,263.86Z"/><path class="cls-30" d="M111.43,229.38l1.35.94c-1.51.77-3.33-.37-4.61,1-4.45-3.36-8.93-6.69-12.28-11.26a5.48,5.48,0,0,1-1.34-2.51,5,5,0,0,0,.06-.95c.06-1.74,1-3,2.68-3s1.64,1.66,1.79,2.93c0,2.49,1.19,4.28,3,5.85C105.05,224.91,108.42,226.9,111.43,229.38Z"/><path class="cls-31" d="M46.14,147l-.53,1.19c-6.52,1.59-9.08,7.1-9.59,13.39-.26,3.2.74,6.43-.29,9.6a7.7,7.7,0,0,1-2-6c0-1.26.4-2.62-.5-3.78C33.72,153,38.6,147.59,46.14,147Z"/><path class="cls-32" d="M73,256c-2,0-4.1-.09-6,.81-1.42.67-2.49.55-3-1.11s-1.61-3.32.59-4.49a6.78,6.78,0,0,1,6.48-.4c1,1.09-.08,2.9,1.27,3.89Z"/><path class="cls-33" d="M151.88,64.3l-1.32-2.58c1.77-4.63-.78-7.39-4.07-10.07-2.92-2.36-5.53-5.11-9.07-6.6a.39.39,0,0,1,.23-.53c6.79,1.31,10.55,6.79,15.17,11.08C154,58.66,152.75,61.46,151.88,64.3Z"/><path class="cls-34" d="M55.43,257.33a18.11,18.11,0,0,1,2.63-2.82c1.42-1,3.19-2,4.4.28,1,1.82,1.52,3.63-1.26,4.7A16,16,0,0,0,57.84,262C57.09,260.39,55.49,259.26,55.43,257.33Z"/><path class="cls-35" d="M68.43,76.46l1.75,1.25,2.43,4.11a16.94,16.94,0,0,1-4.85,2.46L63,78.45c-.74-.76-2.37-.9-1.79-2.58a7.16,7.16,0,0,1,4,.79A2.54,2.54,0,0,0,68.43,76.46Z"/><path class="cls-36" d="M126.41,44.42l.74.78c-1.33,2-2.28,0-3.14-.46-3.6-2.06-6.67-5.11-11-5.76a8.22,8.22,0,0,0-6.17,1.12C104.37,42,101.56,43,99,44.52c-1-.17-1-.76-.6-1.51a29.51,29.51,0,0,0,8.11-3.79,9.87,9.87,0,0,1,11.09-.3C120.58,40.66,123.47,42.58,126.41,44.42Z"/><path class="cls-37" d="M131.65,246.35c-1.49-2.39-3.72-4.11-5.65-6.09a6.14,6.14,0,0,1-2.1-5.13c1.21,3.25,3.49,5.34,6.54,7.08,5.17,3,6.4,6.51,4.49,10.75-.82-1-.35-2.48-1.36-3.38S131.39,248,131.65,246.35Z"/><path class="cls-38" d="M61.23,75.87,63,78.45a3.18,3.18,0,0,0-2.35.91c-1.3,1.19-2.48,2.1-.05,3.55,1.83,1.1,1.31,2.28-.72,2.72-.61-.42-1.19-.86-1.81-1.25-2.73-1.73-2.91-3.78-.5-5.89,1-.9,2.47-1.33,3-2.78Z"/><path class="cls-39" d="M98.38,43c.2.5.4,1,.61,1.5-.06,3.73-2.54,5.05-5.67,5.74a6.76,6.76,0,0,1-.14-5C94.88,44.39,96.4,43.17,98.38,43Z"/><path class="cls-40" d="M45.42,47.11l4,.64C50.53,49,50.72,50.6,51,52.18L44.84,53C43.34,50.85,43.64,48.91,45.42,47.11Z"/><path class="cls-41" d="M108.17,231.28a5.35,5.35,0,0,1,3.26,1.32,15.58,15.58,0,0,0,6.32,3c1.9.43,4.23,1.25,4.14,4.79a7.18,7.18,0,0,0-7.81-3.22A41.3,41.3,0,0,1,108.17,231.28Z"/><path class="cls-42" d="M93.18,45.21c0,1.68.09,3.36.14,5-.66-2.68-2-4.1-4.9-2.65a1.81,1.81,0,0,1-1.55-.17,10.53,10.53,0,0,0-9.44-1.8c-1.22.34.11-.68.08-1.09,3.08-.92,6-1.28,8.85,1C88.5,47.2,90.9,45.56,93.18,45.21Z"/><path class="cls-43" d="M98.4,216.87c-.1-1,.46-2.47-.9-2.71-1-.19-1.71,1-2.22,2-.25.45-.49.92-.73,1.37a7.8,7.8,0,0,1-1-3.4c-.22-1.42-.55-3,.83-3.87s2.25.84,3.38,1.33c.83,1.29,1,3.05,2.53,3.87,0,.26.08.52.11.78l-.69,0C99.43,216.78,99.12,217.26,98.4,216.87Z"/><path class="cls-44" d="M67.76,84.28c.85-2.33,2.36-3.34,4.84-2.47.89,1.72.08,2.87-1.39,3.55S68.51,85.89,67.76,84.28Z"/><path class="cls-45" d="M146,241.8c-3-.93-3.67-3.06-3.07-5.87C144.88,237.39,146.79,238.89,146,241.8Z"/><path class="cls-46" d="M131.65,246.35a9,9,0,0,1,1.92,3.23c-1.25,0-2.47,0-3.26-1.25Z"/><path class="cls-47" d="M133,222.85a4.59,4.59,0,0,1,4.64,1.12l.26.78C136,224.92,134.67,223.39,133,222.85Z"/><path class="cls-48" d="M91.22,178.37c1.43-2.23.52-4.11-1-5.85-.83-1-1.24-1.94.29-2.49,2.81-1,5.67-1.86,8.51-2.77-.85,1.21-.13,2.22.34,3.33,1.24,2.92,3.67,5.54,2.45,9.13-.06.18,0,.59.1.6,3.83.76,3,6.39,7.32,7-2.85-1-4.87,2.09-7.57,1a.89.89,0,0,0-.79.31c-1,3.81-3,.84-4.36.49-1.58-.4-2.73-1.35-1.2-3.32.66-.84-.26-1.9-1-2.54A16.17,16.17,0,0,1,91.22,178.37Z"/><path class="cls-49" d="M45,188.67c0,3.08-.44,6.16.39,9.23a5.66,5.66,0,0,0,1.52,2.71,63.29,63.29,0,0,0,1.26,16.3,3,3,0,0,1,.65,3.89c.58,4.4.85,8.87,2.86,13l-4.13.12a90.52,90.52,0,0,1-2.58-17.6c-.6-9.07-1-18.15-2.67-27.12-.29-1.59-.46-3.24-1.86-4.36-.26-.06-.36-.15-.32-.29s.11-.23.18-.23c-1.65-3.47-3.51-6.87-2.12-11,.5-1.46.87-.65,1.38-.15a18.92,18.92,0,0,0,3.07,10A13.77,13.77,0,0,1,45,188.67Z"/><path class="cls-48" d="M94.06,189.12c.22.11.61.18.75.41a8.8,8.8,0,0,0,4.7,4.18.78.78,0,0,1,.45,1.07,1.24,1.24,0,0,1-.76.48c-1.77.39-6.18-3.5-6-5.23C93.31,189.6,93.41,189.17,94.06,189.12Z"/><path class="cls-17" d="M69,121.55a16.47,16.47,0,0,1-3.15-4A13.83,13.83,0,0,1,76.3,114c5.51.47,9.76-.92,13.25-5.55,3.07-4.06,7.26-7.15,11.63-9.83,2.37-1.45,3.58-3.26,3.33-6.12a31.51,31.51,0,0,1,2.29-13.69c1-2.74,1.85-5.55,2.63-8.38.95-3.46,1.38-6.8-.9-10a2.36,2.36,0,0,1-.33-2.18,6.48,6.48,0,0,1,2.65-2.69c1.49,1.4,3.07,2.73,4.47,4.23,3.63,3.9,3.17,8.41,1.22,12.73a59.85,59.85,0,0,0-5.21,17.31c-.33,2.75-5.67,2.48-2.84,6.27,1.83,2.45-.35,5.14-.27,7.74a2.56,2.56,0,0,1-2,2.64c-2-3.47-2-3.53-5.55-.86q-7.55,5.67-14.66,11.9a10.56,10.56,0,0,1-6.42,2.83C76.07,120.59,72.52,121,69,121.55Z"/><path class="cls-50" d="M69,121.55a7.9,7.9,0,0,1,6-1.94,15.93,15.93,0,0,0,12.86-4.78,119.48,119.48,0,0,1,15.48-12.31c.69-.47,1.22-1.42,2.22-1s.62,1.51.68,2.33,0,1.74,0,2.61-.24,1.92.64,2.63c.39,8.08,4.88,14.33,9.25,20.62.49.71,1.17,1.27,1.2,2.22a4.9,4.9,0,0,1-3.26.63c-.55-.35-1.28-.53-1.63-1.06-4.15-6.28-9.58-11.93-9.91-20.1a2,2,0,0,0-.38-1.22c-.6-.32-1.06,0-1.43.4-4.21,4.25-9.72,6.88-13.86,11.26a8.18,8.18,0,0,1-7.79,2.38,36.25,36.25,0,0,0-5.51-.12C71.71,123.9,70.39,122.66,69,121.55Z"/><path class="cls-51" d="M115.28,109.86c-1.15.06-2.24-.09-2.7-1.33s0-2.2,1.12-3.06c2-1.53,3.62-3.46,6.43-3.35a1.28,1.28,0,0,0,1-.58c1.54-4.39,5.73-5.73,9.12-8,4-2.58,4-2.63.56-5.58-1-.84-2-1.67-3-2.49-2.19-1.75-1.64-3.55,0-5.3,1.78-2,2.94-.65,4.21.76a38.06,38.06,0,0,0,4.87,4.8c2.53,2,2.35,3.86.43,6A74.22,74.22,0,0,1,129.68,99c-3.83,3.31-7.6,6.68-11.39,10C117.49,109.7,117,109.87,115.28,109.86Z"/><path class="cls-52" d="M135,71.89c.8-.43.64-2.06,2-1.7.65.17.6.82.4,1.35s-.47,1-.69,1.46a1,1,0,0,0,.06,1.24c1.44.34,1.09-1.75,2.37-1.75,1.29.83-.53,1.84,0,2.8,1.07-.27,2.2-1.64,3.13-.3,1.14,1.63.87,3.5,0,5.23a4.17,4.17,0,0,1-3.2,2.45c-.24,0-.74-.27-.77-.47-.33-2.14-3.62-3.15-2-5.86-1.45-.52-1.21,1.6-2.41,1.14-1.11-1.54,1.86-2.72.4-4.3C134,72.45,133.86,71.82,135,71.89Z"/><path class="cls-53" d="M143.41,83.66c-.91-.34-1.16,2-2.21.54-.62-.85.19-1.37.72-1.87a9.8,9.8,0,0,0,2-3.31c.3-.69.17-2.07,1.42-1.68s.44,1.43.3,2.22a4.83,4.83,0,0,0,0,.93c.8.24,1.08-1.7,1.66-.62.4.76,1.94,1.37,1,2.71A24.13,24.13,0,0,1,146.65,85c-.81.89-1.09,2.83-2.69,2.3C142,86.64,143.55,84.9,143.41,83.66Z"/><path class="cls-54" d="M135,71.89l-.7,1.29a3.76,3.76,0,0,1-2.45,2.37,2.68,2.68,0,0,1-2.76-.26c-1-.78-.09-1.55.1-2.29.39-1.45.82-2.88,1.3-4.3.32-1,.37-2.38,1.7-2.44,1.49-.06,2.27,1.21,2.64,2.45A13.36,13.36,0,0,1,135,71.89Z"/><path class="cls-55" d="M108.2,58.27c4.37,4.24,3.51,9.2,1.86,14.2-2.49,7.51-5.49,14.9-4.47,23.08.16,1.33-.77,2-1.7,2.54a65,65,0,0,0-17.23,15.16,3.81,3.81,0,0,1-3.06,1.68,41,41,0,0,0-17.76,2.63l-.78-1.9c.08-1.48,1.21-2,2.35-2.38,3.19-1.1,6.53-2.39,9.8-2,4.16.44,6.6-1.56,8.66-4.42a25.68,25.68,0,0,1,8.72-7.18c4.37-2.42,6.7-5.69,6.55-11-.14-5,1.44-9.88,3.25-14.53s2.58-8.92-.15-13.34Z"/><path class="cls-56" d="M88.77,70c-.83-.09-1.72-.14-1-1.37l1.5-.82c.39.15,1.11.29,1.12.46C90.44,69.35,89.5,69.61,88.77,70Z"/><path class="cls-57" d="M137.65,44.52a5,5,0,0,0-.23.53L131.86,45c-1.2-1.12-.63-2.38-.3-3.62A1.54,1.54,0,0,0,133,39.87c.26-.89,0-1.9.65-2.7,1.35-1.5,2.62-1,3.88.13C137.68,39.7,136.61,42.12,137.65,44.52Z"/><path class="cls-58" d="M131.56,41.36c1.49,1.09.2,2.41.3,3.62l-3.26.07C129.38,43.66,128.3,40.77,131.56,41.36Z"/><path class="cls-37" d="M123.92,235.19c-.56-1.42-.55-3.21-3.15-2.49-.88.24-2.25-1.34-3.39-2.08a21.28,21.28,0,0,1,8.51-5.48C124,228.24,123.67,231.66,123.92,235.19Z"/><path class="cls-59" d="M151.09,31.24c2.46.08,6.56,3.82,6.8,6.21.18,1.8-.6,2.41-2.29,1.8a11.31,11.31,0,0,1-6.1-5.5C148.78,32.43,149.15,31.17,151.09,31.24Z"/><path class="cls-60" d="M45.42,47.11c-.2,2-.39,3.91-.58,5.86-1.43,1.45-1.21,3.34-1.35,5.14-5.22-4.1-9.12-9.5-13.71-14.22-1.66-1.71-.33-8.82,1.48-10.39,1.24-1.07,2.29-.4,3.19.35C36,35.16,37.46,36.62,39,38,41.11,41.06,43.26,44.08,45.42,47.11Z"/><path class="cls-61" d="M73.59,124.14A4,4,0,0,1,78.06,123a7.51,7.51,0,0,0,8.81-2.42c2.65-3.38,6.58-4.84,9.57-7.64,1.48-1.39,3.08-2.7,4.57-4.11,1.19-1.13,2.55-1,2.47.65-.44,9.1,5.81,15,10,22,.22.37.41.76.62,1.14-10.63.38-21.18,0-31.3-3.79A39.91,39.91,0,0,1,73.59,124.14Z"/><path class="cls-62" d="M56,61.74c-.18.47-.14,1.71-1.18,1.14s-2.56-.72-2.49-2.19c0-1,1.24-1,2-.95C55.33,59.84,56.26,60.21,56,61.74Z"/><path class="cls-63" d="M48.77,220.8a7,7,0,0,1-.65-3.89c2-3.06,1.17-7.2,4-10,2.2-2.22,5-3.06,7.78-3.57,1.6-.28,2.41,1.1,2.6,2.72.25,2.21-.81,3.95-1.78,5.79s-2.3,3.78,1.4,4.35c1.65.25,2.6,4.86,1.17,5.47-2.67,1.13-4.71,4-8.18,3.1-.86-.23-2.12-.24-2.1-1.15C53.08,220.21,50.54,221.15,48.77,220.8Z"/><path class="cls-64" d="M40.25,184.28c0,.17.09.35.14.52a63.56,63.56,0,0,1,.65,28c-.25-3.93-.6-7.85-.72-11.78-.14-4.34.07-8.68-.63-13C39.5,186.82,39.21,185.39,40.25,184.28Z"/><path class="cls-65" d="M35.73,171.17c.12-5-.57-10,.7-14.94s5-8.1,9.18-8c-.22.51-.45,1-.67,1.52-3.66.22-4.59,1.3-4.77,5.58-.88-.08-.27-1.51-1.17-1.38s-1.07,1-1.25,1.72c-1.18,4.75-2.09,9.49-.82,14.42a12.07,12.07,0,0,1-.08,5.66C35.76,174.25,37,172.4,35.73,171.17Z"/><path class="cls-66" d="M137.57,37.3c-1,.56-2.55-1.16-3.29.71-1.3-.29-1.15-1.06-.62-1.94.74-1.65,2.61-1.72,3.81-2.73C137.55,34.66,138.05,36,137.57,37.3Z"/><path class="cls-67" d="M98.4,216.87l1.31-.63c2.77,4.63,7,7.86,10.8,11.55.46.45,1.67.44.92,1.59-5-1.67-8.84-4.89-12.27-8.71C98.18,219.59,97.48,218.37,98.4,216.87Z"/><path class="cls-68" d="M133.66,36.07a2.46,2.46,0,0,0,.62,1.94L133,39.87c-.39-.81-2.3-.19-1.81-1.57C131.58,37.33,131.83,35.68,133.66,36.07Z"/><path class="cls-69" d="M139.91,80.08a2.43,2.43,0,0,1,.53-3.27c.39-.38.83,0,.95.4C141.76,78.57,141.05,79.38,139.91,80.08Z"/><path class="cls-70" d="M130.78,73.52c.56-1.47,1.11-3,1.82-4.84C134,71.25,133.25,72.71,130.78,73.52Z"/><path class="cls-71" d="M30.72,39.41c.41-.83-.09-2.62,1-3C33.18,36,33.3,37.8,34,38.68c2.32,2.93,5.3,5.31,7.33,8.51.46.72,1.19,1.28,1.61,2,.65,1.14,1.31,2.58-.07,3.47s-2.06-.4-2.83-1.39c-2.55-3.27-6.18-5.7-7.7-9.82C32,40.67,29.45,41.88,30.72,39.41Z"/><path class="cls-72" d="M164.63,206.46c1.16,1.2-.09,2.66.44,3.93.82,2.14.14,4.11-.65,6.07a7,7,0,0,0-2.33,5.24,9.47,9.47,0,0,0,.13,6,14.78,14.78,0,0,1,.52,7.08c-.73,6,.71,12.05,0,18.07-.12,1.11-.1,2.31-1.29,2.74s-1.62-.76-2.25-1.45c.54-4.78-1-9.4-1.14-14.09a73.69,73.69,0,0,1,.21-12.51,70.78,70.78,0,0,0,.23-7.15c.34-14.53-.85-29-1.21-43.52-.12-5-.22-10.11-.06-15.17.08-2.33-.78-3.1-3-2.93-2,.15-4.09,0-6,0,.62,4.73,1,9.2,0,13.68-1.64-1.16-.81-2.56-.65-3.65-2.75,2.62-2.45,6.28-2.08,10,.13,1.18.33,2.39-.64,3.36a1.64,1.64,0,0,0,.75,1.52c1.07,1.55,2.25,3.12-.9,3.62-1.81-.63-.77-2.66-1.81-3.67-1.28-8.54-.44-17.13-.56-25.7,4.49-1.46,9.11-1.27,13.68-.89,1.92.16,4.17-.73,5.79,1.13a12.26,12.26,0,0,1,2,8.41c-2.81,2.22-2.82,2.81-.1,5.74.17,1.67-.78,2.5-2.89,3,3.69,1.28,3.73,4.23,2.81,6.26-1.82,4-.29,7.9-.56,11.8-.29,4.12,2.44,7.78,1.3,11.9-.7,0-.9-.45-.86-.91C164,204.9,162.2,206.8,164.63,206.46Z"/><path class="cls-72" d="M177.88,197.23c1.46,1.08.74,2.65.91,4-.95.46-1.43-.82-2.5-.57-.32,1.61.23,3.28,0,5.25,1.27-.49,1.08-2.29,2.44-2.18v9.41c-.44,1.74-.65,3.55-2,5-.95,1-.77,2.43-.55,3.69a28.13,28.13,0,0,1,.29,6.41A8,8,0,0,0,177,231c.47,1.17.55,2.27-.51,3.05a2.08,2.08,0,0,1,2.26.4c-.17,2.52,1.18,4.92.58,7.47-.94.57-2.63-.11-2.91,1.41-.21,1.18.47,1.57,1.43.6.44-.44.74-1,1.48-1.06.25,4.89,1.33,9.75.69,14.69a.7.7,0,0,1-.75-.39c-.91-1.33-.78-2.88-.92-4.38a4.44,4.44,0,0,0-1.56-3.32c-.66,3.41.17,6.1,2.79,8.22a2.11,2.11,0,0,1-1.68,1.84c-1.52.16-3.09.63-4.31-.8a6.62,6.62,0,0,1-.66-3.48c0-8.47.28-16.95-.07-25.41-.69-16.79-.14-33.59-.79-50.36-.26-6.69,0-13.36-.3-20,0-.39.31-.8.48-1.2,1.48-2,3-1.68,4.59-.11,1.52,3.08,2.3,6.19.18,9.32-1,1.45,1.33,1.46,1.05,2.58-2.41,1.13-2.95,3.09-2.8,5.6a31.67,31.67,0,0,0,3.42,13.64c.13,1.37,1.47,2.69.21,4.14-.84.5-.08-1.79-1.25-.72-.85.77-2.61,1.06-1.61,2.83C176.45,196.26,177.4,196.51,177.88,197.23Z"/><path class="cls-73" d="M142.91,183.66c1.65.51.81,2.61,2.13,3.32s2.46-1.2,3.73-.1c.93.91.64,2.28,1.24,3.32-.57.7.06,2-1.09,2.4a10.45,10.45,0,0,1-1.85.37,1.69,1.69,0,0,0-1.51,1.75c0,1.1.9,1.28,1.79,1.36a3.42,3.42,0,0,1,2.11.52c.7,1.57,1,3.14,0,4.71-1.23.79-1.89-.58-3.1-.83-.18,1.59.08,3.16,0,4.71-.07,1.05.39,1.69,1.56,1,.89-.62.45-2.43,2.09-2.36.13,17.17,1.05,34.33.81,51.51a26.79,26.79,0,0,0,.4,3.55,6.84,6.84,0,0,1-6.9,0c-.06-7.72.09-15.44-.24-23.15-.51-11.83-.27-23.67-.69-35.49C143.18,194.72,143,189.19,142.91,183.66Z"/><path class="cls-74" d="M159.25,254.18c2,1.32,2.8.72,2.56-1.61-.89-9,1.07-18.13-1.24-27.07-.43-1.64.62-3.17.67-4.79,1.64,0,2.69,1.08,3.8,2a1.74,1.74,0,0,1,.06.64,9,9,0,0,0-.52.74c-.21.34-.59.53-.76.9.4-.15.72-.59,1.23-.29,0,1.47.84,2.62,1.33,3.91-2.68,4.62-1.77,9.62-1.62,14.56a1.8,1.8,0,0,0,1,1.8c-.24,1.78-.49,3.57-.74,5.35-1.26,2.44-.65,4.7.64,6.9,0,.54,0,1.08,0,1.62a5.21,5.21,0,0,1-6.26,0Z"/><path class="cls-75" d="M159.34,258.9c2.09-.14,4.17-.52,6.26,0,.05,4.13.11,8.26.12,12.39,0,1.24.37,3.07-1.94,1.66-.69-.42-1.23.15-1.84.27-1.78.34-2.63-.35-2.6-2.25C159.39,266.94,159.35,262.92,159.34,258.9Z"/><path class="cls-76" d="M176.83,158.14c-1.54-.19-3.08-.67-4.59.11l-10.42-.05L142.35,158c.13-1.52,1.44-1.49,2.42-1.67a30.24,30.24,0,0,1,11.95-.36,13.09,13.09,0,0,0,4.83-.17,54.54,54.54,0,0,1,14.27,0C177.15,155.89,179.17,156.23,176.83,158.14Z"/><path class="cls-77" d="M144.31,258.88a29.49,29.49,0,0,1,6.9,0q.09,6.28.17,12.56c0,.86,0,1.83-1.32,1.57-1.79-.18-2.63-1-2.4-2.95a69.84,69.84,0,0,0,.11-7.09c-.06,2.59.21,5.19-.33,7.77-.31,1.43-.72,2.63-2.55,1.65Z"/><path class="cls-78" d="M178.68,189.28a3.82,3.82,0,0,0-.42-.86c-3.53-3.81-3.5-4.52-3.88-11-.07-1.19,0-2.39-.1-3.59-.21-4-.22-4,3.78-3.76Q178.38,179.65,178.68,189.28Z"/><path class="cls-79" d="M173.58,258.73l4.56,0c1.31.85,2.51,5.23,1.45,6.16-1.42,1.26-1.13-.82-1.77-1.08,0,2.45.67,5.1-.92,7.49-.89.92-1.84,1.62-3.19.94A33.22,33.22,0,0,1,173.58,258.73Z"/><path class="cls-80" d="M144.87,182.19c-.87-3.38-.39-6.85-.63-10.28,0-.51.08-1.46.24-1.48,2-.31,2.49-2,2.82-3.88l.94.39v5.58a17,17,0,0,0,0,6.12C148.51,181.24,147.71,182.64,144.87,182.19Z"/><path class="cls-78" d="M175.59,228.62c-.12-1.83-.32-3.67-.35-5.5-.05-2.59-1.62-5.6,2.14-7.19.88-.37.29-2.11,1.34-2.77.54,5-.42,9.9-.6,14.85C177.4,228.72,176.72,229.6,175.59,228.62Z"/><path class="cls-81" d="M176.19,271.18c1.18-2.69.38-5.54.67-8.29.1-.94-.59-2.56,1-2.53,1.32,0,.76,1.51.89,2.38a3.6,3.6,0,0,0,.31,1.54c.21-1.94,1-4-1-5.59.41-.43,1.24-.42,1.3-1.23l-.06.05.63.05q0,7.1,0,14.2C178.48,273.47,177.23,273,176.19,271.18Z"/><path class="cls-82" d="M165.72,245c-1.39,1.32-2.78,0-2.44-.81,1.56-3.85-.87-7.64.23-11.44.52-1.79,2.76-2.17,2.87-4.11Z"/><path class="cls-83" d="M178.72,203.75c-.55.65-.38,1.43-.4,2.17,0,1.1.12,2.28-1.64,2-1.29-.23-2.44-.62-1.78-2.27a7.76,7.76,0,0,0,.09-4.11c-.12-.93-.73-2.2.84-2.7s2.09.44,2.34,1.77c.05.26.4.46.62.69C178.76,202.09,178.74,202.92,178.72,203.75Z"/><path class="cls-84" d="M144.89,272.41c.6-.2,1.24.14,1.46-1.13.52-3,.32-6,.45-9,0-.81-.19-2,1.11-1.92,1,.06.81,1.12.82,1.83a72.49,72.49,0,0,1-.06,8.47c-.15,1.44.57,1.83,1.39,2.42C148.29,273.19,146.47,273.76,144.89,272.41Z"/><path class="cls-85" d="M165,222.76a3.88,3.88,0,0,1-3.8-2c-.3-2.14.39-3.74,2.48-4.59.81-.23,1.64-.18,1.6.84-.09,1.76.73,3.54-.12,5.27A2.49,2.49,0,0,0,165,222.76Z"/><path class="cls-86" d="M150,203.84c-1.06.87-.22,2.41-1.17,3.31-1.73-2-1.69-3.93,0-5.91a4,4,0,0,0,0-4.57,3.09,3.09,0,0,1-.12-4.45l1.39-2C150.28,194.75,151.39,199.29,150,203.84Z"/><path class="cls-87" d="M165.2,222.23c-.71-2,1-4.55-1.48-6.11,1.39-1.68.14-4,1.35-5.73,1-.43,1-2,2.22-2.22.73.65.44,1.43.14,2.05-1.62,3.45-2.39,7-1.15,10.72C166.54,221.72,165.93,222.11,165.2,222.23Z"/><path class="cls-82" d="M177.88,197.23c-1.73.26-3.32.14-3.6-2s1.17-2.74,3-3.33c2-.64,1.47.64,1.62,1.54C177.79,194.49,178.38,196,177.88,197.23Z"/><path class="cls-88" d="M179.32,242.87c-.77.88.22,2.45-1.31,3.09a2.4,2.4,0,0,1-2.42-.41c-1-.66-.85-1.7-.61-2.66s.47-1.81,1.59-1.74a3.8,3.8,0,0,1,2.75.77Z"/><path class="cls-82" d="M163.67,172.35c-2.86.58-3.46-1.22-3.3-3.41.14-2,1.06-3.33,3.4-2.33C163.74,168.53,163.71,170.44,163.67,172.35Z"/><path class="cls-89" d="M165.62,257.27c-.43,0-1,.24-1.26.06-1.67-1-1.2-6,.62-7A22.26,22.26,0,0,1,165.62,257.27Z"/><path class="cls-90" d="M148.77,186.88c-1.23.58-2.44,1.51-3.73.1,2.51-.69-.48-2.33.58-3.27C148.29,183.15,148.63,184.92,148.77,186.88Z"/><path class="cls-91" d="M164.63,206.46c-.31.95.78,2.84-1.17,2.65-1.66-.16-.9-1.85-.85-2.93.07-1.62.22-3.23.38-5.4,1.61,1.62.28,3.41,1.34,4.53Z"/><path class="cls-92" d="M175.59,228.62l2.53-.61c0,1.82,2.39,3.28.78,5.33-1.21-.29-1.32-2-2.7-2.07C175.27,230.55,175.52,229.57,175.59,228.62Z"/><path class="cls-93" d="M176.2,231.27c1.85-.59,2.22-.3,2.7,2.07l-.16,1.11-2.22,0a2.06,2.06,0,0,1-.39-.08C175.87,233.32,177.49,232.29,176.2,231.27Z"/><path class="cls-94" d="M165.05,224.75c-.75,1-1.27,3-2.92,1-.34-.41-1.14-2.46,1.1-1.57,1,.4,1-1.05,1.87-.79C165.08,223.85,165.06,224.3,165.05,224.75Z"/><path class="cls-95" d="M179.44,257.46c-2.67-.41-4.71-1.23-3.81-4.66a8.41,8.41,0,0,0-.23-3.21c-.12-.7-.82-1.5.37-1.81a1.86,1.86,0,0,1,2.43.82c1.86,2.85,1.35,5.87,1.18,8.91Z"/><path class="cls-77" d="M145.38,220.12c-.22-2.94,3.16-3.93,3.06-6.81l.91.25V226a3.13,3.13,0,0,1-3.89.72h0A17.76,17.76,0,0,1,145.38,220.12Z"/><path class="cls-96" d="M145.58,251.25c-.05-.45-.15-1.08-.18-1.72s-.26-1.61.71-1.9a1.64,1.64,0,0,1,2.12.92c.88,1.7,2.54,3.08,1.34,5.41-.52,1,.07,2.53-2.08,2.31s-2.07-1.43-2-2.9Z"/><path class="cls-75" d="M148.79,201.24c0,2,0,3.94,0,5.91-.74,1.76-2.05.79-3,.49s-.85-1.4-.69-2.25a9,9,0,0,0-.08-4.17c-.26-.94-.6-2,.77-2.38s2.1-.1,2.35,1.36C148.21,200.57,148.56,200.89,148.79,201.24Z"/><path class="cls-97" d="M147.76,240.49c1,.37,2.3.69,2.12,2.23-.21,1.75-.79,3.45-3,3.41a1.89,1.89,0,0,1-2-2.32C145.05,242.13,145.48,240.57,147.76,240.49Z"/><path class="cls-83" d="M148.62,192.22l.12,4.45c-1.42,1-2.85,1.1-4.07-.23-.94-1-.6-2.19,0-3.3C145.67,191.38,147.11,191.65,148.62,192.22Z"/><path class="cls-98" d="M145.46,226.75c1.19-.79,2.57-.62,3.89-.72a4.25,4.25,0,0,1-1.11,4.45c-.42,1-1.43.46-2.1.81C144.74,230,145.51,228.29,145.46,226.75Z"/><path class="cls-99" d="M146.14,231.29c.48-.85,1.36-.65,2.1-.81,1.44.34,1.32,1.46,1.2,2.52-.14,1.23-1.06,1.43-2.09,1.41-1.7,0-.66-1.07-.63-1.73A1.52,1.52,0,0,0,146.14,231.29Z"/><path class="cls-98" d="M145.38,220.12c0,2.2.05,4.41.08,6.62A9.84,9.84,0,0,1,145.38,220.12Z"/></g></g></svg>