<svg xmlns="http://www.w3.org/2000/svg" viewBox="0 0 217.5 267.7"><defs><style>.cls-1,.cls-7{fill:#fad4dd;}.cls-1,.cls-11,.cls-13,.cls-14,.cls-15,.cls-16,.cls-19,.cls-2,.cls-20,.cls-3,.cls-4,.cls-5,.cls-6{fill-rule:evenodd;}.cls-2{fill:#fff;}.cls-12,.cls-3{fill:#fdbf0f;}.cls-5{fill:#f7b4c5;}.cls-6{fill:#4e4e4e;}.cls-13,.cls-8{fill:#e5e5e5;}.cls-11,.cls-9{fill:#b8ad8c;}.cls-10{fill:#dddac6;}.cls-14,.cls-17{fill:#8a7f57;}.cls-15,.cls-18{fill:#ee4337;}.cls-16{fill:#746a4b;}.cls-19,.cls-21{fill:#ecc8a1;}.cls-20,.cls-22{fill:#1f4385;}</style></defs><title>Asset 4</title><g id="Layer_2" data-name="Layer 2"><g id="Layer_1-2" data-name="Layer 1"><g id="Player_3" data-name="Player 3"><path class="cls-1" d="M160,96.7V73.18h40.73V96.7C200.74,120.71,160,120.71,160,96.7Z"/><path class="cls-2" d="M190.81,103.31a12.45,12.45,0,0,1-20.87,0Z"/><path class="cls-3" d="M180.38,51.19c12.89,0,23.67,9.42,26.28,22H154.09C156.71,60.61,167.48,51.19,180.38,51.19Z"/><path class="cls-4" d="M171.72,77.55h0a1.68,1.68,0,0,1,1.68,1.68v2.43a1.68,1.68,0,0,1-3.36,0V79.23A1.68,1.68,0,0,1,171.72,77.55Zm17.31,0h0a1.68,1.68,0,0,1,1.68,1.68v2.43a1.68,1.68,0,0,1-3.36,0V79.23A1.68,1.68,0,0,1,189,77.55Z"/><path class="cls-5" d="M180.38,87.07h0a1.62,1.62,0,0,1,1.68,1.54v2.23a1.69,1.69,0,0,1-3.36,0V88.61A1.61,1.61,0,0,1,180.38,87.07Z"/><path class="cls-6" d="M204.22,73.05,206.81,95h0a3.75,3.75,0,0,1,0,.48h0a4.14,4.14,0,0,1-1.2,2.92,4,4,0,0,1-2.88,1.22h-6a7.83,7.83,0,0,1-7.78,7.3H172.58a7.81,7.81,0,0,1-7.77-7.3H158a4,4,0,0,1-2.88-1.22,4.14,4.14,0,0,1-1.2-2.92h0a3.75,3.75,0,0,1,0-.48h0l2.59-21.9,2.13.25-2.17,18.3a4.13,4.13,0,0,1,1.53-.3h44.71a4.09,4.09,0,0,1,1.53.3l-2.17-18.3Zm.47,22.15h0v-.07a2,2,0,0,0-.56-1.1,2,2,0,0,0-1.39-.59H181.82v4h20.91a2,2,0,0,0,1.39-.59,2,2,0,0,0,.58-1.41h0C204.7,95.36,204.69,95.28,204.69,95.2Zm-25-1.76H158a2,2,0,0,0-1.94,1.69v.07h0a1.94,1.94,0,0,0,0,.24h0a2,2,0,0,0,.58,1.41,2,2,0,0,0,1.39.59h21.66Zm13.22,9.63a5.64,5.64,0,0,0,1.64-3.49H181.82v5.15h7.09A5.61,5.61,0,0,0,192.9,103.07Zm-13.22-3.49H167a5.68,5.68,0,0,0,5.62,5.15h7.1Z"/><rect class="cls-7" x="175.2" y="111.21" width="10.36" height="11.79"/><path class="cls-2" d="M158.54,256.25h19.65V196.64a2.2,2.2,0,0,1,2.19-2.19h0a2.19,2.19,0,0,1,2.18,2.19v59.61h19.65v-75H158.54Z"/><path class="cls-2" d="M209.35,118.71h0a8.18,8.18,0,0,1,8.15,8.15v17.57H202.21v36.8H158.54v-36.8H143.25V126.86a8.18,8.18,0,0,1,8.15-8.15h19l3,3,3.22,3.22.83.83,3,3,3-3,.83-.83,3.22-3.22,3-3h19Z"/><path class="cls-1" d="M205.28,144.43h8.15v31.45h-8.15Zm-57.95,0h8.14v31.45h-8.14Z"/><rect class="cls-8" x="156.36" y="201.6" width="21.83" height="61.8" rx="2.86" ry="2.86"/><rect class="cls-8" x="182.56" y="201.6" width="21.83" height="61.8" rx="2.86" ry="2.86"/><path class="cls-2" d="M162,209.57h0a1.25,1.25,0,0,1,1.25,1.25V221.9a1.26,1.26,0,0,1-1.25,1.25h0a1.26,1.26,0,0,1-1.25-1.25V210.82A1.26,1.26,0,0,1,162,209.57Zm10.61,45.86h0a1.26,1.26,0,0,1-1.25-1.25V243.1a1.26,1.26,0,0,1,2.51,0v11.08A1.26,1.26,0,0,1,172.58,255.43Zm-10.61,0h0a1.26,1.26,0,0,1-1.25-1.25V243.1a1.26,1.26,0,0,1,1.25-1.25h0a1.26,1.26,0,0,1,1.25,1.25v11.08A1.25,1.25,0,0,1,162,255.43Zm5.31,0h0a1.25,1.25,0,0,1-1.25-1.25V243.1a1.26,1.26,0,0,1,1.25-1.25h0a1.26,1.26,0,0,1,1.25,1.25v11.08A1.25,1.25,0,0,1,167.28,255.43Zm-6.79-17.63h0a1.26,1.26,0,0,1,1.25-1.25h11.08a1.26,1.26,0,0,1,0,2.51H161.74A1.26,1.26,0,0,1,160.49,237.8Zm0-10.61h0a1.26,1.26,0,0,1,1.25-1.25h11.08a1.25,1.25,0,0,1,0,2.5H161.74A1.25,1.25,0,0,1,160.49,227.19Zm0,5.31h0a1.25,1.25,0,0,1,1.25-1.25h11.08a1.25,1.25,0,0,1,0,2.5H161.74A1.25,1.25,0,0,1,160.49,232.5Zm12.09-22.93h0a1.26,1.26,0,0,1,1.26,1.25V221.9a1.26,1.26,0,0,1-2.51,0V210.82A1.26,1.26,0,0,1,172.58,209.57Zm-5.3,0h0a1.25,1.25,0,0,1,1.25,1.25V221.9a1.26,1.26,0,0,1-1.25,1.25h0A1.26,1.26,0,0,1,166,221.9V210.82A1.25,1.25,0,0,1,167.28,209.57Z"/><path class="cls-2" d="M188.17,209.57h0a1.25,1.25,0,0,1,1.25,1.25V221.9a1.25,1.25,0,0,1-2.5,0V210.82A1.25,1.25,0,0,1,188.17,209.57Zm10.61,45.86h0a1.25,1.25,0,0,1-1.25-1.25V243.1a1.25,1.25,0,0,1,2.5,0v11.08A1.25,1.25,0,0,1,198.78,255.43Zm-10.61,0h0a1.25,1.25,0,0,1-1.25-1.25V243.1a1.25,1.25,0,0,1,2.5,0v11.08A1.25,1.25,0,0,1,188.17,255.43Zm5.3,0h0a1.25,1.25,0,0,1-1.25-1.25V243.1a1.25,1.25,0,0,1,2.5,0v11.08A1.25,1.25,0,0,1,193.47,255.43Zm-6.79-17.63h0a1.26,1.26,0,0,1,1.25-1.25H199a1.26,1.26,0,0,1,0,2.51H187.93A1.27,1.27,0,0,1,186.68,237.8Zm0-10.61h0a1.26,1.26,0,0,1,1.25-1.25H199a1.25,1.25,0,0,1,0,2.5H187.93A1.26,1.26,0,0,1,186.68,227.19Zm0,5.31h0a1.26,1.26,0,0,1,1.25-1.25H199a1.25,1.25,0,0,1,0,2.5H187.93A1.26,1.26,0,0,1,186.68,232.5Zm12.1-22.93h0a1.25,1.25,0,0,1,1.25,1.25V221.9a1.25,1.25,0,0,1-2.5,0V210.82A1.25,1.25,0,0,1,198.78,209.57Zm-5.31,0h0a1.25,1.25,0,0,1,1.25,1.25V221.9a1.25,1.25,0,0,1-2.5,0V210.82A1.25,1.25,0,0,1,193.47,209.57Z"/><path class="cls-3" d="M167.28,257.32a8.29,8.29,0,0,1,8,6.08h-16A8.28,8.28,0,0,1,167.28,257.32Z"/><path class="cls-3" d="M193.47,257.32a8.28,8.28,0,0,1,8,6.08H185.5A8.27,8.27,0,0,1,193.47,257.32Z"/><path class="cls-2" d="M205.58,173.37h9A1.44,1.44,0,0,1,216,174.8v13a1.26,1.26,0,0,1-2.52,0v-2.07h-.22v2.83a1.26,1.26,0,0,1-2.52,0v-2.83h-.22v3.59a1.26,1.26,0,1,1-2.52,0v-3.59h-.21v4.35a1.26,1.26,0,1,1-2.52,0V187a1.26,1.26,0,1,1-2.52,0V180.5a1.26,1.26,0,0,1,1.26-1.26h.16V174.8A1.43,1.43,0,0,1,205.58,173.37Z"/><rect class="cls-9" x="144.78" y="187.8" width="4.87" height="14.15" rx="2.44" ry="2.44"/><rect class="cls-10" x="141.17" y="197.13" width="12.08" height="66.27" rx="2.29" ry="2.29"/><path class="cls-11" d="M143.47,197.13h3.74V263.4h-3.74a2.3,2.3,0,0,1-2.3-2.29V199.42A2.3,2.3,0,0,1,143.47,197.13Z"/><rect class="cls-12" x="158.54" y="175.88" width="43.66" height="5.36"/><polygon class="cls-13" points="180.38 121.1 183.59 117.88 186.56 114.92 190.34 118.71 187.38 121.67 184.16 124.89 183.34 125.72 180.38 128.68 177.42 125.72 176.59 124.89 173.37 121.67 170.41 118.71 174.2 114.92 177.16 117.88 180.38 121.1"/><path class="cls-2" d="M155.18,173.37h-9a1.43,1.43,0,0,0-1.43,1.43v13a1.26,1.26,0,0,0,2.52,0v-2.07h.21v2.83a1.26,1.26,0,1,0,2.52,0v-2.83h.22v3.59a1.26,1.26,0,0,0,2.52,0v-3.59H153v4.35a1.26,1.26,0,1,0,2.52,0V187a1.26,1.26,0,0,0,2.52,0V180.5a1.26,1.26,0,0,0-1.26-1.26h-.16V174.8A1.43,1.43,0,0,0,155.18,173.37Z"/></g><g id="Player_2" data-name="Player 2"><path class="cls-14" d="M18.84,96.7V73.18H59.57V96.7C59.57,120.71,18.84,120.71,18.84,96.7Z"/><path class="cls-2" d="M49.64,103.31a12.45,12.45,0,0,1-20.87,0Z"/><path class="cls-15" d="M39.2,51.19c12.9,0,23.68,9.42,26.29,22H12.92C15.53,60.61,26.31,51.19,39.2,51.19Z"/><path class="cls-4" d="M30.55,77.55h0a1.68,1.68,0,0,1,1.68,1.68v2.43a1.68,1.68,0,0,1-3.36,0V79.23A1.68,1.68,0,0,1,30.55,77.55Zm17.31,0h0a1.68,1.68,0,0,1,1.68,1.68v2.43a1.68,1.68,0,0,1-3.36,0V79.23A1.68,1.68,0,0,1,47.86,77.55Z"/><path class="cls-16" d="M39.2,87.07h0a1.61,1.61,0,0,1,1.68,1.54v2.23a1.68,1.68,0,0,1-3.35,0V88.61A1.61,1.61,0,0,1,39.2,87.07Z"/><path class="cls-6" d="M63.05,73.05,65.64,95h0a3.75,3.75,0,0,1,0,.48h0a4.14,4.14,0,0,1-1.2,2.92,4,4,0,0,1-2.88,1.22H55.51a7.81,7.81,0,0,1-7.77,7.3H31.41a7.81,7.81,0,0,1-7.77-7.3H16.85A4,4,0,0,1,14,98.36a4.14,4.14,0,0,1-1.2-2.92h0a3.75,3.75,0,0,1,0-.48h0l2.59-21.9,2.13.25L15.32,91.6a4.09,4.09,0,0,1,1.53-.3H61.56a4.09,4.09,0,0,1,1.53.3L60.92,73.3Zm.46,22.15h0v-.07A1.93,1.93,0,0,0,63,94a2,2,0,0,0-1.39-.59H40.65v4H61.56A2,2,0,0,0,63,96.85a2,2,0,0,0,.58-1.41h0A1.94,1.94,0,0,0,63.51,95.2Zm-25-1.76H16.85a2,2,0,0,0-1.39.59,2,2,0,0,0-.56,1.1v.07h0c0,.08,0,.16,0,.24h0a2,2,0,0,0,.58,1.41,2,2,0,0,0,1.39.59H38.51Zm13.22,9.63a5.57,5.57,0,0,0,1.63-3.49H40.65v5.15h7.09A5.62,5.62,0,0,0,51.73,103.07ZM38.51,99.58H25.79a5.68,5.68,0,0,0,5.62,5.15h7.1Z"/><rect class="cls-17" x="34.02" y="111.21" width="10.36" height="11.79"/><path class="cls-2" d="M17.37,256.25H37V196.64a2.19,2.19,0,0,1,2.18-2.19h0a2.2,2.2,0,0,1,2.19,2.19v59.61H61v-75H17.37Z"/><path class="cls-2" d="M68.18,118.71h0a8.18,8.18,0,0,1,8.15,8.15v17.57H61v36.8H17.37v-36.8H2.08V126.86a8.18,8.18,0,0,1,8.15-8.15h19l3,3,3.21,3.22.84.83,3,3,3-3,.83-.83,3.22-3.22,3-3h19Z"/><path class="cls-14" d="M64.11,144.43h8.14v31.45H64.11Zm-58,0H14.3v31.45H6.15Z"/><rect class="cls-8" x="15.19" y="201.6" width="21.83" height="61.8" rx="2.86" ry="2.86"/><rect class="cls-8" x="41.39" y="201.6" width="21.83" height="61.8" rx="2.86" ry="2.86"/><path class="cls-2" d="M20.8,209.57h0a1.25,1.25,0,0,1,1.25,1.25V221.9a1.26,1.26,0,0,1-1.25,1.25h0a1.26,1.26,0,0,1-1.25-1.25V210.82A1.25,1.25,0,0,1,20.8,209.57Zm10.61,45.86h0a1.26,1.26,0,0,1-1.25-1.25V243.1a1.26,1.26,0,0,1,1.25-1.25h0a1.26,1.26,0,0,1,1.25,1.25v11.08A1.25,1.25,0,0,1,31.41,255.43Zm-10.61,0h0a1.25,1.25,0,0,1-1.25-1.25V243.1a1.26,1.26,0,0,1,1.25-1.25h0a1.26,1.26,0,0,1,1.25,1.25v11.08A1.25,1.25,0,0,1,20.8,255.43Zm5.31,0h0a1.25,1.25,0,0,1-1.25-1.25V243.1a1.26,1.26,0,0,1,1.25-1.25h0a1.26,1.26,0,0,1,1.25,1.25v11.08A1.25,1.25,0,0,1,26.11,255.43ZM19.32,237.8h0a1.26,1.26,0,0,1,1.25-1.25H31.65a1.26,1.26,0,0,1,0,2.51H20.57A1.26,1.26,0,0,1,19.32,237.8Zm0-10.61h0a1.26,1.26,0,0,1,1.25-1.25H31.65a1.25,1.25,0,0,1,0,2.5H20.57A1.25,1.25,0,0,1,19.32,227.19Zm0,5.31h0a1.25,1.25,0,0,1,1.25-1.25H31.65a1.25,1.25,0,0,1,0,2.5H20.57A1.25,1.25,0,0,1,19.32,232.5Zm12.09-22.93h0a1.25,1.25,0,0,1,1.25,1.25V221.9a1.26,1.26,0,0,1-1.25,1.25h0a1.26,1.26,0,0,1-1.25-1.25V210.82A1.26,1.26,0,0,1,31.41,209.57Zm-5.3,0h0a1.25,1.25,0,0,1,1.25,1.25V221.9a1.26,1.26,0,0,1-1.25,1.25h0a1.26,1.26,0,0,1-1.25-1.25V210.82A1.25,1.25,0,0,1,26.11,209.57Z"/><path class="cls-2" d="M47,209.57h0a1.26,1.26,0,0,1,1.25,1.25V221.9A1.26,1.26,0,0,1,47,223.15h0a1.26,1.26,0,0,1-1.25-1.25V210.82A1.25,1.25,0,0,1,47,209.57Zm10.61,45.86h0a1.25,1.25,0,0,1-1.25-1.25V243.1a1.26,1.26,0,0,1,1.25-1.25h0a1.26,1.26,0,0,1,1.25,1.25v11.08A1.26,1.26,0,0,1,57.61,255.43Zm-10.61,0h0a1.25,1.25,0,0,1-1.25-1.25V243.1A1.26,1.26,0,0,1,47,241.85h0a1.26,1.26,0,0,1,1.25,1.25v11.08A1.26,1.26,0,0,1,47,255.43Zm5.3,0h0a1.25,1.25,0,0,1-1.25-1.25V243.1a1.26,1.26,0,0,1,1.25-1.25h0a1.26,1.26,0,0,1,1.25,1.25v11.08A1.25,1.25,0,0,1,52.3,255.43ZM45.51,237.8h0a1.26,1.26,0,0,1,1.25-1.25H57.84a1.26,1.26,0,0,1,0,2.51H46.76A1.27,1.27,0,0,1,45.51,237.8Zm0-10.61h0a1.26,1.26,0,0,1,1.25-1.25H57.84a1.25,1.25,0,0,1,0,2.5H46.76A1.26,1.26,0,0,1,45.51,227.19Zm0,5.31h0a1.26,1.26,0,0,1,1.25-1.25H57.84a1.25,1.25,0,1,1,0,2.5H46.76A1.26,1.26,0,0,1,45.51,232.5Zm12.1-22.93h0a1.26,1.26,0,0,1,1.25,1.25V221.9a1.26,1.26,0,0,1-1.25,1.25h0a1.26,1.26,0,0,1-1.25-1.25V210.82A1.25,1.25,0,0,1,57.61,209.57Zm-5.31,0h0a1.25,1.25,0,0,1,1.25,1.25V221.9a1.26,1.26,0,0,1-1.25,1.25h0a1.26,1.26,0,0,1-1.25-1.25V210.82A1.25,1.25,0,0,1,52.3,209.57Z"/><path class="cls-15" d="M26.11,257.32a8.27,8.27,0,0,1,8,6.08H18.13A8.28,8.28,0,0,1,26.11,257.32Z"/><path class="cls-15" d="M52.3,257.32a8.28,8.28,0,0,1,8,6.08h-16A8.29,8.29,0,0,1,52.3,257.32Z"/><path class="cls-2" d="M64.4,173.37h9a1.43,1.43,0,0,1,1.42,1.43v13a1.26,1.26,0,1,1-2.52,0v-2.07h-.21v2.83a1.26,1.26,0,1,1-2.52,0v-2.83h-.22v3.59a1.26,1.26,0,0,1-2.52,0v-3.59H66.6v4.35a1.26,1.26,0,1,1-2.52,0V187a1.26,1.26,0,0,1-2.52,0V180.5a1.26,1.26,0,0,1,1.26-1.26H63V174.8A1.43,1.43,0,0,1,64.4,173.37Z"/><rect class="cls-9" x="3.6" y="187.8" width="4.87" height="14.15" rx="2.44" ry="2.44"/><rect class="cls-10" y="197.13" width="12.08" height="66.27" rx="2.29" ry="2.29"/><path class="cls-11" d="M2.29,197.13H6V263.4H2.29A2.3,2.3,0,0,1,0,261.11V199.42A2.3,2.3,0,0,1,2.29,197.13Z"/><rect class="cls-18" x="17.37" y="175.88" width="43.66" height="5.36"/><polygon class="cls-13" points="39.2 121.1 42.42 117.88 45.38 114.92 49.17 118.71 46.21 121.67 42.99 124.89 42.16 125.72 39.2 128.68 36.24 125.72 35.41 124.89 32.2 121.67 29.24 118.71 33.03 114.92 35.98 117.88 39.2 121.1"/><path class="cls-2" d="M14,173.37H5A1.44,1.44,0,0,0,3.6,174.8v13a1.26,1.26,0,0,0,2.52,0v-2.07h.22v2.83a1.26,1.26,0,0,0,2.52,0v-2.83h.22v3.59a1.26,1.26,0,0,0,2.52,0v-3.59h.21v4.35a1.26,1.26,0,0,0,2.52,0V187a1.26,1.26,0,0,0,2.52,0V180.5a1.26,1.26,0,0,0-1.26-1.26h-.16V174.8A1.43,1.43,0,0,0,14,173.37Z"/></g><g id="Player_1" data-name="Player 1"><path class="cls-19" d="M85.81,57.42V27.74h51.37V57.42C137.18,87.71,85.81,87.71,85.81,57.42Z"/><path class="cls-2" d="M124.66,65.75a15.71,15.71,0,0,1-26.33,0Z"/><path class="cls-20" d="M111.5,0c16.26,0,29.86,11.89,33.15,27.74H78.34C81.64,11.89,95.23,0,111.5,0Z"/><path class="cls-4" d="M100.58,33.25h0a2.13,2.13,0,0,1,2.11,2.12v3.07a2.12,2.12,0,1,1-4.23,0V35.37A2.13,2.13,0,0,1,100.58,33.25Zm21.83,0h0a2.13,2.13,0,0,1,2.12,2.12v3.07a2.12,2.12,0,1,1-4.23,0V35.37A2.13,2.13,0,0,1,122.41,33.25Z"/><path class="cls-5" d="M111.5,45.27h0a2,2,0,0,1,2.11,1.94V50a2.12,2.12,0,0,1-4.23,0V47.21A2,2,0,0,1,111.5,45.27Z"/><path class="cls-6" d="M141.57,27.59l3.27,27.62h0a5.88,5.88,0,0,1,0,.6h0a5.24,5.24,0,0,1-1.51,3.69,5.08,5.08,0,0,1-3.63,1.54h-7.63a9.85,9.85,0,0,1-9.81,9.2H101.67a9.85,9.85,0,0,1-9.81-9.2H83.29a5.08,5.08,0,0,1-3.63-1.54,5.24,5.24,0,0,1-1.51-3.69h0a5.88,5.88,0,0,1,0-.6h0l3.27-27.62,2.68.31L81.37,51a5.1,5.1,0,0,1,1.92-.38H139.7a5.1,5.1,0,0,1,1.92.38L138.89,27.9Zm.59,27.94h0v-.1a2.57,2.57,0,0,0-.7-1.38,2.44,2.44,0,0,0-1.75-.74H113.32v5H139.7a2.44,2.44,0,0,0,1.75-.74,2.51,2.51,0,0,0,.73-1.78h0A2.64,2.64,0,0,0,142.16,55.53Zm-31.55-2.22H83.29a2.44,2.44,0,0,0-1.75.74,2.53,2.53,0,0,0-.7,1.39v.09h0a2.64,2.64,0,0,0,0,.29h0a2.51,2.51,0,0,0,.73,1.78,2.44,2.44,0,0,0,1.75.74h27.32Zm16.68,12.14a7.06,7.06,0,0,0,2.07-4.4h-16v6.5h8.94A7.11,7.11,0,0,0,127.29,65.45Zm-16.68-4.4h-16a7.17,7.17,0,0,0,7.1,6.5h8.94Z"/><rect class="cls-21" x="104.96" y="75.72" width="13.07" height="14.87"/><path class="cls-2" d="M84,258.69h24.78V183.48a2.76,2.76,0,0,1,2.75-2.75h0a2.76,2.76,0,0,1,2.75,2.75v75.21H139V164.05H84Z"/><path class="cls-2" d="M148.05,85.18h0a10.32,10.32,0,0,1,10.28,10.28v22.17H139v46.42H84V117.63H64.66V95.46A10.32,10.32,0,0,1,74.94,85.18h24l3.73,3.73L106.71,93l1.05,1,3.74,3.74L115.23,94l1-1,4.06-4.07,3.73-3.73h24Z"/><path class="cls-19" d="M142.91,117.63h10.28v39.66H142.91Zm-73.11,0H80.08v39.66H69.8Z"/><rect class="cls-8" x="81.2" y="189.74" width="27.54" height="77.96" rx="3.61" ry="3.61"/><rect class="cls-8" x="114.25" y="189.74" width="27.54" height="77.96" rx="3.61" ry="3.61"/><path class="cls-2" d="M88.28,199.8h0a1.58,1.58,0,0,1,1.58,1.57v14a1.58,1.58,0,0,1-1.58,1.58h0a1.58,1.58,0,0,1-1.58-1.58v-14A1.58,1.58,0,0,1,88.28,199.8Zm13.39,57.85h0a1.58,1.58,0,0,1-1.58-1.58v-14a1.58,1.58,0,0,1,1.58-1.58h0a1.58,1.58,0,0,1,1.57,1.58v14A1.58,1.58,0,0,1,101.67,257.65Zm-13.39,0h0a1.58,1.58,0,0,1-1.58-1.58v-14a1.58,1.58,0,0,1,1.58-1.58h0a1.58,1.58,0,0,1,1.58,1.58v14A1.58,1.58,0,0,1,88.28,257.65Zm6.69,0h0a1.58,1.58,0,0,1-1.57-1.58v-14A1.58,1.58,0,0,1,95,240.52h0a1.58,1.58,0,0,1,1.58,1.58v14A1.58,1.58,0,0,1,95,257.65Zm-8.56-22.24h0A1.58,1.58,0,0,1,88,233.84h14a1.58,1.58,0,0,1,1.58,1.57h0A1.58,1.58,0,0,1,102,237H88A1.58,1.58,0,0,1,86.41,235.41Zm0-13.38h0A1.58,1.58,0,0,1,88,220.45h14a1.58,1.58,0,0,1,1.58,1.58h0a1.58,1.58,0,0,1-1.58,1.58H88A1.58,1.58,0,0,1,86.41,222Zm0,6.69h0A1.58,1.58,0,0,1,88,227.14h14a1.58,1.58,0,0,1,1.58,1.58h0A1.58,1.58,0,0,1,102,230.3H88A1.58,1.58,0,0,1,86.41,228.72Zm15.26-28.92h0a1.58,1.58,0,0,1,1.57,1.57v14a1.58,1.58,0,0,1-1.57,1.58h0a1.58,1.58,0,0,1-1.58-1.58v-14A1.58,1.58,0,0,1,101.67,199.8Zm-6.7,0h0a1.58,1.58,0,0,1,1.58,1.57v14A1.58,1.58,0,0,1,95,216.92h0a1.58,1.58,0,0,1-1.57-1.58v-14A1.58,1.58,0,0,1,95,199.8Z"/><path class="cls-2" d="M121.32,199.8h0a1.58,1.58,0,0,1,1.58,1.57v14a1.58,1.58,0,0,1-1.58,1.58h0a1.58,1.58,0,0,1-1.57-1.58v-14A1.58,1.58,0,0,1,121.32,199.8Zm13.39,57.85h0a1.58,1.58,0,0,1-1.58-1.58v-14a1.58,1.58,0,0,1,1.58-1.58h0a1.58,1.58,0,0,1,1.58,1.58v14A1.58,1.58,0,0,1,134.71,257.65Zm-13.39,0h0a1.58,1.58,0,0,1-1.57-1.58v-14a1.58,1.58,0,0,1,1.57-1.58h0a1.58,1.58,0,0,1,1.58,1.58v14A1.58,1.58,0,0,1,121.32,257.65Zm6.7,0h0a1.58,1.58,0,0,1-1.58-1.58v-14a1.58,1.58,0,1,1,3.15,0v14A1.58,1.58,0,0,1,128,257.65Zm-8.57-22.24h0a1.58,1.58,0,0,1,1.58-1.57h14a1.58,1.58,0,0,1,1.58,1.57h0A1.58,1.58,0,0,1,135,237H121A1.58,1.58,0,0,1,119.45,235.41Zm0-13.38h0a1.58,1.58,0,0,1,1.58-1.58h14a1.58,1.58,0,0,1,1.58,1.58h0a1.58,1.58,0,0,1-1.58,1.58H121A1.58,1.58,0,0,1,119.45,222Zm0,6.69h0a1.58,1.58,0,0,1,1.58-1.58h14a1.58,1.58,0,0,1,1.58,1.58h0A1.58,1.58,0,0,1,135,230.3H121A1.58,1.58,0,0,1,119.45,228.72Zm15.26-28.92h0a1.58,1.58,0,0,1,1.58,1.57v14a1.58,1.58,0,0,1-1.58,1.58h0a1.58,1.58,0,0,1-1.58-1.58v-14A1.58,1.58,0,0,1,134.71,199.8Zm-6.69,0h0a1.58,1.58,0,0,1,1.57,1.57v14a1.58,1.58,0,1,1-3.15,0v-14A1.58,1.58,0,0,1,128,199.8Z"/><path class="cls-20" d="M95,260A10.44,10.44,0,0,1,105,267.7H84.91A10.44,10.44,0,0,1,95,260Z"/><path class="cls-20" d="M128,260a10.44,10.44,0,0,1,10.06,7.66H118A10.44,10.44,0,0,1,128,260Z"/><path class="cls-2" d="M143.28,154.13H154.6a1.81,1.81,0,0,1,1.8,1.8v16.41a1.59,1.59,0,0,1-3.18,0v-2.62H153v3.58a1.59,1.59,0,1,1-3.18,0v-3.58h-.27v4.53a1.59,1.59,0,1,1-3.18,0v-4.53h-.27v5.49a1.59,1.59,0,0,1-3.18,0v-3.93a1.59,1.59,0,0,1-3.18,0v-8.16a1.6,1.6,0,0,1,1.59-1.59h.2v-5.61A1.81,1.81,0,0,1,143.28,154.13Z"/><rect class="cls-9" x="66.59" y="172.34" width="6.15" height="17.85" rx="3.07" ry="3.07"/><rect class="cls-10" x="62.04" y="184.1" width="15.24" height="83.6" rx="2.89" ry="2.89"/><path class="cls-11" d="M64.93,184.1h4.73v83.6H64.93A2.9,2.9,0,0,1,62,264.81V187A2.9,2.9,0,0,1,64.93,184.1Z"/><rect class="cls-22" x="83.96" y="157.29" width="55.08" height="6.76"/><polygon class="cls-13" points="111.5 88.19 115.56 84.13 119.29 80.4 124.07 85.18 120.34 88.91 116.28 92.98 115.23 94.02 111.5 97.76 107.76 94.02 106.72 92.98 102.65 88.91 98.92 85.18 103.7 80.4 107.43 84.13 111.5 88.19"/><path class="cls-2" d="M79.71,154.13H68.39a1.81,1.81,0,0,0-1.8,1.8v16.41a1.59,1.59,0,0,0,3.18,0v-2.62H70v3.58a1.59,1.59,0,1,0,3.18,0v-3.58h.27v4.53a1.59,1.59,0,0,0,3.18,0v-4.53h.27v5.49a1.59,1.59,0,0,0,3.18,0v-3.93a1.59,1.59,0,0,0,3.18,0v-8.16a1.6,1.6,0,0,0-1.59-1.59h-.2v-5.61A1.81,1.81,0,0,0,79.71,154.13Z"/></g></g></g></svg>