<?xml version="1.0" encoding="utf-8"?>
<!-- Generator: Adobe Illustrator 22.0.0, SVG Export Plug-In . SVG Version: 6.00 Build 0)  -->
<svg version="1.1" id="Layer_1" xmlns="http://www.w3.org/2000/svg" xmlns:xlink="http://www.w3.org/1999/xlink" x="0px" y="0px"
	 viewBox="0 0 320 373" style="enable-background:new 0 0 320 373;" xml:space="preserve">
<style type="text/css">
	.st0{fill:#46AB20;}
	.st1{opacity:0.641;}
	.st2{opacity:0.323;fill:#376C23;enable-background:new    ;}
	.st3{opacity:0.102;fill:none;stroke:#FFFFFF;stroke-width:2;enable-background:new    ;}
	.st4{opacity:0.497;fill:#4FB735;fill-opacity:7.800000e-02;enable-background:new    ;}
	.st5{opacity:0.696;fill:#D8AD7A;enable-background:new    ;}
	.st6{opacity:0.1;}
	.st7{fill:none;stroke:#FFFFFF;stroke-width:1.8471;}
	.st8{display:none;fill:none;stroke:#FFFFFF;stroke-width:1.8471;stroke-linecap:square;}
	.st9{display:none;fill:none;stroke:#987447;stroke-width:1.8471;stroke-linecap:square;}
</style>
<path class="st0" d="M0,0h320v373H0V0z"/>
<g class="st1">
	<path class="st2" d="M14,0h19v373H14V0z M53,0h19v373H53V0z M92,0h19v373H92V0z M131,0h19v373h-19V0z M170,0h19v373h-19V0z M209,0
		h19v373h-19V0z M248,0h19v373h-19V0z M287,0h19v373h-19V0z"/>
</g>
<path class="st3" d="M148,55h27c55.2,0,100,44.8,100,100v95c0,55.2-44.8,100-100,100h-27c-55.2,0-100-44.8-100-100v-95
	C48,99.8,92.8,55,148,55z"/>
<path class="st4" d="M0,0h320v373H0V0z"/>
<path class="st5" d="M131,126h58v156h-58V126z"/>
<g class="st6">
	<path class="st7" d="M131,250.4h58"/>
	<path class="st8" d="M145.3,262.7h29.2"/>
	<path class="st9" d="M155.9,262.7h8.1"/>
	<path class="st8" d="M144.6,268.9v-17.1 M175.4,268.9v-17.1"/>
</g>
<g class="st6">
	<path class="st7" d="M131,156.3h58"/>
	<path class="st8" d="M145.3,168.6h29.2"/>
	<path class="st9" d="M155.9,168.6h8.1"/>
	<path class="st8" d="M144.6,174.8v-17.1 M175.4,174.8v-17.1"/>
</g>
</svg>
