<?xml version="1.0" encoding="iso-8859-1"?>
<!-- Generator: Adobe Illustrator 19.0.0, SVG Export Plug-In . SVG Version: 6.00 Build 0)  -->
<svg xmlns="http://www.w3.org/2000/svg" xmlns:xlink="http://www.w3.org/1999/xlink" version="1.1" id="Capa_1" x="0px" y="0px" viewBox="0 0 512 512" style="enable-background:new 0 0 512 512;" xml:space="preserve" width="512px" height="512px">
<g>
	<g>
		<path d="M413.331,239.103c-9.319,0-16.902,7.582-16.902,16.902s7.582,16.902,16.902,16.902s16.902-7.582,16.902-16.902    S422.65,239.103,413.331,239.103z" fill="#ffb426"/>
	</g>
</g>
<g>
	<g>
		<path d="M405.703,159.491H512V75.534c0-34.925-28.415-63.339-63.341-63.339H63.339C28.414,12.194,0,40.608,0,75.534v360.932    c0,34.925,28.414,63.339,63.339,63.339h385.32c34.925,0,63.341-28.414,63.341-63.339v-83.949H405.703v0.001    c-53.217,0-96.513-43.296-96.513-96.513S352.485,159.491,405.703,159.491z" fill="#ffb426"/>
	</g>
</g>
<g>
	<g>
		<path d="M405.703,192.206c-35.178,0-63.799,28.62-63.799,63.799c0,35.178,28.62,63.799,63.799,63.799H512V192.206H405.703z     M413.331,305.621c-27.358,0-49.617-22.258-49.617-49.617c0-27.358,22.258-49.617,49.617-49.617    c27.358,0,49.617,22.257,49.617,49.617C462.947,283.363,440.689,305.621,413.331,305.621z" fill="#ffb426"/>
	</g>
</g>
<g>
</g>
<g>
</g>
<g>
</g>
<g>
</g>
<g>
</g>
<g>
</g>
<g>
</g>
<g>
</g>
<g>
</g>
<g>
</g>
<g>
</g>
<g>
</g>
<g>
</g>
<g>
</g>
<g>
</g>
</svg>
