<svg xmlns="http://www.w3.org/2000/svg" viewBox="0 0 533.9 98.55"><defs><style>.cls-1{fill:#fff;}</style></defs><title>logo</title><g id="Layer_2" data-name="Layer 2"><g id="background"><polygon id="_Path_" data-name="&lt;Path&gt;" class="cls-1" points="112.83 22.07 112.83 22.07 112.83 22.07 112.83 22.07"/><path id="_Path_2" data-name="&lt;Path&gt;" class="cls-1" d="M97.2,30.79c3.23-2.11,6-3.83,7.85-5.05.94-.61,1.69-1.07,2.2-1.39l.79-.49-.75.54c-.49.36-1.19.89-2.11,1.54-1.83,1.31-4.42,3.21-7.57,5.44l-3.14,2.21A24.35,24.35,0,0,1,95,38.45,23.94,23.94,0,0,1,92.67,48.7L116,32.82c-.08-.63-.16-1.24-.26-1.83h0c-.1-.59-.2-1.16-.32-1.71s-.24-1.09-.37-1.61-.25-.9-.39-1.33h0v-.05h0c-.14-.42-.29-.84-.44-1.25h0c-.24-.61-.49-1.2-.76-1.77-.19-.38-.39-.75-.6-1.12l0-.07-.18-.29c-.17-.27-.33-.55-.51-.82-2.1-3.09-5.16-5.53-9.6-8L88.78,22.34a24.13,24.13,0,0,1,5.49,10.37Z"/><polygon id="_Path_3" data-name="&lt;Path&gt;" class="cls-1" points="112.87 22.14 112.87 22.14 112.87 22.14 112.87 22.14"/><path id="_Path_4" data-name="&lt;Path&gt;" class="cls-1" d="M112.83,22.07c-.21-.37-.43-.72-.66-1.06.19.28.37.58.55.88A1.74,1.74,0,0,0,112.83,22.07Z"/><path id="_Path_5" data-name="&lt;Path&gt;" class="cls-1" d="M112.87,22.14c.2.35.38.7.56,1.06C113.25,22.84,113.07,22.49,112.87,22.14Z"/><path id="_Path_6" data-name="&lt;Path&gt;" class="cls-1" d="M114.23,25c.15.41.3.82.44,1.25C114.53,25.86,114.38,25.45,114.23,25Z"/><path id="_Path_7" data-name="&lt;Path&gt;" class="cls-1" d="M113.72,23.82q.24.53.45,1.08Q114,24.35,113.72,23.82Z"/><path id="_Path_8" data-name="&lt;Path&gt;" class="cls-1" d="M113.47,23.26l0-.06h0c-.18-.36-.36-.71-.56-1.06h0C113.08,22.51,113.28,22.88,113.47,23.26Z"/><polygon id="_Path_9" data-name="&lt;Path&gt;" class="cls-1" points="28.82 22.14 28.82 22.14 28.82 22.14 28.82 22.14"/><polygon id="_Path_10" data-name="&lt;Path&gt;" class="cls-1" points="28.86 22.07 28.86 22.07 28.86 22.07 28.86 22.07"/><path id="_Path_11" data-name="&lt;Path&gt;" class="cls-1" d="M29.52,21c-.23.34-.45.69-.66,1.06a1.74,1.74,0,0,1,.11-.18C29.15,21.59,29.33,21.29,29.52,21Z"/><path id="_Path_12" data-name="&lt;Path&gt;" class="cls-1" d="M28.82,22.14h0c-.2.35-.39.7-.56,1.06h0a.21.21,0,0,0,0,.06C28.41,22.88,28.61,22.51,28.82,22.14Z"/><path id="_Compound_Path_" data-name="&lt;Compound Path&gt;" class="cls-1" d="M139.87,91l-27-18.34a8,8,0,0,1-3.36-5.13,8.28,8.28,0,0,1-.11-2.17l.31-3.69a1.31,1.31,0,0,0,0-.28,1.06,1.06,0,0,0-.43-.66h0l-2.78-1.89L92.42,49.21a24.23,24.23,0,0,1-7.58,8.86c2.31,1.61,4.47,3.14,6.42,4.52C94.41,64.82,97,66.72,98.83,68c.92.66,1.62,1.19,2.11,1.54l.75.55-.79-.49c-.51-.32-1.26-.78-2.21-1.4-1.89-1.22-4.61-2.93-7.84-5-2.1-1.36-4.42-2.89-6.89-4.52a24,24,0,0,1-26.24,0c-2.46,1.63-4.79,3.16-6.89,4.52-3.22,2.11-5.95,3.82-7.84,5-.94.62-1.7,1.08-2.2,1.4l-.79.49.75-.55c.48-.35,1.19-.88,2.11-1.54,1.83-1.31,4.42-3.21,7.57-5.44,2-1.38,4.11-2.91,6.41-4.52a24.21,24.21,0,0,1-7.57-8.86L35.19,58.78l-2.78,1.89h0a1,1,0,0,0-.43.66.88.88,0,0,0,0,.28l.31,3.69a8.28,8.28,0,0,1-.11,2.17,8,8,0,0,1-3.37,5.13L1.82,91a4.15,4.15,0,1,0,4.67,6.87l27-18.35a8,8,0,0,1,8.07-.55l3.31,1.65a1,1,0,0,0,1-.07h0l.12-.09L70.84,63.54,95.67,80.42l.12.09h0a1,1,0,0,0,1,.07l3.31-1.65a8,8,0,0,1,8.06.55l27,18.35A4.15,4.15,0,0,0,139.87,91ZM4,96.44l.66,0A2.1,2.1,0,0,1,4,96.44Zm-1.35-.69-.16-.2A2.06,2.06,0,0,1,3,92.69L30,74.35a10.07,10.07,0,0,0,4.15-6.08,19.53,19.53,0,0,0,2.31,4.48Zm134.46.65.65,0A2,2,0,0,1,137.07,96.4Zm2.17-.85a1.63,1.63,0,0,1-.17.2l-33.81-23a19.53,19.53,0,0,0,2.31-4.48,10,10,0,0,0,4.15,6.08l27,18.34a2.05,2.05,0,0,1,.55,2.86Z"/><path id="_Path_13" data-name="&lt;Path&gt;" class="cls-1" d="M47.21,33.59l-3.13-2.21c-3.15-2.23-5.74-4.13-7.57-5.44-.92-.65-1.63-1.18-2.11-1.54l-.75-.54.78.49c.51.32,1.27.78,2.21,1.39,1.89,1.22,4.61,2.94,7.84,5.05l2.94,1.92a24,24,0,0,1,5.49-10.37L39.15,13c-4.45,2.44-7.5,4.88-9.6,8-.18.27-.35.55-.51.82l-.18.29,0,.07c-.21.37-.41.74-.6,1.12-.28.57-.53,1.16-.76,1.77h0c-.16.41-.3.83-.44,1.25h0v.05h0c-.14.43-.27.87-.39,1.33s-.26,1.06-.38,1.61S26,30.4,25.93,31h0q-.15.89-.27,1.83L49,48.7a24,24,0,0,1-2.3-10.25A24.35,24.35,0,0,1,47.21,33.59Z"/><path id="_Path_14" data-name="&lt;Path&gt;" class="cls-1" d="M27,26.29c.14-.43.28-.84.44-1.25C27.3,25.45,27.16,25.86,27,26.29Z"/><path id="_Path_15" data-name="&lt;Path&gt;" class="cls-1" d="M27.51,24.9c.15-.37.3-.73.46-1.08C27.81,24.17,27.66,24.53,27.51,24.9Z"/><path id="_Path_16" data-name="&lt;Path&gt;" class="cls-1" d="M28.26,23.2c.17-.36.36-.71.56-1.06C28.62,22.49,28.43,22.84,28.26,23.2Z"/><path id="_Compound_Path_2" data-name="&lt;Compound Path&gt;" class="cls-1" d="M70.84,60.87A22.42,22.42,0,1,0,48.42,38.45,22.45,22.45,0,0,0,70.84,60.87Zm0-41.45a19,19,0,0,1,14.3,6.5A35.24,35.24,0,0,1,53.7,46.71,19,19,0,0,1,70.84,19.42Zm0,38.05c-.5,0-1,0-1.5-.06A41.21,41.21,0,0,0,88.85,44.57,19,19,0,0,1,70.84,57.47ZM89.08,33a19,19,0,0,1,.79,5.42,20.2,20.2,0,0,1-.11,2.07A40,40,0,0,1,65.43,56.69a18.89,18.89,0,0,1-6-3c.7-.09,1.4-.19,2.08-.3l-.28-1.68c-.72.12-1.46.23-2.2.32l.18,1.49c-.43-.33-.85-.68-1.25-1.05l0-.33-.29,0a19.27,19.27,0,0,1-3.06-3.78c20-1.06,28.95-15.35,31.7-21a19.15,19.15,0,0,1,2.45,4.68l-.32.6Z"/><path id="_Path_17" data-name="&lt;Path&gt;" class="cls-1" d="M84,39c-.48.56-1,1.11-1.5,1.64l1.22,1.18c.53-.56,1.06-1.13,1.56-1.71Z"/><path id="_Path_18" data-name="&lt;Path&gt;" class="cls-1" d="M81.73,41.44c-.53.52-1.08,1-1.64,1.5l1.12,1.28c.57-.5,1.15-1,1.7-1.56Z"/><path id="_Path_19" data-name="&lt;Path&gt;" class="cls-1" d="M84.72,38.17,86,39.24q.73-.9,1.41-1.83l-1.38-1C85.64,37,85.19,37.59,84.72,38.17Z"/><path id="_Path_20" data-name="&lt;Path&gt;" class="cls-1" d="M86.71,35.51l1.4,1c.44-.64.86-1.3,1.25-2l-1.46-.87C87.53,34.26,87.13,34.89,86.71,35.51Z"/><path id="_Path_21" data-name="&lt;Path&gt;" class="cls-1" d="M64.52,51c-.71.18-1.44.34-2.16.48l.33,1.67c.75-.15,1.51-.32,2.25-.51Z"/><path id="_Path_22" data-name="&lt;Path&gt;" class="cls-1" d="M67.7,50.08c-.69.24-1.4.46-2.11.66l.46,1.63c.75-.2,1.49-.44,2.21-.69Z"/><path id="_Path_23" data-name="&lt;Path&gt;" class="cls-1" d="M76.59,45.64c-.61.41-1.24.81-1.87,1.19l.87,1.46c.66-.4,1.32-.82,2-1.25Z"/><path id="_Path_24" data-name="&lt;Path&gt;" class="cls-1" d="M79.25,43.65c-.57.47-1.16.92-1.76,1.35l1,1.38q.93-.68,1.83-1.41Z"/><path id="_Path_25" data-name="&lt;Path&gt;" class="cls-1" d="M70.79,48.86c-.67.3-1.36.58-2,.84l.6,1.59c.71-.27,1.43-.56,2.13-.88Z"/><path id="_Path_26" data-name="&lt;Path&gt;" class="cls-1" d="M74.59,48.86l-.83-1.48c-.64.36-1.3.7-2,1l.73,1.53C73.23,49.59,73.92,49.24,74.59,48.86Z"/><polygon class="cls-1" points="44.59 5.47 45.69 8.86 42.81 6.76 39.93 8.86 41.03 5.47 38.16 3.38 41.71 3.38 42.81 0 43.91 3.38 47.47 3.38 44.59 5.47"/><polygon class="cls-1" points="100.65 5.47 101.75 8.86 98.87 6.76 96 8.86 97.09 5.47 94.22 3.38 97.78 3.38 98.87 0 99.97 3.38 103.53 3.38 100.65 5.47"/><polygon class="cls-1" points="73.52 9.74 75.17 14.84 70.84 11.69 66.51 14.84 68.17 9.74 63.84 6.6 69.19 6.6 70.84 1.51 72.5 6.6 77.85 6.6 73.52 9.74"/><path class="cls-1" d="M176.15,49.41c-1.83,10.35-10.41,17.91-21.87,17.91H140.12l6.35-35.77h14.15C172,31.55,178,38.91,176.15,49.41ZM155.09,58.6c5.73,0,9.89-3.3,11-9.19s-2-9.23-7.71-9.23h-3.4l-3.3,18.42Z"/><path class="cls-1" d="M199.43,31.55c8.88,0,12.48,5.08,11.31,11.47a13,13,0,0,1-9.69,10.35l5.58,13.95H195.57L190.8,54.13h-1.06L187.4,67.32h-10l6.34-35.77Zm-2.28,8.27h-4.93L191,47.33h4.92c2.69,0,4.21-1.26,4.66-3.75C201,41.35,199.88,39.82,197.15,39.82Z"/><path class="cls-1" d="M238.8,39.42H225.86l-1,5.93h11.42l-1.37,7.56H223.47l-1.16,6.5h12.93l-1.37,7.91H210.94l6.34-35.77h22.89Z"/><path class="cls-1" d="M262.43,61.49H249.75l-2.94,5.83H236.36l19.33-35.77h11.46l6.7,35.77h-10.5Zm-2.94-19.18-5.88,11.62h7.66Z"/><path class="cls-1" d="M283.38,31.55h12l4.92,23.19,12.83-23.19h12L318.8,67.32h-9.9l3.5-19.78L302.1,67.32h-8.32l-3.24-19.89L287,67.32H277Z"/><path class="cls-1" d="M349.48,67.68c-8.52,0-14.51-3.76-13.64-11.47h10.5c-.2,2.29.91,3.66,3.35,3.66,1.87,0,3.24-.87,3.24-2.54,0-5.13-14.81-4.11-14.86-14.51C338,35.26,344.11,31,352.48,31c8.06,0,13.7,4.16,12.93,11.11h-10.7a2.57,2.57,0,0,0-2.79-3.3c-1.78,0-3,1-3,2.59,0,4.87,14.81,4.67,14.81,15.07C363.69,62.86,358.36,67.68,349.48,67.68Z"/><path class="cls-1" d="M383.78,55.25h-4.92l-2.13,12.07h-10l6.34-35.77h14.87c8.88,0,12.48,5,11.26,11.93C398.14,49.72,392.86,55.25,383.78,55.25Zm.45-7.87c3,0,4.47-1.57,4.87-3.9s-.5-4-3.5-4h-4l-1.37,7.86Z"/><path class="cls-1" d="M416.29,67.68c-9.18,0-15.17-6.09-15.17-15,0-12.84,8.63-21.71,21.11-21.71,9.39,0,15.32,6,15.32,14.86C437.55,58.6,428.93,67.68,416.29,67.68Zm1.53-9.24c6.19,0,9.89-5.37,9.89-11.41,0-4.26-2.39-6.85-6.75-6.85-6.19,0-10,5.28-10,11.36C411,55.76,413.35,58.44,417.82,58.44Z"/><path class="cls-1" d="M460.94,31.55c8.88,0,12.48,5.08,11.31,11.47a13,13,0,0,1-9.69,10.35l5.58,13.95H457.08l-4.77-13.19h-1.06l-2.34,13.19h-10l6.34-35.77Zm-2.29,8.27h-4.92l-1.27,7.51h4.93c2.68,0,4.21-1.26,4.66-3.75C462.46,41.35,461.39,39.82,458.65,39.82Z"/><path class="cls-1" d="M476.81,31.55h28.92l-1.42,7.92h-9.49L489.9,67.32h-10l4.92-27.85h-9.44Z"/><path class="cls-1" d="M517.9,67.68c-8.52,0-14.51-3.76-13.64-11.47h10.5c-.2,2.29.91,3.66,3.35,3.66,1.87,0,3.24-.87,3.24-2.54,0-5.13-14.81-4.11-14.86-14.51-.05-7.56,6-11.82,14.41-11.82,8.06,0,13.7,4.16,12.93,11.11h-10.7a2.57,2.57,0,0,0-2.79-3.3c-1.78,0-3,1-3,2.59,0,4.87,14.81,4.67,14.81,15.07C532.11,62.86,526.78,67.68,517.9,67.68Z"/></g></g></svg>